<?xml version="1.0" encoding="UTF-8" standalone="no"?>
<!-- Generator: Adobe Illustrator 18.0.0, SVG Export Plug-In . SVG Version: 6.00 Build 0)  -->

<svg
   version="1.1"
   id="Layer_1"
   x="0px"
   y="0px"
   viewBox="0 0 34.375027 16.478678"
   enable-background="new 0 0 1400 980"
   xml:space="preserve"
   sodipodi:docname="rock1.svg"
   inkscape:export-filename="rock1.svg"
   inkscape:export-xdpi="96"
   inkscape:export-ydpi="96"
   inkscape:version="1.3 (0e150ed6c4, 2023-07-21)"
   width="34.375027"
   height="16.478678"
   xmlns:inkscape="http://www.inkscape.org/namespaces/inkscape"
   xmlns:sodipodi="http://sodipodi.sourceforge.net/DTD/sodipodi-0.dtd"
   xmlns="http://www.w3.org/2000/svg"
   xmlns:svg="http://www.w3.org/2000/svg"><defs
   id="defs743" /><sodipodi:namedview
   id="namedview743"
   pagecolor="#ffffff"
   bordercolor="#000000"
   borderopacity="0.25"
   inkscape:showpageshadow="2"
   inkscape:pageopacity="0.0"
   inkscape:pagecheckerboard="0"
   inkscape:deskcolor="#d1d1d1"
   inkscape:zoom="0.41836735"
   inkscape:cx="640.58537"
   inkscape:cy="501.95122"
   inkscape:window-width="1920"
   inkscape:window-height="1024"
   inkscape:window-x="0"
   inkscape:window-y="32"
   inkscape:window-maximized="1"
   inkscape:current-layer="layer3" />&#10;&#10;<g
   inkscape:groupmode="layer"
   id="layer3"
   inkscape:label="rocsk"
   transform="translate(-100.78049,-284.66267)"><g
     id="g494"
     transform="translate(-235.35716,-622.73733)">&#10;			<path
   fill="#92b2c5"
   d="m 365.8,911.8 c -3.4,-4.1 -8.4,-4.4 -13.4,-4.4 -8.3,0 -18.3,7.1 -15.9,16.1 11.2,0.6 22.7,0.4 33.9,0 0.3,-3.9 -2.1,-8.8 -4.6,-11.7 z"
   id="path493" />&#10;			<path
   fill="#7a96a5"
   d="m 336.2,921.1 c 0,0.8 0.1,1.6 0.4,2.4 11.2,0.6 22.7,0.4 33.9,0 0.2,-3.8 -2,-8.4 -4.3,-11.4 0,3.9 0,6.2 -4.2,7.6 -3.8,1.3 -8,1.8 -12,1.9 -3.6,0 -7.3,0.3 -10.9,0 -1,0 -2,-0.2 -2.9,-0.5 z"
   id="path494" />&#10;		</g></g></svg>
