<?xml version="1.0" encoding="UTF-8" standalone="no"?>
<!-- Generator: Adobe Illustrator 18.0.0, SVG Export Plug-In . SVG Version: 6.00 Build 0)  -->

<svg
   version="1.1"
   id="Layer_1"
   x="0px"
   y="0px"
   viewBox="0 0 174.60659 2236.3191"
   enable-background="new 0 0 1400 980"
   xml:space="preserve"
   sodipodi:docname="seaweed.svg"
   inkscape:export-filename="seabed_mod.svg"
   inkscape:export-xdpi="96"
   inkscape:export-ydpi="96"
   inkscape:version="1.3 (0e150ed6c4, 2023-07-21)"
   width="174.6066"
   height="2236.3191"
   xmlns:inkscape="http://www.inkscape.org/namespaces/inkscape"
   xmlns:sodipodi="http://sodipodi.sourceforge.net/DTD/sodipodi-0.dtd"
   xmlns="http://www.w3.org/2000/svg"
   xmlns:svg="http://www.w3.org/2000/svg"><defs
   id="defs743" /><sodipodi:namedview
   id="namedview743"
   pagecolor="#ffffff"
   bordercolor="#000000"
   borderopacity="0.25"
   inkscape:showpageshadow="2"
   inkscape:pageopacity="0.0"
   inkscape:pagecheckerboard="0"
   inkscape:deskcolor="#d1d1d1"
   inkscape:zoom="0.5"
   inkscape:cx="48"
   inkscape:cy="356"
   inkscape:window-width="1920"
   inkscape:window-height="1024"
   inkscape:window-x="0"
   inkscape:window-y="32"
   inkscape:window-maximized="1"
   inkscape:current-layer="g38"
   showgrid="true"><inkscape:grid
     id="grid1"
     units="px"
     originx="34.000004"
     originy="296.83869"
     spacingx="0.99999998"
     spacingy="1"
     empcolor="#0099e5"
     empopacity="0.30196078"
     color="#0099e5"
     opacity="0.14901961"
     empspacing="5"
     dotted="false"
     gridanglex="30"
     gridanglez="30"
     visible="true" /></sodipodi:namedview>&#10;&#10;<g
   inkscape:groupmode="layer"
   id="layer1"
   inkscape:label="seaweed_sprite"
   transform="translate(30.414639,297.838)"><g
     inkscape:groupmode="layer"
     id="g38"
     inkscape:label="frame_8"
     transform="translate(-11.078213,1487.1042)"><path
       fill="#0d7444"
       d="m 89.748826,312.36829 c -1.4,-10.2 -10.850788,-17.27461 -13.250788,-27.07461 -2.4,-10.1 -11.802855,-19.7 -13.502855,-30.1 -3.3,-19.4 -5.090158,-38 -5.090158,-57.7 l 4,-14 c -10.5,13.9 -11.3,42.5 -11.3,60.7 0,23.7 14.779038,42.50699 18.279038,65.90699 4.2,27.4 8.87746,48.90699 9.77746,76.70699 0.4,11.7 -1.512697,30.06063 -1.412697,41.86063 0,6.7 -2.1,13.5 -1,19.9 4,0.2 8.2,0.2 12.3,0 2.6,-44.2 7.4,-91.9 1.2,-136.2 z"
       id="path34"
       sodipodi:nodetypes="cccccscccccc" /><path
       fill="#0d7444"
       d="m 46.248826,386.56829 c -5,-10.1 -11.4,-18.3 -17.1,-28 -5.1,-8.6 -9.086464,-14.25332 -12.286464,-23.65332 -4.1,-12.1 -7.9163908,-24.87906 -7.4163908,-37.57906 0.3,-7 -1.8915851,-13.47746 -0.6915851,-20.37746 0.4,-2.1 -5.0155519,-19.22254 -4.215552,-19.72254 -7.2999999,4.6 -1.2492115,19.23381 -3.4492115,26.93381 -4.5,16.2 2.7403579,34.6873 5.0403576,51.2873 3.1,22.3 13.7217008,38.77603 21.8217008,59.77603 2.5,6.4 2.497145,34.33524 -5.302855,38.73524 l 2.7,-0.7 c 7.7,-3.8 19.1,-9.7 27.9,-10.1 0.7,-12.2 -1.8,-26 -7,-36.6 z"
       id="path35"
       sodipodi:nodetypes="ccccccccccccc" /><path
       fill="#89ba4b"
       d="m 55.248826,437.26829 c -10.2,-9 -11.1,-28.2 -10.7,-40.7 0.6,-17.7 0.949211,-37.79016 7.849211,-53.79016 8.1,-18.8 6.671752,-34.93238 9.771752,-55.73238 2.9,-19.8 16.615626,-39.21127 16.615626,-59.41127 -0.3,5.1 0.242224,12.27325 1.042224,17.67325 0.9,6.4 -0.05214,10.6704 0.647859,17.5704 1.5,16 -2.815552,30.23238 -2.715552,46.63238 0.1,21 -0.681593,40.64508 -7.681593,60.34508 -3.5,9.9 -2.029527,22.9127 -2.229527,33.6127 -0.1,4.3 -0.1,8.4 0.7,12.5 0.8,4.1 4.5,9.1 4.8,13.2 0,-0.2 1.6,2.7 1.6,2.7 -8.2,-0.1 -18.3,2.4 -25.8,5.4 z"
       id="path36"
       sodipodi:nodetypes="ccccccccccscccc" /><path
       fill="#659540"
       d="m 55.248826,367.06829 c 0,-21.2 -12.115552,-40.95207 -21.715552,-60.15207 -10,-20 -29.2536431,-37.61968 -31.1536431,-60.41968 -0.7,-8.3 0,-17.1 0,-25.4 0,-7.6 2.2,-17.9 1.2,-25 -1.9,6.1 -5.5,11.8 -8.2,17.8 -4.0000001,8.9 -6.4126969,22.14793 -6.4126969,31.74793 0,24.3 18.6564978,37.41398 25.456498,60.81398 4.2,14.5 14.125394,27.00984 17.725394,41.60984 2.7,11 1.6,24.5 1.1,35.9 -0.8,15.7 -5.4,32.1 -4.7,47.8 l -7.3,4 c 9.6,1.6 20.6,2.4 29.4,0 5.9,-21.9 4.6,-45.9 4.6,-68.7 z"
       id="path37"
       sodipodi:nodetypes="sscsccsccccccs" /><path
       fill="#89ba4b"
       d="m 125.06851,319.24575 c -0.7,-5.1 -1.8,-9.9 -3.2,-14.6 -1.3,-4.2 -4.2,-10.1 -4.1,-14.6 -5.2,4.8 -5.22539,29.35492 -6.12539,37.15492 -1.8,15.9 -7.4873,30.0127 -13.887302,43.9127 -5.300004,11.6 -3.206992,22.55492 -7.906992,34.15492 -2.6,6.5 -4.5,12.9 -6.2,19.6 -1,3.9 -1.2,13.2 -2.5,14.9 h 8.7 c 7,0.8 15.800004,3.8 22.700004,2.6 -4.1,-11.9 1.2,-29 4.7,-40.2 4.2,-13.5 -0.2311,-28.92254 2.1689,-42.92254 2.3,-13 7.55078,-27.7 5.65078,-40 z"
       id="path38"
       sodipodi:nodetypes="ccccccccccccc" /><rect
       style="fill:none;stroke:#a45618;stroke-width:0;stroke-dasharray:none"
       id="rect1-5-2-4-4-4-7-8"
       width="174.6066"
       height="270.62967"
       x="-19.336426"
       y="180.74718" /></g><g
     inkscape:groupmode="layer"
     id="g33"
     inkscape:label="frame_7"
     transform="translate(-9.0568202,1206.2996)"><path
       fill="#0d7444"
       d="m 81.720577,315.74861 c -1.4,-10.2 -10.850788,-13.8943 -13.250788,-23.6943 -2.4,-10.1 -12.647934,-28.15079 -14.347934,-38.55079 -3.3,-19.4 -1.287303,-35.46476 3.78317,-56.00984 l 4,-14 c -10.5,13.9 -22.708564,45.88032 -22.708564,64.08032 0,23.7 17.314274,43.7746 20.814274,67.1746 4.2,27.4 17.750788,44.25906 18.650788,72.05906 0.4,11.7 -1.512697,30.06063 -1.412697,41.86063 0,6.7 -2.1,13.5 -1,19.9 4,0.2 8.2,0.2 12.3,0 2.6,-44.2 -0.628249,-88.51968 -6.828249,-132.81968 z"
       id="path29"
       sodipodi:nodetypes="cccccscccccc" /><path
       fill="#0d7444"
       d="m 46.248826,386.56829 c -5,-10.1 -18.160631,-14.91968 -23.860631,-24.61968 -5.1,-8.6 -14.6944399,-15.6535 -17.8944396,-25.0535 -4.10000004,-12.1 -7.8014274,-24.32396 -7.3014274,-37.02396 0.3,-7 -0.6239668,-16.0127 0.5760332,-22.9127 0.4,-2.1 -5.0155519,-15.41969 -4.215552,-15.91969 -7.3000002,4.6 -4.2069872,17.54366 -6.4069872,25.24366 -2.387303,15.77746 4.7380911,38.49015 7.0380908,55.09015 3.1,22.3 25.6677682,32.86048 33.7677682,53.86048 2.5,6.4 2.497145,34.33524 -5.302855,38.73524 l 2.7,-0.7 c 7.7,-3.8 19.1,-9.7 27.9,-10.1 0.7,-12.2 -1.8,-26 -7,-36.6 z"
       id="path30"
       sodipodi:nodetypes="ccccccccccccc" /><path
       fill="#89ba4b"
       d="m 55.248826,437.26829 c -10.2,-9 -11.1,-28.2 -10.7,-40.7 0.6,-17.7 3.484448,-37.79016 10.384448,-53.79016 6.832381,-19.22254 0.7562,-35.35492 3.8562,-56.15492 2.9,-19.8 9.854995,-39.21127 9.854995,-59.41127 -0.3,5.1 0.242224,12.27325 1.042224,17.67325 0.9,6.4 -0.05214,10.6704 0.647859,17.5704 1.5,16 1.832382,29.3873 1.932382,45.7873 0.1,21 -0.681593,40.22254 -7.681593,59.92254 -3.5,9.9 3.463485,24.60286 3.263485,35.30286 -0.1,4.3 -0.1,8.4 0.7,12.5 0.8,4.1 4.5,9.1 4.8,13.2 0,-0.2 1.6,2.7 1.6,2.7 -8.2,-0.1 -18.3,2.4 -25.8,5.4 z"
       id="path31"
       sodipodi:nodetypes="ccccccccccscccc" /><path
       fill="#659540"
       d="m 55.248826,367.06829 c 0,-21.2 -18.876183,-36.30414 -28.476183,-55.50414 -10,-20 -28.8311034,-36.7746 -30.7311034,-59.5746 -0.7,-8.3 4.2253942,-23.01555 6.3380913,-30.89301 1.9687095,-7.34058 2.2,-17.9 1.2,-25 -1.9,6.1 -5.5,11.8 -8.2,17.8 -4.0000001,8.9 -14.8634849,31.02126 -14.8634849,40.62126 0,24.3 18.86621227,35.3541 27.3051076,57.06394 8.1084894,11.22532 17.3472574,23.15417 20.9472574,37.75417 2.7,11 4.980315,23.23238 4.480315,34.63238 -0.8,15.7 -5.4,32.1 -4.7,47.8 l -7.3,4 c 9.6,1.6 20.6,2.4 29.4,0 5.9,-21.9 4.6,-45.9 4.6,-68.7 z"
       id="path32"
       sodipodi:nodetypes="sscsccsccccccs" /><path
       fill="#89ba4b"
       d="m 109.85709,324.73876 c -0.7,-5.1 -1.8,-10.11127 -3.2,-14.81127 -1.3,-4.2 1.71555,-15.38174 1.81555,-19.88174 -5.2,4.8 -10.295863,28.93238 -11.195863,36.73238 -1.8,15.9 -2.416824,30.43524 -8.816826,44.33524 -5.300004,11.6 6.088875,22.55492 1.388875,34.15492 -2.6,6.5 -4.5,12.9 -6.2,19.6 -1,3.9 -1.2,13.2 -2.5,14.9 h 8.7 c 7,0.8 15.800004,3.8 22.700004,2.6 -4.1,-11.9 1.2,-29 4.7,-40.2 4.2,-13.5 -12.0622,-28.92254 -9.6622,-42.92254 2.3,-13 4.17046,-22.20699 2.27046,-34.50699 z"
       id="path33"
       sodipodi:nodetypes="ccccccccccccc" /><rect
       style="fill:none;stroke:#a45618;stroke-width:0;stroke-dasharray:none"
       id="rect1-5-2-4-4-4-7"
       width="174.6066"
       height="270.62967"
       x="-21.357819"
       y="180.74718" /></g><g
     inkscape:groupmode="layer"
     id="g28"
     inkscape:label="frame_6"
     transform="translate(-10.015621,925.43251)"><path
       fill="#0d7444"
       d="m 89.748826,312.36829 c -1.4,-10.2 -10.850788,-17.27461 -13.250788,-27.07461 -2.4,-10.1 -11.802855,-19.7 -13.502855,-30.1 -3.3,-19.4 -5.090158,-38 -5.090158,-57.7 l 4,-14 c -10.5,13.9 -11.3,42.5 -11.3,60.7 0,23.7 14.779038,42.50699 18.279038,65.90699 4.2,27.4 8.87746,48.90699 9.77746,76.70699 0.4,11.7 -1.512697,30.06063 -1.412697,41.86063 0,6.7 -2.1,13.5 -1,19.9 4,0.2 8.2,0.2 12.3,0 2.6,-44.2 7.4,-91.9 1.2,-136.2 z"
       id="path24"
       sodipodi:nodetypes="cccccscccccc" /><path
       fill="#0d7444"
       d="m 46.248826,386.56829 c -5,-10.1 -11.4,-18.3 -17.1,-28 -5.1,-8.6 -9.086464,-14.25332 -12.286464,-23.65332 -4.1,-12.1 -7.9163908,-24.87906 -7.4163908,-37.57906 0.3,-7 -1.8915851,-13.47746 -0.6915851,-20.37746 0.4,-2.1 -5.0155519,-19.22254 -4.215552,-19.72254 -7.2999999,4.6 -1.2492115,19.23381 -3.4492115,26.93381 -4.5,16.2 2.7403579,34.6873 5.0403576,51.2873 3.1,22.3 13.7217008,38.77603 21.8217008,59.77603 2.5,6.4 2.497145,34.33524 -5.302855,38.73524 l 2.7,-0.7 c 7.7,-3.8 19.1,-9.7 27.9,-10.1 0.7,-12.2 -1.8,-26 -7,-36.6 z"
       id="path25"
       sodipodi:nodetypes="ccccccccccccc" /><path
       fill="#89ba4b"
       d="m 55.248826,437.26829 c -10.2,-9 -11.1,-28.2 -10.7,-40.7 0.6,-17.7 0.949211,-37.79016 7.849211,-53.79016 8.1,-18.8 6.671752,-34.93238 9.771752,-55.73238 2.9,-19.8 16.615626,-39.21127 16.615626,-59.41127 -0.3,5.1 0.242224,12.27325 1.042224,17.67325 0.9,6.4 -0.05214,10.6704 0.647859,17.5704 1.5,16 -2.815552,30.23238 -2.715552,46.63238 0.1,21 -0.681593,40.64508 -7.681593,60.34508 -3.5,9.9 -2.029527,22.9127 -2.229527,33.6127 -0.1,4.3 -0.1,8.4 0.7,12.5 0.8,4.1 4.5,9.1 4.8,13.2 0,-0.2 1.6,2.7 1.6,2.7 -8.2,-0.1 -18.3,2.4 -25.8,5.4 z"
       id="path26"
       sodipodi:nodetypes="ccccccccccscccc" /><path
       fill="#659540"
       d="m 55.248826,367.06829 c 0,-21.2 -12.115552,-40.95207 -21.715552,-60.15207 -10,-20 -29.2536431,-37.61968 -31.1536431,-60.41968 -0.7,-8.3 0,-17.1 0,-25.4 0,-7.6 2.2,-17.9 1.2,-25 -1.9,6.1 -5.5,11.8 -8.2,17.8 -4.0000001,8.9 -6.4126969,22.14793 -6.4126969,31.74793 0,24.3 18.6564978,37.41398 25.456498,60.81398 4.2,14.5 14.125394,27.00984 17.725394,41.60984 2.7,11 1.6,24.5 1.1,35.9 -0.8,15.7 -5.4,32.1 -4.7,47.8 l -7.3,4 c 9.6,1.6 20.6,2.4 29.4,0 5.9,-21.9 4.6,-45.9 4.6,-68.7 z"
       id="path27"
       sodipodi:nodetypes="sscsccsccccccs" /><path
       fill="#89ba4b"
       d="m 125.06851,319.24575 c -0.7,-5.1 -1.8,-9.9 -3.2,-14.6 -1.3,-4.2 -4.2,-10.1 -4.1,-14.6 -5.2,4.8 -5.22539,29.35492 -6.12539,37.15492 -1.8,15.9 -7.4873,30.0127 -13.887302,43.9127 -5.300004,11.6 -3.206992,22.55492 -7.906992,34.15492 -2.6,6.5 -4.5,12.9 -6.2,19.6 -1,3.9 -1.2,13.2 -2.5,14.9 h 8.7 c 7,0.8 15.800004,3.8 22.700004,2.6 -4.1,-11.9 1.2,-29 4.7,-40.2 4.2,-13.5 -0.2311,-28.92254 2.1689,-42.92254 2.3,-13 7.55078,-27.7 5.65078,-40 z"
       id="path28"
       sodipodi:nodetypes="ccccccccccccc" /><rect
       style="fill:none;stroke:#a45618;stroke-width:0;stroke-dasharray:none"
       id="rect1-5-2-4-4-4"
       width="174.6066"
       height="270.62967"
       x="-20.399017"
       y="180.80968" /></g><g
     inkscape:groupmode="layer"
     id="g23"
     inkscape:label="frame_5"
     transform="translate(-10.249981,646.64684)"><path
       fill="#0d7444"
       d="m 89.748826,312.36829 c -1.4,-10.2 -2.4,-21.5 -4.8,-31.3 -2.4,-10.1 -8,-19.7 -9.7,-30.1 -3.3,-19.4 -3.4,-38 -3.4,-57.7 l 4,-14 c -10.5,13.9 -11.3,42.5 -11.3,60.7 0,23.7 -1.7,48 1.8,71.4 4.2,27.4 9.3,54.4 10.2,82.2 0.4,11.7 0.6,23.3 0.7,35.1 0,6.7 -2.1,13.5 -1,19.9 4,0.2 8.2,0.2 12.3,0 2.6,-44.2 7.4,-91.9 1.2,-136.2 z"
       id="path19" /><path
       fill="#0d7444"
       d="m 46.248826,386.56829 c -5,-10.1 -11.4,-18.3 -17.1,-28 -5.1,-8.6 -7.3,-18.4 -10.5,-27.8 -4.1,-12.1 -5.9,-22 -5.4,-34.7 0.3,-7 1.7,-13.9 2.9,-20.8 0.4,-2.1 0.9,-18.8 1.7,-19.3 -7.3,4.6 -9.7000001,18.6 -11.9000001,26.3 -4.5,16.2 -1.6,36.8 0.7,53.4 3.1,22.3 9.4000001,41.1 17.5000001,62.1 2.5,6.4 6.3,31.8 -1.5,36.2 l 2.7,-0.7 c 7.7,-3.8 19.1,-9.7 27.9,-10.1 0.7,-12.2 -1.8,-26 -7,-36.6 z"
       id="path20" /><path
       fill="#89ba4b"
       d="m 55.248826,437.26829 c -10.2,-9 -11.1,-28.2 -10.7,-40.7 0.6,-17.7 9.4,-36.1 16.3,-52.1 8.1,-18.8 14.7,-36.2 17.8,-57 2.9,-19.8 3.2,-39 3.2,-59.2 -0.3,5.1 3.2,10.9 4,16.3 0.9,6.4 2.8,13.1 3.5,20 1.5,16 3.1,31.5 3.2,47.9 0.1,21 -10.4,39.8 -17.4,59.5 -3.5,9.9 -7.1,20.8 -7.3,31.5 -0.1,4.3 -0.1,8.4 0.7,12.5 0.8,4.1 4.5,9.1 4.8,13.2 0,-0.2 1.6,2.7 1.6,2.7 -8.2,-0.1 -18.3,2.4 -25.8,5.4 z"
       id="path21" /><path
       fill="#659540"
       d="m 55.248826,367.06829 c 0,-21.2 -6.2,-45.6 -15.8,-64.8 -10,-20 -17,-41 -18.9,-63.8 -0.7,-8.3 0,-17.1 0,-25.4 0,-7.6 2.2,-17.9 1.2,-25 -1.9,6.1 -5.5,11.8 -8.2,17.8 -4.0000001,8.9 -4.3000001,17.5 -4.3000001,27.1 0,24.3 2.6000001,48.4 9.4000001,71.8 4.2,14.5 9.9,28.7 13.5,43.3 2.7,11 1.6,24.5 1.1,35.9 -0.8,15.7 -5.4,32.1 -4.7,47.8 l -7.3,4 c 9.6,1.6 20.6,2.4 29.4,0 5.9,-21.9 4.6,-45.9 4.6,-68.7 z"
       id="path22" /><path
       fill="#89ba4b"
       d="m 128.44883,319.66829 c -0.7,-5.1 -1.8,-9.9 -3.2,-14.6 -1.3,-4.2 -4.2,-10.1 -4.1,-14.6 -5.2,4.8 -1,30.2 -1.9,38 -1.8,15.9 -9.6,27.9 -16,41.8 -5.300004,11.6 -8.700004,23.4 -13.400004,35 -2.6,6.5 -4.5,12.9 -6.2,19.6 -1,3.9 -1.2,13.2 -2.5,14.9 h 8.7 c 7,0.8 15.800004,3.8 22.700004,2.6 -4.1,-11.9 1.2,-29 4.7,-40.2 4.2,-13.5 11.6,-28.5 14,-42.5 2.3,-13 -0.9,-27.7 -2.8,-40 z"
       id="path23" /><rect
       style="fill:none;stroke:#a45618;stroke-width:0;stroke-dasharray:none"
       id="rect1-5-2-4-4"
       width="174.6066"
       height="270.69217"
       x="-20.164658"
       y="178.75949" /></g><g
     inkscape:groupmode="layer"
     id="g14"
     inkscape:label="frame_4"
     transform="translate(-10.418316,366.54482)"><path
       fill="#0d7444"
       d="m 89.748826,312.36829 c -1.4,-10.2 4.78317,-21.5 2.38317,-31.3 -2.4,-10.1 1.718407,-20.96762 0.01841,-31.36762 -3.3,-19.4 -3.4,-38 -3.4,-57.7 l 4,-14 c -10.5,13.9 -11.3,42.5 -11.3,60.7 0,23.7 -18.601577,49.26762 -15.101577,72.66762 4.2,27.4 9.3,54.4 10.2,82.2 0.4,11.7 0.6,23.3 0.7,35.1 0,6.7 -2.1,13.5 -1,19.9 4,0.2 8.2,0.2 12.3,0 2.6,-44.2 7.4,-91.9 1.2,-136.2 z"
       id="path10"
       sodipodi:nodetypes="cccccscccccc" /><path
       fill="#0d7444"
       d="m 46.248826,386.56829 c -5,-10.1 -4.21683,-20.83524 -9.91683,-30.53524 -5.1,-8.6 -2.652066,-18.4 -5.852066,-27.8 -4.1,-12.1 -4.632382,-24.53523 -4.132382,-37.23523 0.3,-7 1.7,-13.9 2.9,-20.8 0.4,-2.1 0.9,-18.8 1.7,-19.3 -7.3,4.6 -9.7,18.6 -11.9,26.3 -4.5,16.2 -4.557776,38.91269 -2.257776,55.51269 3.1,22.3 6.442224,41.52254 14.542224,62.52254 2.5,6.4 -0.88317,34.33524 -8.68317,38.73524 l 2.7,-0.7 c 7.7,-3.8 19.1,-9.7 27.9,-10.1 0.7,-12.2 -1.8,-26 -7,-36.6 z"
       id="path11"
       sodipodi:nodetypes="ccccccccccccc" /><path
       fill="#89ba4b"
       d="m 55.248826,437.26829 c -10.2,-9 -11.1,-28.2 -10.7,-40.7 0.6,-17.7 9.4,-36.1 16.3,-52.1 8.1,-18.8 27.798722,-35.35492 30.898722,-56.15492 2.9,-19.8 0.242224,-41.1127 0.242224,-61.3127 -0.3,5.1 3.2,10.9 4,16.3 0.9,6.4 2.8,13.1 3.5,20 1.499998,16 3.099998,31.5 3.199998,47.9 0.1,21 -20.540944,41.06762 -27.540944,60.76762 -3.5,9.9 -7.1,20.8 -7.3,31.5 -0.1,4.3 -0.1,8.4 0.7,12.5 0.8,4.1 4.5,9.1 4.8,13.2 0,-0.2 1.6,2.7 1.6,2.7 -8.2,-0.1 -18.3,2.4 -25.8,5.4 z"
       id="path12"
       sodipodi:nodetypes="ccccccccccscccc" /><path
       fill="#659540"
       d="m 55.248826,367.06829 c 0,-21.2 4.363486,-46.44508 -5.236514,-65.64508 -10,-20 -5.591436,-42.69016 -7.491436,-65.49016 -0.7,-8.3 0,-17.1 0,-25.4 0,-7.6 -6.250788,-19.16762 -7.250788,-26.26762 -1.9,6.1 2.950788,13.06762 0.250788,19.06762 -4,8.9 -4.3,17.5 -4.3,27.1 0,24.3 -8.808564,50.09016 -2.008564,73.49016 4.2,14.5 -0.663486,29.54508 2.936514,44.14508 2.7,11 1.6,24.5 1.1,35.9 -0.8,15.7 -5.4,32.1 -4.7,47.8 l -7.3,4 c 9.6,1.6 20.6,2.4 29.4,0 5.9,-21.9 4.6,-45.9 4.6,-68.7 z"
       id="path13"
       sodipodi:nodetypes="sscsccsccccccs" /><path
       fill="#89ba4b"
       d="m 140.70247,317.55559 c -0.7,-5.1 -1.8,-9.9 -3.2,-14.6 -1.3,-4.2 -4.2,-10.1 -4.1,-14.6 -5.2,4.8 -1,30.2 -1.9,38 -1.8,15.9 -14.67047,35.08317 -21.07047,48.98317 -5.3,11.6 -15.883174,18.32953 -20.583174,29.92953 -2.6,6.5 -4.5,12.9 -6.2,19.6 -1,3.9 -1.2,13.2 -2.5,14.9 h 8.7 c 7,0.8 15.800004,3.8 22.700004,2.6 -4.1,-11.9 1.2,-29 4.7,-40.2 4.2,-13.5 23.85364,-30.6127 26.25364,-44.6127 2.3,-13 -0.9,-27.7 -2.8,-40 z"
       id="path14"
       sodipodi:nodetypes="ccccccccccccc" /><rect
       style="fill:none;stroke:#a45618;stroke-width:0;stroke-dasharray:none"
       id="rect1-5-2-4"
       width="174.6066"
       height="270.56717"
       x="-19.996323"
       y="178.23811" /></g><g
     inkscape:groupmode="layer"
     id="g5"
     inkscape:label="frame_3"
     transform="translate(-9.8139003,83.90579)"><path
       fill="#0d7444"
       d="m 92.706602,308.56544 c -1.4,-10.2 9.431108,-16.00699 7.031104,-25.80699 -2.4,-10.1 11.014274,-18.43239 9.314274,-28.83239 -3.3,-19.4 -3.4,-38 -3.4,-57.7 l 4,-14 c -10.499997,13.9 -11.299997,42.5 -11.299997,60.7 0,23.7 -25.362208,43.77461 -21.862208,67.17461 4.2,27.4 -0.840946,55.66762 0.05905,83.46762 0.4,11.7 0.6,23.3 0.7,35.1 0,6.7 -2.1,13.5 -1,19.9 4,0.2 8.2,0.2 12.3,0 2.6,-44.2 10.357776,-80.91398 4.157776,-125.21398 z"
       id="path1"
       sodipodi:nodetypes="cccccsccccccc" /><path
       fill="#0d7444"
       d="m 46.248826,386.56829 c -5,-10.1 -4.21683,-20.83524 -9.91683,-30.53524 -5.1,-8.6 -0.539369,-18.82254 -3.739369,-28.22254 -4.1,-12.1 -3.364764,-21.99999 -2.864764,-34.69999 0.3,-7 7.193013,-19.39302 8.393013,-26.29302 0.4,-2.1 0.9,-18.8 1.7,-19.3 -7.3,4.6 -9.7,18.6 -11.9,26.3 -4.5,16.2 -8.78317,41.44793 -6.48317,58.04793 3.1,22.3 1.79429,42.36762 9.89429,63.36762 2.5,6.4 -0.88317,34.33524 -8.68317,38.73524 l 2.7,-0.7 c 7.7,-3.8 19.1,-9.7 27.9,-10.1 0.7,-12.2 -1.8,-26 -7,-36.6 z"
       id="path2"
       sodipodi:nodetypes="ccccccccccccc" /><path
       fill="#89ba4b"
       d="m 55.248826,437.26829 c -10.2,-9 -11.1,-28.2 -10.7,-40.7 0.6,-17.7 16.160631,-28.07175 23.060631,-44.07175 8.1,-18.8 34.136813,-44.65079 37.236813,-65.45079 2.9,-19.8 0.24222,-41.1127 0.24222,-61.3127 -0.3,5.1 3.2,10.9 4,16.3 0.9,6.4 2.8,13.1 3.5,20 1.5,16 3.1,31.5 3.2,47.9 0.1,21 -33.639664,42.33524 -40.639664,62.03524 -3.5,9.9 -7.1,20.8 -7.3,31.5 -0.1,4.3 -0.1,8.4 0.7,12.5 0.8,4.1 4.5,9.1 4.8,13.2 0,-0.2 1.6,2.7 1.6,2.7 -8.2,-0.1 -18.3,2.4 -25.8,5.4 z"
       id="path3"
       sodipodi:nodetypes="ccccccccccscccc" /><path
       fill="#659540"
       d="m 55.248826,367.06829 c 0,-21.2 15.77205,-48.13524 6.17205,-67.33524 -10,-20 -6.013975,-43.53524 -7.913975,-66.33524 -0.7,-8.3 0,-17.1 0,-25.4 0,-7.6 -6.250788,-19.16762 -7.250788,-26.26762 -1.9,6.1 2.950788,13.06762 0.250788,19.06762 -4,8.9 -4.3,17.5 -4.3,27.1 0,24.3 -8.808565,52.6254 -2.008565,76.0254 4.2,14.5 -11.64951,29.54508 -8.04951,44.14508 2.7,11 1.6,24.5 1.1,35.9 -0.8,15.7 -5.4,32.1 -4.7,47.8 l -7.3,4 c 9.6,1.6 20.6,2.4 29.4,0 5.9,-21.9 4.6,-45.9 4.6,-68.7 z"
       id="path4"
       sodipodi:nodetypes="sscsccsccccccs" /><path
       fill="#89ba4b"
       d="m 152.95611,317.55559 c -0.7,-5.1 -1.8,-9.9 -3.2,-14.6 -1.3,-4.2 -4.2,-10.1 -4.1,-14.6 -5.2,4.8 -1,30.2 -1.9,38 -1.8,15.9 -23.96633,34.66063 -30.36633,48.56063 -5.3,11.6 -18.840954,18.75207 -23.540954,30.35207 -2.6,6.5 -4.5,12.9 -6.2,19.6 -1,3.9 -1.2,13.2 -2.5,14.9 h 8.7 c 7,0.8 15.800004,3.8 22.700004,2.6 -4.1,-11.9 1.2,-29 4.7,-40.2 4.2,-13.5 23.85364,-30.6127 26.25364,-44.6127 2.3,-13 11.35364,-27.7 9.45364,-40 z"
       id="path5"
       sodipodi:nodetypes="ccccccccccccc" /><rect
       style="fill:none;stroke:#a45618;stroke-width:0;stroke-dasharray:none"
       id="rect1-5-2"
       width="174.6066"
       height="270.74393"
       x="-20.600739"
       y="179.86543" /></g><g
     inkscape:groupmode="layer"
     id="layer2"
     inkscape:label="frame_2"
     transform="translate(-9.7933257,-195.03406)"><path
       fill="#0d7444"
       d="m 89.748826,312.36829 c -1.4,-10.2 4.78317,-21.5 2.38317,-31.3 -2.4,-10.1 1.718407,-20.96762 0.01841,-31.36762 -3.3,-19.4 -3.4,-38 -3.4,-57.7 l 4,-14 c -10.5,13.9 -11.3,42.5 -11.3,60.7 0,23.7 -18.601577,49.26762 -15.101577,72.66762 4.2,27.4 9.3,54.4 10.2,82.2 0.4,11.7 0.6,23.3 0.7,35.1 0,6.7 -2.1,13.5 -1,19.9 4,0.2 8.2,0.2 12.3,0 2.6,-44.2 7.4,-91.9 1.2,-136.2 z"
       id="path479"
       sodipodi:nodetypes="cccccscccccc" /><path
       fill="#0d7444"
       d="m 46.248826,386.56829 c -5,-10.1 -4.21683,-20.83524 -9.91683,-30.53524 -5.1,-8.6 -2.652066,-18.4 -5.852066,-27.8 -4.1,-12.1 -4.632382,-24.53523 -4.132382,-37.23523 0.3,-7 1.7,-13.9 2.9,-20.8 0.4,-2.1 0.9,-18.8 1.7,-19.3 -7.3,4.6 -9.7,18.6 -11.9,26.3 -4.5,16.2 -4.557776,38.91269 -2.257776,55.51269 3.1,22.3 6.442224,41.52254 14.542224,62.52254 2.5,6.4 -0.88317,34.33524 -8.68317,38.73524 l 2.7,-0.7 c 7.7,-3.8 19.1,-9.7 27.9,-10.1 0.7,-12.2 -1.8,-26 -7,-36.6 z"
       id="path480"
       sodipodi:nodetypes="ccccccccccccc" /><path
       fill="#89ba4b"
       d="m 55.248826,437.26829 c -10.2,-9 -11.1,-28.2 -10.7,-40.7 0.6,-17.7 9.4,-36.1 16.3,-52.1 8.1,-18.8 27.798722,-35.35492 30.898722,-56.15492 2.9,-19.8 0.242224,-41.1127 0.242224,-61.3127 -0.3,5.1 3.2,10.9 4,16.3 0.9,6.4 2.8,13.1 3.5,20 1.499998,16 3.099998,31.5 3.199998,47.9 0.1,21 -20.540944,41.06762 -27.540944,60.76762 -3.5,9.9 -7.1,20.8 -7.3,31.5 -0.1,4.3 -0.1,8.4 0.7,12.5 0.8,4.1 4.5,9.1 4.8,13.2 0,-0.2 1.6,2.7 1.6,2.7 -8.2,-0.1 -18.3,2.4 -25.8,5.4 z"
       id="path481"
       sodipodi:nodetypes="ccccccccccscccc" /><path
       fill="#659540"
       d="m 55.248826,367.06829 c 0,-21.2 4.363486,-46.44508 -5.236514,-65.64508 -10,-20 -5.591436,-42.69016 -7.491436,-65.49016 -0.7,-8.3 0,-17.1 0,-25.4 0,-7.6 -6.250788,-19.16762 -7.250788,-26.26762 -1.9,6.1 2.950788,13.06762 0.250788,19.06762 -4,8.9 -4.3,17.5 -4.3,27.1 0,24.3 -8.808564,50.09016 -2.008564,73.49016 4.2,14.5 -0.663486,29.54508 2.936514,44.14508 2.7,11 1.6,24.5 1.1,35.9 -0.8,15.7 -5.4,32.1 -4.7,47.8 l -7.3,4 c 9.6,1.6 20.6,2.4 29.4,0 5.9,-21.9 4.6,-45.9 4.6,-68.7 z"
       id="path482"
       sodipodi:nodetypes="sscsccsccccccs" /><path
       fill="#89ba4b"
       d="m 140.70247,317.55559 c -0.7,-5.1 -1.8,-9.9 -3.2,-14.6 -1.3,-4.2 -4.2,-10.1 -4.1,-14.6 -5.2,4.8 -1,30.2 -1.9,38 -1.8,15.9 -14.67047,35.08317 -21.07047,48.98317 -5.3,11.6 -15.883174,18.32953 -20.583174,29.92953 -2.6,6.5 -4.5,12.9 -6.2,19.6 -1,3.9 -1.2,13.2 -2.5,14.9 h 8.7 c 7,0.8 15.800004,3.8 22.700004,2.6 -4.1,-11.9 1.2,-29 4.7,-40.2 4.2,-13.5 23.85364,-30.6127 26.25364,-44.6127 2.3,-13 -0.9,-27.7 -2.8,-40 z"
       id="path483"
       sodipodi:nodetypes="ccccccccccccc" /><rect
       style="fill:none;stroke:#a45618;stroke-width:0;stroke-dasharray:none"
       id="rect1-5"
       width="174.6066"
       height="270.74393"
       x="-20.621313"
       y="178.00067" /></g><g
     inkscape:groupmode="layer"
     id="layer2-6"
     inkscape:label="frame_1"
     transform="translate(-10,-476.4737)"><path
       fill="#0d7444"
       d="m 89.748826,312.36829 c -1.4,-10.2 -2.4,-21.5 -4.8,-31.3 -2.4,-10.1 -8,-19.7 -9.7,-30.1 -3.3,-19.4 -3.4,-38 -3.4,-57.7 l 4,-14 c -10.5,13.9 -11.3,42.5 -11.3,60.7 0,23.7 -1.7,48 1.8,71.4 4.2,27.4 9.3,54.4 10.2,82.2 0.4,11.7 0.6,23.3 0.7,35.1 0,6.7 -2.1,13.5 -1,19.9 4,0.2 8.2,0.2 12.3,0 2.6,-44.2 7.4,-91.9 1.2,-136.2 z"
       id="path479-1" /><path
       fill="#0d7444"
       d="m 46.248826,386.56829 c -5,-10.1 -11.4,-18.3 -17.1,-28 -5.1,-8.6 -7.3,-18.4 -10.5,-27.8 -4.1,-12.1 -5.9,-22 -5.4,-34.7 0.3,-7 1.7,-13.9 2.9,-20.8 0.4,-2.1 0.9,-18.8 1.7,-19.3 -7.3,4.6 -9.7000001,18.6 -11.9000001,26.3 -4.5,16.2 -1.6,36.8 0.7,53.4 3.1,22.3 9.4000001,41.1 17.5000001,62.1 2.5,6.4 6.3,31.8 -1.5,36.2 l 2.7,-0.7 c 7.7,-3.8 19.1,-9.7 27.9,-10.1 0.7,-12.2 -1.8,-26 -7,-36.6 z"
       id="path480-5" /><path
       fill="#89ba4b"
       d="m 55.248826,437.26829 c -10.2,-9 -11.1,-28.2 -10.7,-40.7 0.6,-17.7 9.4,-36.1 16.3,-52.1 8.1,-18.8 14.7,-36.2 17.8,-57 2.9,-19.8 3.2,-39 3.2,-59.2 -0.3,5.1 3.2,10.9 4,16.3 0.9,6.4 2.8,13.1 3.5,20 1.5,16 3.1,31.5 3.2,47.9 0.1,21 -10.4,39.8 -17.4,59.5 -3.5,9.9 -7.1,20.8 -7.3,31.5 -0.1,4.3 -0.1,8.4 0.7,12.5 0.8,4.1 4.5,9.1 4.8,13.2 0,-0.2 1.6,2.7 1.6,2.7 -8.2,-0.1 -18.3,2.4 -25.8,5.4 z"
       id="path481-5" /><path
       fill="#659540"
       d="m 55.248826,367.06829 c 0,-21.2 -6.2,-45.6 -15.8,-64.8 -10,-20 -17,-41 -18.9,-63.8 -0.7,-8.3 0,-17.1 0,-25.4 0,-7.6 2.2,-17.9 1.2,-25 -1.9,6.1 -5.5,11.8 -8.2,17.8 -4.0000001,8.9 -4.3000001,17.5 -4.3000001,27.1 0,24.3 2.6000001,48.4 9.4000001,71.8 4.2,14.5 9.9,28.7 13.5,43.3 2.7,11 1.6,24.5 1.1,35.9 -0.8,15.7 -5.4,32.1 -4.7,47.8 l -7.3,4 c 9.6,1.6 20.6,2.4 29.4,0 5.9,-21.9 4.6,-45.9 4.6,-68.7 z"
       id="path482-4" /><path
       fill="#89ba4b"
       d="m 128.44883,319.66829 c -0.7,-5.1 -1.8,-9.9 -3.2,-14.6 -1.3,-4.2 -4.2,-10.1 -4.1,-14.6 -5.2,4.8 -1,30.2 -1.9,38 -1.8,15.9 -9.6,27.9 -16,41.8 -5.300004,11.6 -8.700004,23.4 -13.400004,35 -2.6,6.5 -4.5,12.9 -6.2,19.6 -1,3.9 -1.2,13.2 -2.5,14.9 h 8.7 c 7,0.8 15.800004,3.8 22.700004,2.6 -4.1,-11.9 1.2,-29 4.7,-40.2 4.2,-13.5 11.6,-28.5 14,-42.5 2.3,-13 -0.9,-27.7 -2.8,-40 z"
       id="path483-7" /><rect
       style="opacity:1;fill:none;stroke:#a45618;stroke-width:0;stroke-dasharray:none"
       id="rect1"
       width="174.6066"
       height="270.74393"
       x="-20.414639"
       y="178.6357" /></g></g></svg>
