<?xml version="1.0" encoding="UTF-8" standalone="no"?>
<!-- Created with Inkscape (http://www.inkscape.org/) -->

<svg
   version="1.1"
   id="svg1"
   width="3311.509"
   height="748.60333"
   viewBox="0 0 662.30181 149.72067"
   sodipodi:docname="Maelstrom.svg"
   inkscape:version="1.3 (0e150ed6c4, 2023-07-21)"
   xmlns:inkscape="http://www.inkscape.org/namespaces/inkscape"
   xmlns:sodipodi="http://sodipodi.sourceforge.net/DTD/sodipodi-0.dtd"
   xmlns="http://www.w3.org/2000/svg"
   xmlns:svg="http://www.w3.org/2000/svg">
  <defs
     id="defs1" />
  <sodipodi:namedview
     id="namedview1"
     pagecolor="#ffffff"
     bordercolor="#000000"
     borderopacity="0.25"
     inkscape:showpageshadow="2"
     inkscape:pageopacity="0.0"
     inkscape:pagecheckerboard="0"
     inkscape:deskcolor="#d1d1d1"
     inkscape:zoom="0.2796875"
     inkscape:cx="1623.2402"
     inkscape:cy="67.932961"
     inkscape:window-width="1920"
     inkscape:window-height="1024"
     inkscape:window-x="0"
     inkscape:window-y="32"
     inkscape:window-maximized="1"
     inkscape:current-layer="g114" />
  <g
     inkscape:groupmode="layer"
     id="layer1"
     inkscape:label="Maelstrom"
     style="opacity:1"
     transform="translate(-70.167594,-140.33519)">
    <g
       inkscape:groupmode="layer"
       id="g114"
       inkscape:label="Frame4"
       style="display:inline"
       transform="translate(500.72628)">
      <g
         id="g115"
         style="display:inline"
         transform="translate(1.2)">
        <path
           style="display:inline;opacity:1;fill:#003243;fill-opacity:1;stroke:#c5c5c5;stroke-width:0;stroke-linejoin:bevel;stroke-dasharray:none"
           d="m 92.66488,182.74167 6.87355,-0.15801 3.7133,-0.079 -6.39952,0.63205 13.11506,0.79006 19.83059,0.15801 10.27083,0.71106 -11.53493,0.47404 -11.1399,-0.31603 4.02933,3.79231 45.58666,3.08124 8.45368,-0.86907 6.39951,-0.94807 3.87131,-2.68622 -4.02932,-1.50112 -2.29119,1.89615 -4.02932,-0.15801 3.31827,-0.86907 0.23702,-2.21218 -5.84647,1.81715 -3.7133,-0.079 5.45144,-2.5282 -8.21666,-0.47404 -0.31603,1.89615 -7.4266,0.079 -5.84646,-0.079 12.483,-1.18509 3.47628,-1.89615 -15.56425,0.86907 h -6.32051 l -11.85095,-0.47404 -12.404,-0.94808 -11.77194,-0.15801 -9.00673,-0.55304 -11.06089,1.2641 z"
           id="path117"
           sodipodi:nodetypes="cccccccccccccccccccccccccccccccccccc" />
        <path
           style="display:inline;opacity:1;fill:#1cb1fa;fill-opacity:1;stroke:#c5c5c5;stroke-width:0;stroke-linejoin:bevel;stroke-dasharray:none"
           d="m 79.2338,171.91781 3.00224,1.89615 -0.79006,2.68621 0.94807,2.37019 16.43332,-1.10609 9.32275,-2.05416 11.53493,-3.47628 4.42435,-0.31602 21.64774,1.42211 5.68846,0.47404 -9.00673,1.10609 -18.48748,-0.15802 -7.26858,0.94808 -7.26859,1.89615 -6.63653,1.10609 -4.58237,0.15801 1.89615,0.79007 12.16698,0.47404 6.32051,-0.31603 8.05864,-2.5282 14.22115,1.10609 9.63877,0.31602 12.483,-0.47404 6.00449,-0.15801 v 3.16025 l -13.86769,-1.01709 -9.44134,-0.27933 -10.72626,0.1676 -11.28491,0.5028 10.78212,0.33519 h 11.45251 l 13.18436,0.83799 -6.14525,0.3352 8.49162,0.44692 10.94972,2.12291 5.47486,0.44692 5.92179,2.68157 1.78771,1.56425 0.44692,0.89385 -3.01676,1.00559 4.69274,-0.55866 3.35196,-1.00559 0.44692,-1.67598 5.13967,0.3352 2.7933,-3.35196 -21.78771,-8.71508 2.1229,-2.34637 8.26816,1.89944 6.92737,2.23464 -6.81564,-2.90503 -12.06704,-2.90503 -18.77095,-3.35195 -15.75419,-2.01118 -9.27374,-0.67039 -18.54749,-0.11173 -13.40782,-0.67039 -3.57542,0.22346 8.04469,-1.67597 9.38548,-1.45252 15.41899,-0.44692 11.73185,0.78212 10.16759,1.67598 13.07263,2.56983 10.39106,3.12849 2.23464,1.11732 -2.19487,-1.80953 -7.3582,-2.43628 -12.01118,-2.9609 -13.68715,-2.4581 -11.62011,-0.83798 -15.0838,0.22346 -14.18994,2.01117 -5.02794,1.45252 -5.97765,0.83798 -8.71508,3.46369 z"
           id="path114" />
        <path
           style="display:inline;opacity:1;fill:#bbeef6;fill-opacity:1;stroke:#c5c5c5;stroke-width:0;stroke-linejoin:bevel;stroke-dasharray:none"
           d="m 73.15031,169.70563 5.76746,-2.92324 6.71554,-1.89615 6.47852,-1.02708 1.42212,0.63205 4.9774,-0.71106 8.69069,-1.65913 8.92772,-0.71106 13.19406,0.31603 13.27307,0.47403 10.11281,1.81715 8.21666,2.05417 -14.22114,-2.60721 -4.81939,-0.86907 -25.75607,-0.71106 -10.42884,1.18509 -13.03604,2.68622 -4.02933,-0.15801 -2.44919,1.50112 -3.79231,1.02708 4.02933,-0.39503 -2.76523,0.86907 -3.31826,2.05416 -4.30078,1.02228 -0.89386,-0.23743 1.71788,-1.13129 1.77374,-0.83799 0.86592,-0.57262 -4.5391,1.73184 z"
           id="path115" />
        <path
           style="display:inline;opacity:1;fill:#bbeef6;fill-opacity:1;stroke:#c5c5c5;stroke-width:0;stroke-linejoin:bevel;stroke-dasharray:none"
           d="m 79.07579,174.12998 7.11057,-2.76522 12.483,-4.18734 6.71554,-1.42211 9.48076,-0.39503 10.98188,-0.31603 12.56201,0.55305 5.60945,0.71105 20.62066,3.55529 13.51008,2.5282 9.63878,2.60721 4.74038,1.58013 2.76522,1.2641 -8.21666,-2.60721 -6.1625,-1.02708 -1.97515,0.55304 2.13317,1.1851 7.74262,2.84423 9.63877,3.00224 5.21442,2.37019 1.2641,0.47404 0.47404,1.73814 -2.37019,-0.079 -0.079,1.10609 -2.29118,-0.15801 -0.079,2.21217 -1.02708,-3.08124 -1.10609,1.50112 -3.87131,-2.60721 -8.45368,-1.97516 6.55753,2.60721 4.81939,3.23926 -3.39728,0.23702 -3.47628,-1.02709 -5.84647,-2.5282 -7.5056,-2.05416 0.86907,-2.05417 -7.90063,-3.16025 9.40175,-1.2641 -18.09245,-3.7133 10.74486,-0.15801 -5.53044,-1.89616 -8.21666,-2.05416 -20.62066,-2.21218 -6.95256,-0.079 -12.32499,0.71106 -9.71778,0.86907 -11.85095,3.23926 -12.95704,3.95032 -1.97516,0.79006 5.45144,-0.55304 8.45368,-1.65914 4.42436,-0.94807 -5.21442,2.5282 -2.68622,2.37019 -6.32051,1.10609 -4.81938,-0.39503 0.71105,-1.89615 -1.65913,-0.23702 0.63205,-0.86907 -2.4492,-0.47404 z"
           id="path116" />
        <path
           style="display:inline;opacity:1;fill:#bbeef6;fill-opacity:1;stroke:#c5c5c5;stroke-width:0;stroke-linejoin:bevel;stroke-dasharray:none"
           d="m 121.18617,175.23607 11.2189,0.15801 15.48524,0.86907 4.81939,0.23702 -7.66362,0.39504 -8.45368,0.15801 -13.11505,-0.39503 -4.74038,-0.23702 -10.11281,1.73814 10.42884,-2.52821 z"
           id="path118" />
      </g>
      <g
         id="g119"
         style="display:inline"
         transform="translate(1.2)">
        <path
           style="display:inline;opacity:1;fill:#003243;fill-opacity:1;stroke:#c5c5c5;stroke-width:0;stroke-linejoin:bevel;stroke-dasharray:none"
           d="m 180.31285,209.27374 -9.16201,-4.13407 -8.26816,1.56424 -6.36871,0.44693 -8.36073,0.0914 1.23583,-0.57783 3.32601,-0.0722 2.34637,-1.89944 -11.39664,-0.11173 -5.5866,-0.89386 -28.15642,-1.00559 5.92179,5.13967 6.48044,1.22905 10.1676,0.89385 -7.03911,-2.34636 -3.01676,-1.11732 h 7.59777 l 6.59218,0.11173 5.02793,1.11732 -3.46369,0.44692 h 7.7095 l -1.11732,1.00559 6.25699,0.67039 7.15083,0.55866 -11.06145,0.3352 -9.27374,0.78212 31.06145,2.68156 5.92179,-1.45251 1.89944,-0.89385 1.78771,-1.34079 z"
           id="path123"
           sodipodi:nodetypes="ccccccccccccccccccccccccccccccc" />
        <path
           style="display:inline;opacity:1;fill:#1cb1fa;fill-opacity:1;stroke:#c5c5c5;stroke-width:0;stroke-linejoin:bevel;stroke-dasharray:none"
           d="m 91.16376,193.72356 8.92771,-1.73814 1.42212,-2.37019 9.87579,-0.79007 6.47852,-0.23702 0.31603,-1.81714 17.77642,0.079 11.92996,0.71106 9.40176,1.97516 9.9548,2.60721 12.24598,4.02932 9.48076,4.8984 5.45144,5.21442 h -2.37019 l -7.18958,-3.31827 -7.26858,-3.00224 -11.53493,-2.68622 -8.53268,-1.81714 -7.90064,-0.86907 -3.00224,0.63205 6.87355,2.05416 5.45144,0.63205 7.90063,1.97516 7.66362,2.21218 7.82163,2.76522 5.68845,2.60721 2.84423,1.58013 -4.58236,0.15801 1.10608,0.94808 -4.66137,0.079 -0.39503,1.1851 -4.9774,-2.05417 -9.24374,-3.55528 -8.21666,-2.4492 -7.97964,-1.81715 -8.29567,-0.63205 -17.22338,-0.71105 -4.58237,0.23702 0.86907,1.97515 -3.79231,1.02709 0.94808,1.73814 2.60721,0.71105 -11.1399,-0.23702 -1.50112,-3.16025 H 99.53843 l 1.89615,-0.71106 -3.16025,-0.55304 1.42211,-1.10609 -2.21218,-0.39503 1.73814,-0.71106 -3.7923,-0.79006 1.50112,-0.94808 -3.63429,-0.86907 0.71105,-0.23702 z"
           id="path119" />
        <path
           style="display:inline;opacity:1;fill:#bbeef6;fill-opacity:1;stroke:#c5c5c5;stroke-width:0;stroke-linejoin:bevel;stroke-dasharray:none"
           d="m 90.36872,193.85475 5.02793,-1.34078 4.69274,-0.44693 1.11731,-2.12291 9.27375,-0.33519 -4.24581,-0.78212 11.39665,-0.3352 v -1.67598 l 13.74301,0.11173 h 12.06704 l 9.72067,1.11732 12.06704,3.12849 12.6257,4.46928 6.14525,2.79329 7.3743,4.02235 5.02794,3.01676 2.1229,1.56425 -2.34637,-1.11732 -1.45251,0.22346 -8.15643,-4.69274 -10.39106,-4.13407 -11.39665,-3.57542 -9.27374,-1.67598 -6.48045,-2.68156 -6.48044,-0.89386 -5.47486,-0.44693 -7.03911,1.00559 -9.8324,-0.44693 8.26815,1.22905 h -7.82122 l 0.55865,1.45252 -5.47486,0.11173 7.48604,0.67039 -4.80447,1.67598 5.36313,0.22346 4.80447,-0.11173 -4.80447,0.67039 v 0.55866 l 6.25698,0.89385 -0.89385,1.56425 10.05586,1.45251 -11.73184,0.3352 -5.81006,-0.3352 -8.71508,-1.00558 -7.26257,0.67039 7.15084,-0.11173 10.16759,1.11731 -0.33519,2.12291 -3.79888,-0.3352 -0.78213,1.11732 -4.9162,0.22347 1.11732,1.34078 1.45251,1.00559 h 3.24023 l 0.33519,-1.00559 0.67039,1.45251 2.12291,0.22347 -11.50838,0.44692 -4.80447,1.00559 -4.13408,1.00559 -2.23463,1.22905 -0.55866,0.78212 0.44692,-1.22905 1.00559,-0.89386 2.56983,-1.22905 5.81006,-0.89385 3.35195,-0.67039 -2.34637,-1.45252 -6.25698,-0.33519 3.46369,-1.11732 -3.91062,0.22346 3.24023,-2.34636 -2.34637,-0.6704 -4.46927,-1.45251 2.23463,-0.78212 -4.9162,-0.67039 1.22905,-0.3352 -5.47486,-1.22905 4.13408,-0.67039 z"
           id="path120" />
        <path
           style="display:inline;opacity:1;fill:#bbeef6;fill-opacity:1;stroke:#c5c5c5;stroke-width:0;stroke-linejoin:bevel;stroke-dasharray:none"
           d="m 149.47486,196.64804 10.72626,1.67598 9.94413,2.34637 8.37989,3.01676 7.15084,2.7933 4.581,2.23463 -0.78212,0.22347 -5.36313,-2.68157 -7.0391,-2.68156 -9.38548,-2.90503 -9.49721,-2.01117 -7.93296,-1.45252 -2.90502,-0.44692 z"
           id="path121" />
        <path
           style="display:inline;opacity:1;fill:#bbeef6;fill-opacity:1;stroke:#c5c5c5;stroke-width:0;stroke-linejoin:bevel;stroke-dasharray:none"
           d="m 154.61453,201.67598 5.92178,1.34078 6.81565,2.12291 5.69832,1.89944 -6.25698,-2.68157 -6.14525,-2.1229 -5.47486,-1.11732 -3.1285,0.11173 z"
           id="path122" />
      </g>
      <g
         id="g124"
         style="display:inline;opacity:1"
         transform="translate(1.2)">
        <g
           id="g134">
          <path
             style="display:inline;opacity:1;fill:#003243;fill-opacity:1;stroke:#c5c5c5;stroke-width:0;stroke-linejoin:bevel;stroke-dasharray:none"
             d="m 121.85772,253.05732 6.47852,0.35553 -4.30584,0.35553 5.84647,0.63205 -0.43454,1.06658 5.92548,0.51355 7.38709,-0.59255 -2.60721,-0.75056 6.39951,-0.63205 -0.39503,-0.63205 4.30585,0.75056 -2.17268,-1.10609 0.67156,-0.35553 -3.83181,-0.39503 0.67155,-1.02708 -6.51802,-0.55305 -1.46162,-0.82957 -1.58012,0.79007 -5.37244,-0.39503 -5.33292,0.43453 -2.05417,0.39503 1.77764,0.43454 -3.43677,0.35553 1.65913,0.31602 -1.85665,0.63205 z"
             id="path132" />
          <path
             style="display:inline;opacity:1;fill:#003243;fill-opacity:1;stroke:#c5c5c5;stroke-width:0;stroke-linejoin:bevel;stroke-dasharray:none"
             d="m 157.96648,259.16201 0.55866,0.94972 0.1676,1.45252 -0.1676,1.84357 -2.23464,1.17319 2.06704,1.06145 -0.33519,0.55866 1.17318,1.34078 0.55866,0.39106 0.44693,-0.78212 0.11173,2.51396 -0.0559,1.00559 0.94972,-1.28491 0.6704,-1.45252 -0.0559,-1.78771 -0.78212,-1.89944 -0.22347,-1.28492 -0.33519,0.94972 -0.44693,-1.39664 -0.27933,-2.23464 -1.22905,-1.06145 z"
             id="path133" />
          <path
             style="display:inline;opacity:1;fill:#003243;fill-opacity:1;stroke:#c5c5c5;stroke-width:0;stroke-linejoin:bevel;stroke-dasharray:none"
             d="m 108.97207,253.79888 9.8324,3.91062 8.37989,3.24022 9.44134,4.02235 9.55307,3.68715 4.24581,1.17318 -1.34078,0.78213 1.50838,0.61452 -2.90503,0.3352 -0.39106,2.4581 -0.50279,-3.29609 -2.9609,-1.28492 -5.92178,-2.73743 -6.75978,-3.07262 -6.53631,-2.9609 -8.10056,-3.40782 z"
             id="path134" />
          <path
             style="display:inline;opacity:1;fill:#003243;fill-opacity:1;stroke:#c5c5c5;stroke-width:0;stroke-linejoin:bevel;stroke-dasharray:none"
             d="m 121.2067,220.67039 9.38548,0.11173 h 8.49162 l 2.4581,1.00559 -4.24581,0.55866 4.35754,0.55866 10.72626,0.67039 -9.49721,0.33519 h -5.36313 l -4.35754,0.11174 -1.50838,0.78212 3.29609,0.94972 9.88827,-0.1676 h 8.15642 l 5.0838,1.17319 -4.35754,0.67039 5.19553,0.72625 9.38548,-1.62011 -7.76537,2.29051 9.16202,0.11173 -10.55866,1.67598 -7.37431,-1.45252 -3.51955,-1.00559 -5.19553,-0.67039 -3.74302,-0.72625 -7.93296,-0.72626 -0.83799,-0.44693 2.6257,-0.1676 -4.24581,-0.72625 2.7933,-0.94972 -5.92179,-0.67039 -3.07263,-0.72626 -1.17318,-0.89386 z"
             id="path130" />
          <path
             style="display:inline;opacity:1;fill:#003243;fill-opacity:1;stroke:#c5c5c5;stroke-width:0;stroke-linejoin:bevel;stroke-dasharray:none"
             d="m 109.69833,222.12291 4.69273,2.56983 6.14525,1.84357 6.92738,1.67598 3.40782,1.45251 2.6257,2.17878 -10.27933,-0.5028 0.94972,-1.28491 -3.40782,-1.84358 -4.74861,-2.2905 -3.96648,-1.89944 z"
             id="path131" />
        </g>
        <g
           id="g136">
          <path
             style="display:inline;opacity:1;fill:#1cb1fa;fill-opacity:1;stroke:#c5c5c5;stroke-width:0;stroke-linejoin:bevel;stroke-dasharray:none"
             d="m 88.80447,218.10056 3.46369,-0.89386 -2.4581,-0.11173 4.35754,-0.89385 4.80447,-1.67598 5.92179,-1.22905 19.88826,-2.23464 21.45252,1.34078 h 8.93855 l 9.94413,1.22906 8.82681,1.89944 8.49162,2.23463 3.57542,2.7933 -5.69832,0.44693 -8.82682,-2.68157 -6.48044,-1.67598 12.51396,4.02235 2.34637,1.56425 -3.68715,0.11173 1.56425,1.67598 -2.12291,-0.55866 1.22905,1.89944 3.12849,0.67039 -1.67597,0.89385 3.57542,0.44693 -0.89386,0.67039 3.12849,0.3352 -1.45251,0.44693 1.89944,1.11731 -2.56983,0.55866 0.44692,1.11732 -10.94972,-0.11173 -5.13966,0.27933 -2.23464,-0.0559 4.35754,-0.72625 1.39665,-0.5028 -0.50279,-0.89385 -3.12849,-0.44693 2.06704,-0.78212 -5.13967,-0.55866 2.34637,-0.67039 -6.64804,-1.00559 -1.28492,-1.39665 -11.17318,-0.55866 3.07262,-0.22346 -3.79888,-1.39665 7.59776,-2.01117 -14.4134,-0.83799 -9.05028,-1.11732 -13.29609,-0.33519 -6.59218,-0.0559 6.03352,0.83799 -9.16201,0.89385 -3.46369,-0.0559 3.96648,0.94972 -10.3352,-0.27933 1.50838,-0.44693 -6.81564,-0.50279 -2.23463,-0.3352 1.45251,-0.55866 z"
             id="path124" />
          <path
             style="display:inline;opacity:1;fill:#1cb1fa;fill-opacity:1;stroke:#c5c5c5;stroke-width:0;stroke-linejoin:bevel;stroke-dasharray:none"
             d="m 164.08463,232.50211 -8.60971,-0.0259 -8.13765,-0.079 H 127.8227 l -14.61617,-0.19751 -3.7133,-1.42212 -0.27652,-0.86907 1.61963,-0.59255 0.47403,-1.54062 1.42212,-0.75056 -6.63653,0.98758 -6.67604,1.10609 -3.08125,1.06658 4.46386,0.31603 -1.46162,0.82957 5.60945,1.38261 2.25168,0.90857 0.11851,0.59255 -3.19975,1.61963 -2.33069,1.2246 3.39727,0.51354 -7.78212,0.15801 2.44919,0.82957 -4.02932,0.43453 8.05865,1.2246 2.5282,2.09367 12.75953,-0.11851 8.37467,0.55304 6.91305,1.89616 -6.83405,-2.60721 -9.04622,-0.82957 -4.66138,-1.2246 9.63878,-0.19751 6.75504,0.19751 7.03157,0.39503 7.5056,2.13317 5.85534,2.68556 6.36872,0.61453 -4.80447,1.11731 4.97206,-0.55865 6.36872,0.16759 3.07263,0.22347 4.02234,0.89385 -3.12849,-1.95531 -4.7486,-1.89944 -3.29609,-0.89385 -2.90503,-2.06704 1.56425,-0.72626 2.01117,0.1676 4.07821,1.00559 3.35196,1.56424 -3.46369,-2.06704 -5.75419,-1.45251 -3.35196,-0.50279 -1.50838,-0.27933 1.78771,-0.55866 -3.57542,-0.83799 1.95531,-0.89386 -3.24022,-0.22346 3.01676,-0.72626 -1.39665,-0.11173 1.62011,-0.55867 4.13408,-0.61452 -2.17877,-0.27933 z"
             id="path125"
             sodipodi:nodetypes="ccccccccccccccccccccccccccccccccccccccccccccccccccccccccccccccccc" />
        </g>
        <g
           id="g135">
          <path
             style="display:inline;opacity:1;fill:#bbeef6;fill-opacity:1;stroke:#c5c5c5;stroke-width:0;stroke-linejoin:bevel;stroke-dasharray:none"
             d="m 104.83185,211.42098 9.32275,-0.55305 -2.68621,-0.86907 6.63653,-0.23702 9.24374,-0.23701 7.5056,0.15801 10.03381,0.15801 -7.11057,1.02708 h 7.90063 l -0.55304,1.10609 7.58461,0.31603 6.2415,0.63205 11.37691,3.08125 8.92772,1.97515 5.45144,2.21218 -7.11057,-1.97516 -11.2189,-2.84423 -9.24375,-1.89615 -9.00672,-0.15801 1.89615,0.39503 -5.84647,0.31603 -11.61393,-0.55305 8.45368,1.42212 -8.05865,-0.71106 4.81939,1.65913 -10.58685,-0.15801 h -9.00672 l 1.97515,1.42211 -10.0338,-0.079 -3.23926,0.31602 0.63205,0.71106 -5.13541,0.71106 -1.65914,0.23702 1.02709,-0.55305 2.5282,-0.94807 -0.86907,-0.55305 1.2641,-0.79006 -2.29118,-0.55305 1.73814,-1.2641 z"
             id="path126" />
          <path
             style="display:inline;opacity:1;fill:#bbeef6;fill-opacity:1;stroke:#c5c5c5;stroke-width:0;stroke-linejoin:bevel;stroke-dasharray:none"
             d="m 136.98744,219.24261 7.18957,0.15801 7.97964,0.86907 5.53045,2.05416 4.66137,2.4492 2.05417,1.18509 -4.81939,-1.81714 -5.21442,-0.71106 -3.39727,-0.79006 -4.89839,-1.34311 -1.10609,-0.71106 -3.79231,-0.63205 z"
             id="path127" />
          <path
             style="display:inline;opacity:1;fill:#bbeef6;fill-opacity:1;stroke:#c5c5c5;stroke-width:0;stroke-linejoin:bevel;stroke-dasharray:none"
             d="m 107.99211,228.17032 -7.66362,0.31603 h -1.65913 l 2.92323,0.71106 -6.2415,0.55304 4.58237,0.47404 -1.73814,0.86907 6.39952,0.63205 3.00224,0.31602 2.21217,0.079 -2.37019,1.10609 2.05417,0.39503 11.2189,0.39503 -13.11505,0.71106 -5.29343,0.47404 -1.42211,-0.079 4.58236,0.71106 -3.71329,0.15801 -1.34311,0.94808 5.13541,-0.55305 7.26858,-0.55304 h 9.00673 l 6.39951,0.47404 9.40176,0.47403 6.79454,0.39504 6.79455,1.10608 -6.71554,-1.97515 -5.92548,0.31602 -11.2189,-0.55304 1.42212,-0.55305 -6.1625,-1.02708 4.50336,-1.10609 0.71106,-0.71106 -11.45592,-0.23701 -5.05641,-0.39504 2.76523,-0.55304 -7.03157,-0.86907 -1.89615,-0.79006 3.00224,-0.47404 -1.58013,-0.23702 z"
             id="path128" />
          <path
             style="display:inline;opacity:1;fill:#bbeef6;fill-opacity:1;stroke:#c5c5c5;stroke-width:0;stroke-linejoin:bevel;stroke-dasharray:none"
             d="m 140.62173,245.94675 6.87355,0.79006 7.97964,1.10609 5.45144,0.86907 -1.65913,0.55305 7.5056,0.47403 -1.2641,0.55305 h -5.84647 l -3.08125,1.2641 2.67335,0.73899 3.96798,0.35436 -3.98634,0.58892 -2.89201,-0.33916 -2.60721,-0.31603 1.81715,-0.39503 -4.18734,-1.02708 2.05417,-0.63205 -4.9774,-0.63205 2.37019,-0.63205 -2.60721,-1.26411 z"
             id="path129"
             sodipodi:nodetypes="ccccccccccccccccccccc" />
        </g>
      </g>
      <rect
         style="display:inline;opacity:1;fill:none;stroke:#c5c5c5;stroke-width:0;stroke-linejoin:bevel;stroke-dasharray:none"
         id="rect113"
         width="163.57542"
         height="149.72067"
         x="66.167595"
         y="140.33519" />
    </g>
    <g
       inkscape:groupmode="layer"
       id="g71"
       inkscape:label="Frame3"
       style="display:inline"
       transform="translate(335.15085)">
      <g
         id="g72"
         style="display:inline">
        <path
           style="display:inline;opacity:1;fill:#003243;fill-opacity:1;stroke:#c5c5c5;stroke-width:0;stroke-linejoin:bevel;stroke-dasharray:none"
           d="m 111.36325,178.55434 6.87355,1.73814 11.85095,1.10609 9.63877,-0.31603 23.46489,-0.079 -11.69294,2.68622 -15.88028,-0.71106 5.68846,2.4492 -13.25719,-0.67833 8.0021,2.62309 -13.82145,-1.37254 4.38136,2.193 -15.34776,-0.22114 -17.7559,1.01121 -0.10844,-2.7781 -2.26175,-0.38216 7.90064,-6.16249 z"
           id="path74"
           sodipodi:nodetypes="cccccccccccccccccc" />
        <path
           style="display:inline;opacity:1;fill:#1cb1fa;fill-opacity:1;stroke:#c5c5c5;stroke-width:0;stroke-linejoin:bevel;stroke-dasharray:none"
           d="m 424.58009,186.45497 2.76523,0.31603 1.97516,0.079 2.84422,-2.05416 7.03157,-2.84423 13.7471,-2.84423 1.97516,-0.63205 3.79231,-1.58012 5.60945,-0.55305 4.66137,1.2641 5.76746,0.86907 2.92324,0.79007 6.00448,1.81714 7.26858,1.34311 7.18958,-1.73814 5.60945,-0.15801 5.68846,0.15801 3.23926,0.55304 3.95032,0.63205 5.13541,0.15802 6.47852,-2.29119 3.87131,-2.05416 5.68846,-2.21218 2.5282,-1.2641 2.4492,-0.31603 -1.89616,-0.55304 -0.63205,-1.2641 -3.31826,-1.1851 -8.53269,-2.29118 -6.71554,-1.1851 -5.13541,-0.71105 -3.16025,-0.47404 -0.23702,-3.23926 -25.44005,-1.89615 -27.81023,0.79006 -20.77867,3.55529 -18.40848,11.37691 z"
           id="path71"
           transform="translate(-340)" />
        <path
           style="display:inline;opacity:1;fill:#1cb1fa;fill-opacity:1;stroke:#c5c5c5;stroke-width:0;stroke-linejoin:bevel;stroke-dasharray:none"
           d="m 436.51005,185.34888 -3.00224,1.89616 -1.34311,1.97515 1.50112,1.10609 3.55529,1.50112 2.4492,-1.2641 4.34535,-0.23702 -5.76747,-0.55304 -3.47628,-0.39503 -0.63205,-0.94808 2.05417,-1.73814 1.65913,-0.71106 z"
           id="path73"
           transform="translate(-340)" />
        <path
           style="display:inline;opacity:1;fill:#bbeef6;fill-opacity:1;stroke:#c5c5c5;stroke-width:0;stroke-linejoin:bevel;stroke-dasharray:none"
           d="m 81.10382,182.74167 -2.05417,-1.18509 -0.23702,-0.86907 -1.42211,-0.55304 v -0.86907 l -1.50112,-0.15802 1.02708,-1.18509 -2.05417,-0.15802 0.15802,-1.42211 3.08124,-2.37019 4.42436,-2.60721 5.29342,-2.84423 -5.60945,2.37019 1.02709,-2.76522 9.87579,-2.76522 10.58685,-2.13317 9.87579,-1.2641 11.77195,-0.94808 7.18958,-0.31603 13.98412,-0.15801 11.13989,0.39503 12.404,1.02709 0.94808,0.079 -9.8758,0.47404 12.87804,0.47404 6.00448,0.31602 -0.63205,1.58013 5.0564,-0.71106 5.76747,0.63205 5.92547,1.58013 3.23926,1.1851 3.7133,1.81714 -3.87131,-0.63205 -2.05416,-0.71106 -6.39952,-1.81714 -5.13541,-0.86907 -4.81939,-0.79006 -1.42211,0.23701 0.55304,-1.42211 -12.483,0.71106 h -7.90063 -3.55529 l 4.9774,-1.34311 -12.404,0.079 -12.24598,-0.079 -9.24374,0.39503 2.68621,0.39503 5.45144,0.86907 4.81939,0.79007 c 0,0 28.42655,1.53962 38.91062,2.88373 16.94686,2.17268 23.89942,5.88597 23.89942,5.88597 0,0 -7.79529,-2.26485 -19.27755,-4.26634 -11.39185,-1.98574 -49.61598,-3.95032 -49.61598,-3.95032 l -8.84871,1.02708 -1.58013,0.94808 12.72002,0.15801 -13.58909,0.71106 -9.71778,1.65913 16.27531,-0.79006 13.98412,-0.079 14.30015,0.47404 16.90736,1.97516 12.483,1.58013 9.79679,2.21217 5.76746,2.52821 -3.47628,-0.86907 -9.48076,-2.29119 -19.9096,-2.21217 -17.53941,-1.26411 -21.72674,0.47404 -12.32499,0.55305 -10.66586,0.31602 c 0,0 31.47756,0.0109 44.3652,0.52593 12.88763,0.51503 30.16731,3.06701 30.16731,3.06701 0,0 -22.98458,-2.3078 -35.79999,-2.50041 -12.92926,-0.19432 -38.96954,0.17161 -38.96954,0.17161 l 9.00673,1.1851 -9.55977,1.34311 -8.13766,1.81714 -8.61169,3.7133 -5.13541,2.84423 -3.55528,-0.15801 10.74486,-6.24151 -0.31603,-0.23701 -10.19182,5.0564 z"
           id="path72"
           sodipodi:nodetypes="cccccccccccccccccccccccccccccccccccccccccccccccccscsccccccccccccccccccccscsccccccccccc" />
      </g>
      <g
         id="g75"
         style="display:inline">
        <path
           style="display:inline;opacity:1;fill:#003243;fill-opacity:1;stroke:#c5c5c5;stroke-width:0;stroke-linejoin:bevel;stroke-dasharray:none"
           d="m 118.88268,200.89385 17.43017,0.89386 17.98883,0.3352 10.72625,0.55865 -22.01117,0.44693 -12.2905,1.11732 -8.0447,-1.11732 z"
           id="path79" />
        <path
           style="display:inline;opacity:1;fill:#003243;fill-opacity:1;stroke:#c5c5c5;stroke-width:0;stroke-linejoin:bevel;stroke-dasharray:none"
           d="m 113.63129,207.3743 14.63687,0.11173 14.30283,-0.15568 17.42901,-1.1851 6.92737,-0.67039 -38.32402,0.78212 z"
           id="path80"
           sodipodi:nodetypes="ccccccc" />
        <path
           style="display:inline;opacity:1;fill:#1cb1fa;fill-opacity:1;stroke:#c5c5c5;stroke-width:0;stroke-linejoin:bevel;stroke-dasharray:none"
           d="m 90.39106,196.75978 3.57542,-1.67598 7.3743,-1.56425 5.2514,-1.89944 6.03352,-2.1229 16.87151,-1.45252 40.33519,0.89386 17.09497,4.69274 9.27375,3.91061 5.13966,2.90503 -5.02793,2.56983 -2.56983,1.45251 -4.80447,1.78771 -4.52795,0.0327 -2.05745,0.32163 -2.46488,1.04229 2.51397,-2.1229 2.40223,-1.34079 -4.24581,-0.67039 -5.13966,-2.23463 -4.24795,-0.76682 -4.8984,-3.16025 -18.48748,-4.10833 -16.94718,1.38735 h -9.6648 l -6.25699,0.1676 9.60894,0.61452 -11.34078,0.55866 h -2.17877 l 6.08938,1.89945 -5.13966,-0.78213 -5.2514,-0.44693 -1.45251,0.3352 1.00558,1.67598 -2.56983,-0.11173 1.11732,2.1229 -4.69274,-0.67039 -3.68715,-1.22905 -2.4581,-0.44693 -1.45251,-1.00558 z"
           id="path75"
           sodipodi:nodetypes="ccccccccccccccccccccccccccccccccccccccccc" />
        <path
           style="display:inline;opacity:1;fill:#1cb1fa;fill-opacity:1;stroke:#c5c5c5;stroke-width:0;stroke-linejoin:bevel;stroke-dasharray:none"
           d="m 441.56425,202.7933 2.4581,1.67597 3.46368,1.56425 8.26816,1.78771 13.85475,-0.55866 9.38547,-0.78212 -23.79888,1.22905 -6.81564,-2.23464 -0.3352,-0.67039 3.46369,-1.45251 4.58101,-1.22905 4.69273,-0.11174 8.93855,-0.78212 12.2905,0.89386 h 7.48604 l 0.78212,-1.11732 8.37989,0.55866 1.84754,0.84195 -4.14763,1.11732 5.39818,-0.18628 5.87764,0.49436 -3.62171,-1.83398 -3.45458,-0.76857 -1.22905,-1.00559 -5.81006,-0.33519 -2.23463,-1.11732 -6.36872,0.11173 -2.51852,-0.67542 1.01585,0.47288 -0.5085,0.87293 -0.78212,0.89386 L 468.26816,200 l -7.59777,-0.11173 -0.78212,-1.11732 8.71508,-0.11173 5.36313,0.11173 8.71508,0.22346 -1.7877,-1.11731 h -14.07822 l -9.94413,-0.11174 -1.56425,0.89386 -8.37989,0.44693 -7.59776,3.01676 z"
           id="path77"
           transform="translate(-340)"
           sodipodi:nodetypes="cccccccccccccccccccccccccccccccccccccccccccc" />
        <path
           style="display:inline;opacity:1;fill:#bbeef6;fill-opacity:1;stroke:#c5c5c5;stroke-width:0;stroke-linejoin:bevel;stroke-dasharray:none"
           d="m 168.26816,196.08939 4.13408,1.78771 c 0,0 8.01648,1.35543 11.94572,2.23067 3.92924,0.87523 12.49876,3.09973 12.49876,3.09973 0,0 -9.61394,-2.13972 -13.20817,-2.67431 -3.69167,-0.54907 -10.67998,-0.93617 -10.67998,-0.93617 l -3.79656,-0.9378 -3.79888,-0.55866 -6.03352,-0.22346 -4.58101,-1.11732 -4.69273,-1.11732 h -6.59218 l -4.35754,-0.55866 -7.03911,-0.55866 -6.81564,-0.67039 -8.60335,-0.67039 -4.13408,0.11173 2.90502,-1.00559 1.89945,-0.33519 8.60335,0.11173 17.65363,0.11173 9.60894,-0.55866 -1.11732,-0.44693 -6.14525,0.11174 h -23.91062 l -1.22905,-0.44693 0.78213,-1.34078 0.89385,-0.89386 3.68715,-1.56424 7.03911,-0.89386 1.89944,-0.44693 4.02235,-0.78212 -1.45252,-1.45251 4.46928,-1.00559 2.79329,-2.56983 3.57542,0.67039 2.4581,0.78212 3.68715,0.55866 -0.89385,0.89386 -1.56425,0.33519 2.12291,0.89386 6.36871,0.44692 -3.57542,1.22905 h -4.13408 l 6.25699,0.55866 4.02234,1.00559 4.13408,0.89385 6.70391,0.44693 c 0,0 -3.46368,0.78213 -5.81005,0.55866 -2.34637,-0.22346 4.35754,0.55866 4.35754,0.55866 l 4.02235,0.3352 7.26257,1.89944 12.06703,3.01676 9.83241,3.35195 2.68156,1.22905 -4.46927,-0.89385 -9.05028,-2.7933 -9.94414,-2.4581 -8.15642,-2.1229 -2.90503,-0.67039 -6.03352,0.11173 3.01676,2.34637 8.15643,1.45251 8.49162,2.7933 -9.16202,-2.4581 -6.92737,-1.00559 -0.67039,1.00559 -6.59218,-0.55866 h -2.34637 l 6.36872,1.78771"
           id="path76"
           sodipodi:nodetypes="ccscscccccccccccccccccccccccccccccccccccccccccccsccccccccccccccccccccc" />
        <path
           style="display:inline;opacity:1;fill:#bbeef6;fill-opacity:1;stroke:#c5c5c5;stroke-width:0;stroke-linejoin:bevel;stroke-dasharray:none"
           d="m 96.64805,204.13408 3.24022,-2.12291 5.81005,-1.78771 3.91062,-1.00558 7.59776,-0.11173 3.24023,0.11173 -3.79888,0.89385 11.50838,-0.11173 10.50279,0.44693 5.92179,0.33519 -11.06146,0.22347 h -7.70949 l -4.02235,0.11173 1.89944,1.00559 -7.0391,-0.78213 -3.24023,0.22347 2.7933,-0.78213 -5.92179,-0.67039 -5.58659,1.00559 -4.46928,1.34078 z"
           id="path78" />
      </g>
      <g
         id="g81"
         style="display:inline">
        <path
           style="display:inline;opacity:1;fill:#003243;fill-opacity:1;stroke:#c5c5c5;stroke-width:0;stroke-linejoin:bevel;stroke-dasharray:none"
           d="m 146.92737,228.71508 6.59218,-1.00558 11.84358,-0.22347 10.05586,-2.79329 -10.05586,1.45251 -7.93296,0.22347 7.48603,-1.22905 -9.94413,-0.22347 -1.89944,0.11173 7.59776,-1.22905 -13.40782,-1.34078 -7.03911,1.34078 6.48045,1.00559 -12.40223,0.67039 -2.4581,0.67039 16.8715,0.22347 z"
           id="path91" />
        <path
           style="display:inline;opacity:1;fill:#003243;fill-opacity:1;stroke:#c5c5c5;stroke-width:0;stroke-linejoin:bevel;stroke-dasharray:none"
           d="m 112.96089,250.22346 9.16202,0.22347 9.05028,-0.11173 -4.97207,-1.06146 9.77653,-0.11173 -7.98882,-0.33519 -8.21229,-0.39107 h -3.57542 z"
           id="path89" />
        <path
           style="display:inline;opacity:1;fill:#003243;fill-opacity:1;stroke:#c5c5c5;stroke-width:0;stroke-linejoin:bevel;stroke-dasharray:none"
           d="m 134.58101,252.12291 11.00558,0.44692 -4.9162,0.44693 5.2514,0.72626 6.53631,0.16759 -3.51955,0.61453 10.05586,0.61453 3.29609,0.33519 -4.581,0.22346 7.43017,1.11732 -7.15084,0.11173 -8.32402,0.3352 -6.08939,-0.44693 3.63128,-0.27933 -5.02793,-0.39106 3.91062,-0.27933 -5.64246,-0.44693 1.50838,-0.27932 -3.01676,-1.50838 z"
           id="path90" />
        <path
           style="display:inline;opacity:1;fill:#1cb1fa;fill-opacity:1;stroke:#c5c5c5;stroke-width:0;stroke-linejoin:bevel;stroke-dasharray:none"
           d="m 105.36313,220.67039 2.90503,-2.34637 4.35754,-2.4581 1.78771,-2.34637 7.7095,-1.56424 10.61452,-2.12291 9.05028,-2.01117 10.61453,-1.00559 15.19553,0.22347 14.4134,0.89385 5.92179,2.68157 4.9162,3.24022 8.71509,8.71508 -10.05587,-1.89944 -4.24581,-1.89944 -4.46927,-1.11732 -4.46928,-1.11732 -7.3743,-1.56424 -9.8324,-1.34078 -11.95531,-1.00559 -9.8324,0.55866 -6.25698,0.67039 -3.49842,-0.18209 3.83181,0.59255 -5.84647,-0.11851 -3.6738,0.67155 4.34535,0.43454 3.00224,0.90857 -4.77988,-0.47404 -2.4887,1.1851 4.85889,0.71105 17.53941,-0.39503 13.03604,0.39503 13.90512,1.50112 7.18958,1.89616 6.87355,2.6072 5.45144,2.84423 -8.37468,-3.39727 -6.55752,-1.89615 -8.29567,-1.50112 -8.21666,-1.1851 h -13.58909 l -4.81939,0.31603 -2.37019,1.02708 6.87355,0.39503 7.4266,0.79007 6.32051,0.31602 7.18958,0.15801 7.18957,1.02709 6.79455,2.21217 4.42435,2.29119 -5.53044,-1.97516 -6.47852,-1.1851 -7.90063,-0.31602 -6.08349,0.15801 5.84647,-0.71106 -10.90288,-0.15801 -7.5056,-0.23702 -7.82163,0.79007 -5.60945,0.23701 -1.73814,0.23702 0.55304,1.50112 -1.65913,0.39504 -1.2641,-1.97516 -1.2641,0.71105 1.89615,2.29119 13.27307,0.63205 2.5282,2.29118 13.82611,0.94808 12.64101,1.18509 6.1625,1.1851 3.55529,1.81715 -4.66138,-1.50113 -2.92323,0.31603 0.15801,0.86907 7.5056,3.95032 2.5282,1.97516 1.73814,0.39503 1.42212,1.50112 -6.1625,0.63205 -4.81938,1.89615 -1.81715,1.34311 2.29118,0.79006 -8.45367,0.71106 -3.31827,-0.55304 -3.23926,-1.1851 -4.10833,-2.13317 -11.20995,1.43782 -3.24023,0.67039 9.05028,1.22905 8.49162,1.73184 6.03352,2.12291 3.40782,1.9553 -4.24581,-1.67597 -5.08379,-1.34079 -8.32403,-1.67597 -8.04469,-1.00559 -8.15642,-1.89944 -10.5028,-0.55866 -3.96648,-0.94972 12.06704,-0.61453 14.18994,-0.39106 -13.18435,-1.11732 -10.89386,-0.11173 -9.4972,-0.67039 -4.46928,-1.50838 11.45252,-1.84357 7.98882,-3.57542 2.4581,-1.73185 5.30727,-1.00558 -0.3352,-1.89944 -14.30168,-0.44693 2.51397,-1.56425 -3.51955,-2.17877 -2.51397,-0.72626 5.75419,-0.72625 -9.38547,-0.0559 1.50838,-0.83799 -4.18995,-0.67039 2.06704,-2.06704 0.3352,-1.22905 -5.19553,0.89386 -3.57542,-0.1676 z"
           id="path81" />
        <g
           id="g88">
          <path
             style="display:none;opacity:1;fill:#bbeef6;fill-opacity:1;stroke:#c5c5c5;stroke-width:0;stroke-linejoin:bevel;stroke-dasharray:none"
             d="m 119.6863,212.44116 13.72152,-2.60876 10.27933,-1.78771 13.07263,-1.00558 13.40782,0.33519 h 5.36313 l -10.05587,0.55866 8.71508,0.11173 10.27933,1.22905 5.13967,2.34637 3.35195,2.4581 7.26257,3.01676 5.13967,3.24023 -2.01117,0.55865 -11.62012,-4.581 -9.4972,-3.24022 -4.02235,-0.44693 4.58101,0.78212 18.99441,7.15084 1.22905,1.89944 -4.24581,-1.34078 -15.75419,-5.2514 -12.40223,-2.4581 -20.6704,-0.67039 -7.59776,0.11173 -8.60335,0.78213 8.49162,-1.56425 5.36313,-0.22346 -5.47486,-0.44693 13.51955,-1.00559 -7.48603,-1.00558 h -4.46928 l 9.49721,-0.6704 -9.8324,0.22347 -9.16202,1.22905 -13.92427,2.53768 -3.78861,0.98468 z"
             id="path82"
             sodipodi:nodetypes="cccccccccccccccccccccccccccccccccccccc" />
          <path
             style="display:none;opacity:1;fill:#bbeef6;fill-opacity:1;stroke:#c5c5c5;stroke-width:0;stroke-linejoin:bevel;stroke-dasharray:none"
             d="m 174.55307,222.5 4.44134,1.29888 c 0,0 2.52942,0.52068 3.74302,0.94972 0.96628,0.34161 2.7933,1.28492 2.7933,1.28492 l -4.52514,-1.28492 c 0,0 -6.07591,-1.77913 -9.20391,-2.1648 -5.47586,-0.67514 -16.55028,-0.23743 -16.55028,-0.23743 h -12.7933 l 5.19553,-0.44693 3.57542,-0.11173 -4.97207,-0.27933 -8.88268,-0.61453 -8.10056,0.83799 -2.40223,0.67039 -2.2905,0.3352 -0.61453,-0.78212 1.28492,-0.67039 2.2905,-0.1676 -1.89944,-1.11732 -4.919,-0.11975 2.17598,-0.84601 4.73823,-1.08341 10.6717,-0.86674 15.4929,0.43337 10.99672,0.70421 10.88837,1.84183 6.82554,2.11267 3.35861,1.35427 -5.36293,-1.6793 -6.22967,-1.57096 -10.29248,-1.57096 -13.38025,-0.27086 h -6.60886 l -4.22534,-0.10834 1.24594,0.92091 4.87539,1.08342 9.10072,0.65005 8.82988,0.54171 7.75486,0.30387"
             id="path83"
             sodipodi:nodetypes="ccsccsccccccccccccccccccccccccccccccccc" />
          <path
             style="display:inline;opacity:1;fill:#bbeef6;fill-opacity:1;stroke:#c5c5c5;stroke-width:0;stroke-linejoin:bevel;stroke-dasharray:none"
             d="m 197.43017,239.77654 -6.59218,-2.23464 -9.38548,-1.78771 -6.70391,-1.00559 -12.06704,-0.33519 -8.93854,-0.78212 8.82681,0.11173 11.06146,0.22346 -8.93855,-2.4581 -5.81006,-0.11173 -4.46927,0.89385 -8.49162,0.11173 -1.67598,1.00559 -4.58101,0.3352 6.81565,1.00558 -0.3352,1.00559 -7.48603,0.22346 h -8.93855 l -6.25698,0.89386 6.70391,0.33519 7.26257,1.22905 13.85475,1.22905 2.4581,3.24023 -14.52514,0.44693 6.59218,0.89385 10.16759,0.55866 h 6.36872 l 2.4581,-0.67039 -7.03911,-0.89386 8.71509,0.3352 -8.15643,-1.45251 8.60335,0.33519 3.91062,-1.56424 -6.03352,-1.22906 -8.37989,-0.55865 -12.51396,-0.78213 8.82681,-1.11732 13.07263,-0.22346 15.86592,0.11173 9.72067,1.34078 z"
             id="path84" />
          <path
             style="opacity:1;fill:#bbeef6;fill-opacity:1;stroke:#c5c5c5;stroke-width:0;stroke-linejoin:bevel;stroke-dasharray:none"
             d="m 121.67357,242.74699 -2.96273,0.79007 -1.97516,1.42211 5.45143,-0.55304 z"
             id="path85" />
          <path
             style="opacity:1;fill:#bbeef6;fill-opacity:1;stroke:#c5c5c5;stroke-width:0;stroke-linejoin:bevel;stroke-dasharray:none"
             d="m 120.3352,261.11732 3.29609,2.40223 6.53631,4.02235 3.85475,1.45251 2.40223,0.44693 -4.7486,-2.06704 -2.56983,-1.56424 -0.6704,-1.50838 2.6257,-1.00559 -5.92178,-0.72626 -2.51397,-1.22905 -1.22905,-0.33519 z"
             id="path86" />
          <path
             style="opacity:1;fill:#bbeef6;fill-opacity:1;stroke:#c5c5c5;stroke-width:0;stroke-linejoin:bevel;stroke-dasharray:none"
             d="m 146.53631,264.7486 2.34637,0.78213 1.00559,0.83799 0.61452,-1.95531 z"
             id="path87" />
          <path
             style="opacity:1;fill:#bbeef6;fill-opacity:1;stroke:#c5c5c5;stroke-width:0;stroke-linejoin:bevel;stroke-dasharray:none"
             d="m 155.30726,262.2905 3.07263,0.39106 4.35754,-0.27932 -3.07262,-0.89386 -1.34079,-0.27933 5.0838,0.39106 -3.24022,-0.94972 -5.02793,0.39106 z"
             id="path88" />
        </g>
      </g>
      <rect
         style="display:inline;opacity:1;fill:none;stroke:#c5c5c5;stroke-width:0;stroke-linejoin:bevel;stroke-dasharray:none"
         id="rect70"
         width="163.57542"
         height="149.72067"
         x="66.167595"
         y="140.33519" />
    </g>
    <g
       inkscape:groupmode="layer"
       id="g35"
       inkscape:label="Frame2"
       style="display:inline"
       transform="translate(165.57543)">
      <g
         id="g36"
         style="display:inline">
        <path
           style="display:inline;opacity:1;fill:#003243;fill-opacity:1;stroke:#c5c5c5;stroke-width:0;stroke-linejoin:bevel;stroke-dasharray:none"
           d="m 182.07711,179.58142 -13.90511,3.39727 -7.26859,0.079 -5.76746,0.31603 8.61169,0.31602 8.21666,0.63205 2.4492,0.47404 -11.77195,1.02708 -12.40399,3.47628 -7.26859,2.13317 -19.43556,-2.21218 3.7133,-3.55528 11.06089,-1.02708 -9.08573,-1.10609 2.21218,-0.71106 -12.48301,-3.16025 -11.69294,1.3431 -2.37019,7.34759 16.67034,5.13542 49.93201,-0.94808 7.58461,-1.65913 10.19182,-2.05417 9.40175,-3.23926 4.8984,-3.7133 z"
           id="path37" />
        <path
           style="opacity:1;fill:#1cb1fa;fill-opacity:1;stroke:#c5c5c5;stroke-width:0;stroke-linejoin:bevel;stroke-dasharray:none"
           d="m 84.40223,171.17318 2.68157,1.11732 0.55866,2.01118 -2.7933,2.68156 1.907383,0.18502 -1.331876,1.40963 2.226023,1.29183 1.238443,2.31891 5.411927,1.73814 0.60397,2.10675 -5.13967,2.23464 9.16201,-2.56984 13.18436,-3.91061 15.419,-1.00559 13.29609,-1.34078 18.21229,0.22346 10.50279,1.34079 30.69164,8.65235 -14.70312,-5.154 -14.92658,-4.48361 5.09125,-0.74823 30.04793,7.76701 6.03352,-3.35196 -7.03911,-2.7933 1.89944,-3.68715 -13.63128,-6.59217 -7.03911,-4.02235 -17.5419,-3.68715 -20.89385,-1.89944 -23.46369,-0.22347 -17.98883,6.48045 -7.70949,1.22905 -7.37431,2.7933 -1.67597,0.55866 -1.45252,-1.67598 -1.34078,-0.89386 z"
           id="path35"
           sodipodi:nodetypes="ccccccccccccccccccccccccccccccccccccc" />
        <path
           style="display:inline;opacity:1;fill:#bbeef6;fill-opacity:1;stroke:#c5c5c5;stroke-width:0;stroke-linejoin:bevel;stroke-dasharray:none"
           d="m 130.88268,165.47486 14.07821,0.3352 h 11.73185 l 11.06145,1.00558 3.79888,0.67039 -4.24581,0.22347 7.15084,0.44692 3.12849,0.11174 6.03352,1.11732 8.37989,2.23463 8.60335,2.7933 5.2514,0.78212 -13.85475,-4.581 -11.62011,-2.45811 -4.24581,-0.33519 2.01117,-0.22346 -2.90503,-1.34079 -2.56983,-1.22905 -5.81005,-0.22346 7.59776,0.22346 5.81006,2.12291 1.45251,-1.56425 3.79888,1.11732 1.89944,1.45251 0.6704,-0.67039 -3.01676,-2.1229 -8.71509,-1.78771 -12.40223,-1.89944 -11.39665,-1.00559 -24.35754,-0.11173 -14.97207,0.89385 -11.28492,2.56984 -9.05027,3.12849 13.07262,-3.24023 3.79888,-0.44692 -0.89385,1.45251 -2.12291,1.34078 -7.48603,1.56425 -6.81564,2.4581 -6.81564,4.02235 -1.34079,2.34636 2.7933,-1.56424 7.7095,-4.46927 1.11731,1.22905 6.48045,-0.6704 5.81006,-1.56424 6.59218,-1.45252 -3.68715,2.45811 4.9162,-0.6704 -1.89944,1.45252 4.581,-0.67039 -2.23464,1.67597 3.01676,1.11732 1.00559,0.44693 -10.61452,0.78212 -6.25699,1.45252 -9.8324,2.4581 -5.58659,1.78771 -1.00559,0.22346 -1.89944,1.67598 4.69274,-0.22346 11.50838,-2.23464 10.83799,-2.68157 8.60335,-0.44692 -6.81564,-0.67039 14.52514,-0.6704 14.86033,0.3352 24.46927,0.78212 12.51397,1.56425 17.76536,2.68156 9.49721,3.35196 -5.2514,-3.35196 v 0 l -9.8324,-3.57542 -10.05586,-2.4581 -15.0838,-2.01117 19.44134,1.78771 5.25139,0.67039 c 0,0 -4.9162,-2.7933 -11.28491,-4.35754 -6.36872,-1.56425 -17.98883,-2.56983 -17.98883,-2.56983 l -14.18994,-1.56425 z"
           id="path36" />
      </g>
      <g
         id="g38"
         style="display:inline">
        <path
           style="display:inline;opacity:1;fill:#003243;fill-opacity:1;stroke:#c5c5c5;stroke-width:0;stroke-linejoin:bevel;stroke-dasharray:none"
           d="m 150.32402,205.97765 12.17877,-0.0559 12.68157,3.91061 6.03352,5.97766 2.79329,2.40223 -6.25698,-0.0559 -19.55307,-8.77094 -33.91062,0.55865 12.84917,-1.50838 z"
           id="path41"
           sodipodi:nodetypes="cccccccccc" />
        <path
           style="display:inline;opacity:1;fill:#1cb1fa;fill-opacity:1;stroke:#c5c5c5;stroke-width:0;stroke-linejoin:bevel;stroke-dasharray:none"
           d="m 90.82478,191.35337 9.40176,-3.79231 4.89839,-1.34311 7.03157,0.079 2.13317,0.55304 7.90063,0.31603 0.86907,0.39503 -9.48076,0.55305 1.89615,0.94807 -1.10609,1.1851 3.47628,0.39503 2.84423,-0.71106 5.13541,-1.18509 4.9774,-0.47404 h 13.19406 l 3.7133,1.34311 7.4266,0.31602 10.34983,1.50112 19.59357,4.66138 17.14438,12.72002 h -7.18958 l -1.89615,-1.02708 -3.47628,-0.31603 -1.73814,-1.58013 -2.29118,-0.079 -5.60945,-2.76522 -3.39728,1.97515 -0.15801,1.02709 0.79006,0.94807 2.29119,0.47404 -4.02932,-0.55304 -5.92548,-1.81715 -7.18958,-2.05416 -14.30015,-0.31603 -19.75158,-1.1851 18.09245,2.29119 2.21218,1.34311 0.15801,1.42211 -25.51905,0.94808 -5.45144,1.42211 -1.65913,-1.2641 -4.18734,-0.86907 -6.47852,-1.10609 14.77419,-1.18509 -18.40848,0.94807 h -1.81714 l -2.76523,-0.79006 16.59134,-4.18734 -17.3814,3.95032 -2.76522,-1.2641 18.96152,-3.79231 -19.35655,3.16026 5.0564,-4.74038 7.82163,-3.95032 3.47628,-0.86907 -0.86907,-1.58013 -5.53044,-0.23702 -5.84647,0.63205 -4.74038,-0.15801 z"
           id="path38" />
        <path
           style="display:inline;opacity:1;fill:#bbeef6;fill-opacity:1;stroke:#c5c5c5;stroke-width:0;stroke-linejoin:bevel;stroke-dasharray:none"
           d="m 88.5336,203.28332 9.55977,-5.76746 9.16473,-1.97516 13.35208,-1.18509 12.64101,1.2641 11.2189,0.86907 15.80127,-0.47404 16.1173,2.21218 -2.52821,-2.60721 -4.81938,-3.00224 -0.94808,-0.94808 7.26858,1.2641 12.87804,3.39728 10.0338,2.76522 8.61169,8.29566 0.86907,2.29119 -10.74486,-3.87131 -8.37467,-2.84423 -13.98412,-1.89615 6.95255,3.47628 -7.34759,-1.81715 -10.0338,-0.94808 -15.16922,-0.71105 15.95928,-1.73814 -17.69742,-2.13317 -20.54165,-1.81715 -4.18734,-0.23702 2.21218,1.10609 -14.53717,0.31602 6.55753,0.47404 -11.77194,0.86907 -6.95256,1.73814 z"
           id="path39" />
        <path
           style="display:inline;opacity:1;fill:#bbeef6;fill-opacity:1;stroke:#c5c5c5;stroke-width:0;stroke-linejoin:bevel;stroke-dasharray:none"
           d="m 105.04593,205.73252 10.42883,-0.31602 -3.00224,-1.10609 12.16698,-0.47404 5.21442,0.47404 -6.08349,-1.2641 12.00896,-0.15802 7.66362,0.55305 -6.32051,0.79006 -4.74038,0.55304 11.45592,1.58013 -8.29566,1.10609 -13.03605,-0.39503 7.11057,-0.71106 -8.92772,-1.10609 h -4.58237 l 1.1851,0.94808 z"
           id="path40" />
      </g>
      <g
         id="g42"
         style="display:inline">
        <g
           id="g52"
           style="display:inline">
          <path
             style="display:inline;opacity:1;fill:#003243;fill-opacity:1;stroke:#c5c5c5;stroke-width:0;stroke-linejoin:bevel;stroke-dasharray:none"
             d="m 130.54749,224.35754 6.03352,3.01676 7.59776,3.57542 12.17877,3.35196 9.16201,2.34636 -9.8324,-8.93854 -8.60335,-0.22347 -11.95531,-4.13407 z"
             id="path45" />
          <path
             style="display:inline;opacity:1;fill:#003243;fill-opacity:1;stroke:#c5c5c5;stroke-width:0;stroke-linejoin:bevel;stroke-dasharray:none"
             d="m 154.56983,271.84358 3.46369,-1.11732 c 0,0 4.58101,1.78771 9.49721,0.55866 4.9162,-1.22905 -3.79889,-1.78771 -3.79889,-1.78771 h -5.81005 z"
             id="path46" />
          <path
             style="display:inline;opacity:1;fill:#003243;fill-opacity:1;stroke:#c5c5c5;stroke-width:0;stroke-linejoin:bevel;stroke-dasharray:none"
             d="m 166.41341,258.54749 -5.92179,-1.45252 -5.36313,-1.67598 -12.2905,-1.56424 9.38547,-0.22346 6.48045,0.11173 13.07263,-0.78213 6.14525,-0.78212 -12.51397,-1.78771 -14.63687,0.11173 -9.60894,-0.78212 -4.69274,-0.22346 14.30168,-1.22905 23.46369,0.22346 9.8324,1.78771 -3.57542,4.35754 -15.75419,1.67598 3.68715,1.78771 z"
             id="path47" />
        </g>
        <path
           style="display:inline;opacity:1;fill:#1cb1fa;fill-opacity:1;stroke:#c5c5c5;stroke-width:0;stroke-linejoin:bevel;stroke-dasharray:none"
           d="m 165.18436,212.06704 11.06145,2.56983 3.46369,1.78771 -10.1676,-0.67039 11.84358,4.13408 8.04469,3.35195 4.581,7.15084 -3.79888,1.89944 -8.71508,3.24023 h -1.34079 l -9.72067,-3.79889 -3.57541,0.11174 5.25139,14.07821 -14.41341,0.33519 -11.62011,-0.67039 -9.27374,-0.33519 0.67039,2.68156 1.78771,0.55866 -8.37989,0.67039 -4.24581,-2.23464 5.69833,-0.55865 1.34078,-0.55866 -6.03352,-0.67039 -5.36313,-3.35196 -4.35754,-1.67598 -2.90503,-2.4581 11.39665,-1.67598 13.29609,-0.78212 7.26257,-0.22346 14.86033,-0.67039 -7.3743,-3.35196 -3.46369,-1.67598 -1.78771,-0.78212 6.14526,-1.22905 16.08938,2.01117 1.56425,-0.67039 -11.95531,-4.35754 -13.63129,-0.78212 H 134.7933 l -8.49162,-0.22347 -5.02794,1.45252 -1.78771,1.34078 1.67598,4.9162 -4.80447,-4.24581 -7.93296,-5.13966 16.08939,-8.82682 26.70391,-1.89944 z"
           id="path44" />
        <g
           id="g51"
           style="display:inline">
          <path
             style="display:inline;opacity:1;fill:#bbeef6;fill-opacity:1;stroke:#c5c5c5;stroke-width:0;stroke-linejoin:bevel;stroke-dasharray:none"
             d="m 152,232.73743 4.69274,0.67039 1.78771,1.67598 7.70949,1.00559 1.00559,1.00558 4.13408,0.67039 5.2514,2.90503 0.67039,1.34078 -4.24581,1.00559 -7.03911,-3.24022 -23.24022,-2.23464 -6.03352,-1.22905 -17.31844,-0.3352 -6.48044,0.55866 0.22346,0.89386 -2.90503,0.55866 2.23464,1.67597 1.45251,-1.45251 2.01117,-0.55866 2.45811,1.34078 2.90502,-1.89944 14.41341,0.55866 25.36313,2.7933 7.3743,3.79888 1.22905,1.56425 8.60335,1.89944 4.58101,1.56424 3.35195,2.56984 -0.55865,-3.24023 -1.78771,-3.24022 -0.3352,-3.24022 -2.7933,-2.90503 -7.15083,-2.56984 -2.90503,-1.67597 -2.7933,-3.12849 -3.91061,-2.23464 -6.03352,-1.11732 -2.68157,2.01117 4.35755,1.22905 z"
             id="path48" />
          <path
             style="display:inline;opacity:1;fill:#bbeef6;fill-opacity:1;stroke:#c5c5c5;stroke-width:0;stroke-linejoin:bevel;stroke-dasharray:none"
             d="m 117.58659,243.57542 6.03352,2.7933 3.35196,2.79329 2.34637,0.11173 4.581,5.47486 7.26257,0.44693 5.2514,1.00559 7.3743,-0.78213 -5.2514,-0.67039 -6.36871,-1.22905 -3.24023,-2.68156 -3.35195,-0.11173 v -1.00559 l -0.89386,-2.01117 -7.15083,-0.67039 -1.22905,-1.34079 -4.35755,-1.11731 -2.56983,-1.56425 z"
             id="path49" />
          <path
             style="display:inline;opacity:1;fill:#bbeef6;fill-opacity:1;stroke:#c5c5c5;stroke-width:0;stroke-linejoin:bevel;stroke-dasharray:none"
             d="m 148.98324,260.3352 4.69274,-0.3352 5.81005,0.44693 1.78771,-1.22905 h 7.93296 l 3.57542,1.34078 4.35755,-0.55866 3.79888,-1.78771 -0.22347,2.12291 -3.12849,2.23463 -6.03352,-0.22346 -0.11173,1.45251 1.34078,0.78213 -7.3743,0.33519 -13.29609,-0.11173 4.02235,-0.78212 -6.59218,-0.67039 0.55866,-1.89945 -1.89944,-0.67039 z"
             id="path50" />
          <path
             style="display:inline;opacity:1;fill:#bbeef6;fill-opacity:1;stroke:#c5c5c5;stroke-width:0;stroke-linejoin:bevel;stroke-dasharray:none"
             d="m 125.9431,249.38353 -1.10608,1.58012 2.44919,2.13317 3.35777,1.34311 -2.76522,-2.09367 -1.89615,-1.77764 z"
             id="path51" />
          <path
             style="display:inline;opacity:1;fill:#bbeef6;fill-opacity:1;stroke:#c5c5c5;stroke-width:0;stroke-linejoin:bevel;stroke-dasharray:none"
             d="m 193.11732,220 -3.35196,-2.7933 -10.50279,-3.79888 -5.13966,-0.67039 -6.25699,-1.00559 0.11173,-0.89385 -19.88826,-0.3352 12.73743,-1.22905 -4.69274,-2.01117 -13.96648,-0.22346 -6.14525,3.57542 -15.0838,0.33519 -8.82682,3.01676 -0.11173,1.67598 1.89944,0.89385 -3.46369,1.89944 -2.01117,2.7933 0.22346,0.78212 4.13408,0.55866 2.68157,1.78771 1.78771,-3.12849 8.93854,-0.11173 11.17319,0.44693 12.51397,1.11731 5.47486,0.55866 8.60335,-2.01117 -9.8324,-2.4581 -12.17878,-2.23464 -11.84357,-0.55866 -4.80447,0.22347 -1.11732,-1.00559 6.81564,-1.00559 13.18436,-0.55865 11.06145,-0.22347 7.15084,0.11173 0.78212,-1.34078 5.69833,0.78212 11.50838,1.78771 8.82681,3.24023 z"
             id="path42" />
          <path
             style="display:inline;opacity:1;fill:#bbeef6;fill-opacity:1;stroke:#c5c5c5;stroke-width:0;stroke-linejoin:bevel;stroke-dasharray:none"
             d="m 164.06704,218.54749 16.42458,4.13407 8.60335,2.90503 10.72626,5.81006 -2.23464,0.33519 -8.93854,-4.80447 -8.60336,-3.01676 L 168.42458,220 Z"
             id="path43" />
        </g>
      </g>
      <rect
         style="display:inline;opacity:1;fill:none;stroke:#c5c5c5;stroke-width:0;stroke-linejoin:bevel;stroke-dasharray:none"
         id="rect34"
         width="163.57542"
         height="149.72067"
         x="70.167595"
         y="140.33519" />
    </g>
    <g
       inkscape:groupmode="layer"
       id="layer2"
       inkscape:label="Frame1"
       style="display:inline">
      <g
         id="g2"
         style="display:inline">
        <path
           style="font-variation-settings:normal;display:inline;opacity:1;fill:#003243;fill-opacity:1;stroke:#000000;stroke-width:0;stroke-linecap:butt;stroke-linejoin:miter;stroke-miterlimit:4;stroke-dasharray:none;stroke-dashoffset:0;stroke-opacity:1;stop-color:#000000;stop-opacity:1"
           d="m 105.86592,182.6257 7.15084,3.29609 7.43017,2.1229 45.36313,9.60894 5.13966,0.55866 5.97765,-0.1676 6.98324,-1.62011 10.61453,-1.89944 1.17318,-0.44693 -7.48603,-0.83799 0.22346,-0.89385 8.49162,-2.2905 -4.69273,-0.61453 -29.38548,0.0559 -14.86033,-2.12291 -11.34079,-2.2905 -12.51396,-2.7933 -10.05587,-3.12849 -12.56983,1.62011 z"
           id="path1" />
        <path
           style="display:inline;opacity:1;fill:#1cb1fa;fill-opacity:1;stroke:#c5c5c5;stroke-width:0;stroke-linejoin:bevel;stroke-dasharray:none"
           d="m 104.13408,181.56425 1.45251,2.01117 1.89944,1.89944 -5.92178,-0.67039 -1.899445,-1.34078 -2.458101,-3.79889 -2.346369,-0.22346 -0.331225,-1.22905 -6.232198,-1.59136 1.430055,-1.19632 -2.855458,0.27371 0.751722,-1.58903 -1.757309,-1.42773 5.307263,-4.46927 6.480446,-2.84916 6.871509,-1.34078 10.44693,-0.5028 17.98882,-0.27933 11.45252,1.22905 11.62011,1.34079 9.32961,1.00558 12.2905,2.17877 14.52514,3.79889 11.62011,4.30167 10.78213,5.419 8.15642,6.31285 -2.6257,0.44692 -0.67039,0.67039 1.78771,2.56984 0.1676,1.00558 -0.61453,2.68157 -1.56424,-3.01676 -2.29051,-2.7933 -3.29608,-0.11173 -1.00559,1.17318 -1.95531,0.39107 -0.22346,2.51396 -3.01676,0.27933 -0.5028,-1.34078 -1.50838,-0.39106 -1.28491,0.1676 -1.17319,1.45251 -7.31843,-0.1676 2.23464,-0.94972 -0.3352,-2.6257 -6.87151,-2.90502 -18.49162,-5.92179 -11.17318,-2.29051 -10.05587,-2.17877 -8.32402,-0.61452 8.71508,2.79329 15.53073,3.24023 9.38547,3.29609 6.48045,3.12849 -7.5419,-2.6257 -10.61452,-3.18436 -16.53632,-2.68156 -8.37989,-1.11732 -22.79329,0.0559 -8.88268,1.11732 z"
           id="path2"
           sodipodi:nodetypes="ccccccccccccccccccccccccccccccccccccccccccccccccccccccccccccc" />
        <path
           style="display:inline;opacity:1;fill:#bbeef6;fill-opacity:1;stroke:#c5c5c5;stroke-width:0;stroke-linejoin:bevel;stroke-dasharray:none"
           d="m 117.56144,174.92005 27.49421,-0.31603 3.95032,-0.31602 -11.53493,-2.52821 0.47404,-1.42211 12.32499,0.31602 30.18042,6.47852 -15.16922,-5.0564 -16.74934,-2.84423 h -28.44229 l -20.699659,2.37019 -12.95704,2.68622 -0.474038,-1.42212 2.844228,-1.89615 31.286509,-3.31827 27.81024,-0.63205 -19.59358,-2.37019 -14.37915,0.31603 -11.06089,-0.15802 25.44004,-1.2641 12.32499,0.79007 25.28203,3.7923 3.08125,-0.94808 18.17146,4.50337 12.24598,4.50336 9.40176,4.26634 9.16473,5.29343 3.31827,2.68621 -1.97516,1.02708 -11.92996,-6.95255 -9.63877,-4.81939 -6.55753,-2.21218 11.92996,5.68846 13.58909,8.7697 -4.9774,0.55305 -10.82387,-6.71554 -15.64325,-6.32051 14.45816,6.00448 6.2415,5.05641 4.50336,4.10833 -0.31602,1.2641 h -2.68622 l -2.76522,-2.29118 -7.82163,-4.81939 -6.39951,-0.47404 -11.06089,-4.02932 -3.23926,-2.21218 -13.58909,-4.10833 -9.71778,-1.50112 11.53492,3.47628 3.23926,1.50112 h -4.9774 l -18.17146,-3.00224 -14.22114,-0.79007 z"
           id="path3" />
      </g>
      <g
         id="g4"
         style="display:inline;opacity:1">
        <path
           style="display:inline;opacity:1;fill:#003243;fill-opacity:1;stroke:#c5c5c5;stroke-width:0;stroke-linejoin:bevel;stroke-dasharray:none"
           d="m 179.2654,217.74149 -17.30239,0.63205 -10.82387,-0.79007 -32.94565,-3.47628 -0.31602,-2.29118 14.45816,-0.31603 -13.35208,-1.89615 -2.44919,-0.86907 12.64101,1.02708 6.47852,1.10609 17.77643,-1.65913 20.06761,8.05865 z"
           id="path6" />
        <path
           style="opacity:1;fill:#1cb1fa;fill-opacity:1;stroke:#c5c5c5;stroke-width:0;stroke-linejoin:bevel;stroke-dasharray:none"
           d="m 87.821229,196.20112 35.977651,-4.69274 24.69274,2.01117 20.55866,5.5866 20.89385,8.15642 4.69274,2.12291 -4.46927,1.00558 2.79329,0.55866 0.3352,1.89944 5.2514,2.4581 -5.69833,1.11732 -0.11173,0.67039 -12.40223,0.3352 -11.62012,-4.24581 -13.74301,-3.46369 -5.81006,-1.34078 0.78212,1.34078 8.37989,2.68156 -15.75419,-3.12849 -10.83799,-0.44692 6.03352,-0.89386 -3.24022,-1.45251 -1.67598,-1.22905 -15.75419,-0.89386 -12.2905,1.00559 -3.12849,0.55866 -8.603354,-0.55866 z"
           id="path4" />
        <path
           style="display:inline;opacity:1;fill:#bbeef6;fill-opacity:1;stroke:#c5c5c5;stroke-width:0;stroke-linejoin:bevel;stroke-dasharray:none"
           d="m 101.17318,206.03352 8.26816,2.1229 4.35754,2.23464 -5.75419,0.1676 -1.62011,-0.83799 -1.22905,-0.94972 -6.368714,0.44693 -1.452514,-0.5028 v -2.40223 l -5.083799,-0.44693 -0.949721,-0.94972 -4.636871,-1.84357 2.905028,-1.00559 -0.167598,-0.39106 -2.905028,0.0559 2.458101,-1.84357 -0.05587,-0.61453 -5.75419,-1.00558 4.636871,-0.67039 6.424581,-3.68716 8.770954,-1.17318 -7.597769,-1.11732 14.022349,-0.72625 2.6257,-1.11732 19.05028,-0.72626 17.76536,1.28492 5.13967,1.22905 -9.83241,1.28491 10.78213,0.0559 5.13966,1.22905 -14.18994,0.83799 -10.94972,-1.11732 13.18435,1.84357 14.69274,-0.55865 1.06145,0.33519 -3.35195,0.50279 -14.9162,0.3352 14.9162,1.34078 11.73184,3.24023 12.4581,4.35754 6.14526,2.6257 -2.51397,0.11173 -15.69833,-5.53073 -11.17318,-2.73743 -15.69832,-1.56425 -13.85475,-2.01117 -2.90503,-0.0559 8.93855,3.29609 4.4134,0.89385 13.96649,0.22346 15.08379,3.01676 15.0838,6.42458 -27.26257,-6.70391 -22.1229,-2.01117 -15.53073,-2.23464 -12.56983,-0.11173 -2.90503,0.1676 14.52514,0.78212 25.36313,2.68157 16.20112,4.07821 11.50838,5.30726 -16.75978,-5.19553 -13.07263,-1.39665 -1.22905,1.22905 -6.48044,-0.55866 -4.86034,-1.67597 -25.92179,-0.83799 -13.854748,-0.55866 2.849162,1.78771 z"
           id="path5" />
      </g>
      <g
         id="g7"
         style="display:inline">
        <path
           style="display:inline;opacity:1;fill:#1cb1fa;fill-opacity:1;stroke:#c5c5c5;stroke-width:0;stroke-linejoin:bevel;stroke-dasharray:none"
           d="m 99.776536,219.10615 7.262574,5.25139 v 3.68715 l 7.59776,2.34637 8.82682,4.13408 5.13966,0.78212 -4.46927,-4.24581 16.20112,0.89386 10.61452,1.45251 10.27933,3.12849 5.2514,2.23464 4.35754,-1.78771 4.581,-0.89385 -4.9162,-3.01676 7.93296,0.78212 3.57542,-0.11173 1.89944,-2.23464 -16.08938,-6.36871 -2.23464,-2.06704 -9.72067,-2.84917 -20.60706,-2.00794 -17.85543,0.31603 -16.25818,-0.12373 z"
           id="path7" />
        <path
           style="display:inline;opacity:1;fill:#bbeef6;fill-opacity:1;stroke:#c5c5c5;stroke-width:0;stroke-linejoin:bevel;stroke-dasharray:none"
           d="m 110.45087,222.48187 7.34759,0.55304 -2.4492,0.94808 3.79231,0.079 0.79006,1.58013 15.09021,0.47404 9.24374,0.86907 5.68846,1.73814 -5.37243,0.079 -4.18734,-0.63205 -9.55976,0.15802 6.55752,1.2641 8.05865,1.02708 3.7133,1.65913 2.37019,-0.15801 3.31826,0.15801 1.81715,1.58013 1.97516,-0.23702 1.34311,-0.39503 6.2415,-0.079 2.4492,0.39503 3.87131,1.65914 -5.84647,-3.23926 -4.34535,-2.29119 -5.45144,-1.81714 -7.11057,-1.58013 -0.79006,-0.55304 4.34534,0.55304 11.61394,3.23926 7.18957,1.97516 3.79231,1.34311 1.81714,0.47403 3.00225,-0.39503 -7.50561,-2.37019 -7.97964,-3.7923 -9.16473,-2.29119 6.39951,1.10609 3.95032,1.34311 -1.10609,-1.65913 -5.21442,-2.21218 -7.26858,-1.50112 -8.84871,-1.2641 -4.18734,-0.79007 -6.00448,-0.23701 6.63653,-0.23702 10.50784,1.10609 6.79455,0.39503 -2.76522,-1.89616 -8.37467,-2.37019 -8.13766,-1.58012 -9.24374,-0.39503 -6.79455,-0.55305 -3.16025,-0.79006 -2.05416,-0.55305 -4.34535,-0.079 -0.39504,0.23702 4.50337,0.63205 0.47403,0.71105 -0.55304,0.86907 7.58461,0.71106 -2.37019,0.63205 -22.990848,0.31603 7.663618,0.86907 21.1737,0.079 13.43108,0.86907 -12.87804,0.71106 -1.42211,0.55304 1.2641,0.94808 -1.50112,0.79006 4.9774,0.15802 4.42435,0.79006 -7.66361,0.23702 -6.1625,-0.63205 -4.74038,-0.47404 z"
           id="path14" />
      </g>
      <g
         id="g15">
        <path
           style="display:inline;opacity:1;fill:#003243;fill-opacity:1;stroke:#c5c5c5;stroke-width:0;stroke-linejoin:bevel;stroke-dasharray:none"
           d="m -6.82706,272.65089 5.45144,-0.39503 1.97516,0.15802 0.39503,0.39503 -4.74038,0.55304 z"
           id="path52"
           transform="translate(168)" />
        <path
           style="display:inline;opacity:1;fill:#003243;fill-opacity:1;stroke:#c5c5c5;stroke-width:0;stroke-linejoin:bevel;stroke-dasharray:none"
           d="m 171.04874,262.57759 -1.85665,2.29118 -2.4492,1.77764 -3.55529,-1.46161 -5.60945,-3.00225 -3.47628,-2.80472 6.55753,2.72572 4.58237,0.19751 4.62187,-0.82956 1.42211,-0.27653 z"
           id="path19" />
        <path
           style="display:inline;opacity:1;fill:#003243;fill-opacity:1;stroke:#c5c5c5;stroke-width:0;stroke-linejoin:bevel;stroke-dasharray:none"
           d="m 149.94413,264.63687 -5.53072,-2.06704 -21.45252,-13.46368 -1.9553,-0.83799 -2.23464,-1.45252 5.13966,3.35196 21.11732,13.12849 z"
           id="path20" />
        <path
           style="display:inline;opacity:1;fill:#1cb1fa;fill-opacity:1;stroke:#c5c5c5;stroke-width:0;stroke-linejoin:bevel;stroke-dasharray:none"
           d="m 104.6044,235.91294 15.48524,0.31603 15.24823,0.39503 4.50336,0.079 4.58237,2.05416 11.92996,2.60721 -1.42212,1.73814 -1.02708,0.63205 0.31602,0.86907 0.47404,0.63205 11.45592,4.58237 6.32051,2.92324 -17.06537,-3.95032 -10.82387,-1.65913 -2.29118,-0.15802 -1.81715,-1.81714 -4.10833,1.10609 -1.42211,0.71105 -0.94808,1.10609 -1.65913,-1.42211 -3.55529,-1.97516 -3.23926,-1.65913 -11.13989,-0.63206 -4.50336,0.079 z"
           id="path15" />
        <path
           style="display:inline;opacity:1;fill:#bbeef6;fill-opacity:1;stroke:#c5c5c5;stroke-width:0;stroke-linejoin:bevel;stroke-dasharray:none"
           d="m 104.28837,235.91294 6.55753,-0.23701 11.53493,0.55304 14.45816,0.47404 4.18733,0.86907 0.86907,0.31602 3.7133,1.1851 4.9774,0.71106 8.37467,2.21217 7.97965,2.37019 8.13765,4.66138 -7.18958,-3.23926 -6.55752,-2.29119 -7.74263,-1.81714 -11.77194,-2.21218 -2.76522,-0.55304 -6.24151,-0.31603 -1.02708,2.5282 0.39503,2.37019 8.45368,1.02709 -5.68845,1.02708 -4.50337,-0.23702 -2.05416,-1.50112 -3.16025,-0.39503 -1.42212,-0.71106 -14.14213,-0.31603 1.97515,-0.55304 10.98189,-0.39503 -14.37916,-0.31603 -1.97516,-2.21217 12.64102,0.63205 -13.43108,-0.86907 -0.39503,-1.65914 z"
           id="path16" />
        <path
           style="display:inline;opacity:1;fill:#bbeef6;fill-opacity:1;stroke:#c5c5c5;stroke-width:0;stroke-linejoin:bevel;stroke-dasharray:none"
           d="m 145.84571,246.81582 5.21442,0.15801 7.97964,1.02708 8.45368,2.21218 10.11281,2.29119 10.19182,3.08124 4.89839,2.52821 4.66138,3.55528 -6.00448,-3.08124 -5.76747,-2.29119 -6.87355,-2.05416 -2.76522,-0.79007 -3.16025,0.31603 3.16025,0.86907 1.42211,1.81714 7.03157,3.31827 2.13317,1.58013 1.42211,2.92323 -3.55528,-2.13317 -5.29343,-1.97516 -1.89615,3.79231 -1.65913,0.079 -5.76747,-2.76522 -3.39727,-0.23702 1.97516,-0.86907 -9.16474,-0.94807 8.6907,-0.39504 0.23702,-1.73814 -3.31827,-0.63205 -0.79006,-1.10608 -1.65913,-0.55305 -2.05417,-0.63205 -0.39503,-1.1851 -7.5056,-0.23701 4.66137,-0.79007 -4.58237,0.079 -2.29118,-0.79006 7.58461,-0.55305 3.87131,-0.39503 -6.00448,-0.86907 -5.76746,-0.31603 5.13541,-0.31602 -12.60152,-1.61963 z"
           id="path17"
           sodipodi:nodetypes="cccccccccccccccccccccccccccccccccccccccccccc" />
        <path
           style="display:inline;opacity:1;fill:#bbeef6;fill-opacity:1;stroke:#c5c5c5;stroke-width:0;stroke-linejoin:bevel;stroke-dasharray:none"
           d="m 125.13967,252.51397 13.57541,-0.22347 8.10056,0.27933 -0.39106,0.61453 4.18995,0.61452 -4.63688,0.5028 -2.96089,-0.61453 -0.3352,1.28492 0.11174,0.67039 0.78212,0.67039 -0.27933,3.96648 1.06145,1.78771 2.40224,2.01117 -6.03352,-3.57542 -6.53632,-2.96089 -3.40782,-1.50838 -2.56983,-0.78212 -0.94972,-0.39106 1.34078,-0.94973 z"
           id="path18" />
      </g>
      <rect
         style="opacity:1;fill:none;stroke:#c5c5c5;stroke-width:0;stroke-linejoin:bevel;stroke-dasharray:none"
         id="rect1"
         width="163.57542"
         height="149.72067"
         x="70.167595"
         y="140.33519" />
    </g>
  </g>
</svg>
