<?xml version="1.0" encoding="UTF-8" standalone="no"?>
<!-- Created with Inkscape (http://www.inkscape.org/) -->

<svg
   width="42.025593mm"
   height="2431.1785mm"
   viewBox="0 0 42.025593 2431.1785"
   version="1.1"
   id="svg1"
   xml:space="preserve"
   inkscape:version="1.3 (0e150ed6c4, 2023-07-21)"
   sodipodi:docname="cebo.svg"
   inkscape:export-filename="cebo.svg"
   inkscape:export-xdpi="160"
   inkscape:export-ydpi="160"
   xmlns:inkscape="http://www.inkscape.org/namespaces/inkscape"
   xmlns:sodipodi="http://sodipodi.sourceforge.net/DTD/sodipodi-0.dtd"
   xmlns="http://www.w3.org/2000/svg"
   xmlns:svg="http://www.w3.org/2000/svg"><sodipodi:namedview
     id="namedview1"
     pagecolor="#ffffff"
     bordercolor="#000000"
     borderopacity="0.25"
     inkscape:showpageshadow="2"
     inkscape:pageopacity="0.0"
     inkscape:pagecheckerboard="0"
     inkscape:deskcolor="#d1d1d1"
     inkscape:document-units="mm"
     inkscape:zoom="0.1767767"
     inkscape:cx="-251.73001"
     inkscape:cy="7534.9297"
     inkscape:window-width="1920"
     inkscape:window-height="1024"
     inkscape:window-x="0"
     inkscape:window-y="32"
     inkscape:window-maximized="1"
     inkscape:current-layer="layer1" /><defs
     id="defs1" /><g
     inkscape:label="Capa 1"
     inkscape:groupmode="layer"
     id="layer1"
     transform="translate(-37.226493,2249.8209)"><path
       style="fill:#1a1e3c;fill-opacity:1;stroke:#dd0a12;stroke-width:1;stroke-linecap:square;stroke-linejoin:round;stroke-dasharray:none;stroke-opacity:0;paint-order:fill markers stroke"
       d="m 58.605208,126.1401 c -0.01073,3.45326 0.335982,7.18987 0.198437,10.78177 -0.08899,2.32388 -0.271788,4.65262 -0.661458,6.94532 -0.555541,3.26864 -1.618265,6.43076 -2.38125,9.65729 -0.551453,2.332 -1.435362,4.61998 -1.5875,7.01146 -0.102657,1.61367 0.02205,3.273 0.463021,4.82864 0.395316,1.39457 1.067765,2.7288 1.918229,3.90261 0.777583,1.07322 1.699517,2.11032 2.844271,2.77812 1.22954,0.71726 2.884114,1.92909 4.101041,1.19063 0.480572,-0.29162 0.60525,-1.16311 0.330729,-1.65365 -0.654081,-1.16878 -2.712251,-0.56786 -3.770312,-1.38906 -1.227196,-0.95247 -2.086053,-2.38737 -2.645833,-3.83646 -0.537105,-1.39039 -0.61619,-2.94139 -0.595313,-4.43177 0.04224,-3.01553 0.791473,-5.98781 1.455208,-8.92969 0.505247,-2.23941 1.407251,-4.37647 1.91823,-6.61458 0.532491,-2.33234 0.942582,-4.69815 1.190625,-7.07761 0.167021,-1.60222 0.165357,-3.21807 0.198437,-4.82864 0.0566,-2.7555 0.18289,-5.95062 0,-8.26823 -0.129995,-1.64732 -2.976562,-2.3567 -2.976562,-0.0661 z"
       id="path26"
       sodipodi:nodetypes="saaaaaaaaaaaaaaaasss" /><g
       id="g24"
       inkscape:label="final"
       style="display:inline"><path
         style="display:inline;fill:#ff7d85;fill-opacity:1;stroke:#000000;stroke-width:1.5;stroke-linecap:round;stroke-linejoin:round;stroke-opacity:1;paint-order:fill markers stroke"
         d="m 65.748958,132.88698 c 0.395428,-2.21762 0.597178,-5.08739 1.455208,-6.74688 0.85803,-1.65949 2.017905,-2.51933 2.910416,-3.175 0.892511,-0.65567 1.249944,-0.8092 2.116667,-0.99218 0.866723,-0.18298 1.979767,-0.35198 2.976563,0.0661 0.996796,0.41808 1.951797,1.43264 2.513541,2.4474 0.561744,1.01476 0.639362,2.41631 0.727604,3.37343 0.08824,0.95712 0.07771,1.2246 -0.06614,2.31511 -0.143848,1.09051 -0.607167,2.57947 -0.992188,4.16719 -0.385021,1.58772 -1.050995,3.3757 -1.322917,5.35781 -0.271922,1.98211 -0.224766,4.41886 -0.198437,6.48229 0.02633,2.06343 0.359238,3.19054 0.330729,5.88698 -0.02851,2.69644 -0.312451,7.0936 -0.79375,10.2526 -0.481299,3.159 -1.192874,6.4584 -1.984375,8.66511 -0.791501,2.20671 -0.819667,3.0199 -2.315104,4.63021 -1.495437,1.61031 -4.037666,3.19404 -6.879167,4.10104 -2.841501,0.907 -7.162023,0.99877 -9.855729,0.79375 -2.693706,-0.20502 -3.993077,-0.51066 -6.151562,-1.45521 -2.158485,-0.94455 -4.700548,-2.27381 -6.482292,-4.36563 -1.781744,-2.09182 -3.269372,-5.12042 -3.63802,-7.87135 -0.368648,-2.75093 0.08706,-5.42428 1.322916,-7.87135 1.23586,-2.44707 3.285596,-5.01861 5.886979,-6.08542 2.601383,-1.06681 5.908316,-0.73411 8.400521,0.19844 2.492205,0.93255 4.458704,3.34674 5.820833,4.82864 1.362129,1.4819 2.368956,2.65716 2.579688,3.70417 0.210732,1.04701 -0.0161,1.40407 -0.396875,1.85208 -0.380777,0.44801 -0.529166,0.59531 -1.521354,0.59531 -0.992187,0 -1.698078,-0.56654 -2.315105,-1.19062 -0.617027,-0.62408 -0.225728,-1.33524 -1.190625,-2.38125 -0.964897,-1.04601 -3.421796,-2.56715 -5.027083,-3.04271 -1.605287,-0.47556 -2.864339,-0.77682 -4.167187,-0.13229 -1.302848,0.64453 -2.101205,2.21234 -2.645834,3.70417 -0.544629,1.49183 -0.699425,3.43141 -0.396875,4.96093 0.30255,1.52952 0.898415,2.78476 1.984375,3.90261 1.08596,1.11785 2.709231,1.85002 4.365625,2.38125 1.656394,0.53123 3.67467,0.70544 5.423959,0.66146 1.749289,-0.044 3.581091,-0.25333 4.960937,-0.8599 1.379846,-0.60657 2.495171,-1.31946 3.175,-2.4474 0.679829,-1.12794 0.371603,-2.08408 0.661458,-3.83645 0.289855,-1.75237 0.967386,-4.50514 1.058334,-6.68073 0.09095,-2.17559 -0.286849,-4.16708 -0.463021,-6.28386 -0.176172,-2.11678 -0.460269,-4.18825 -0.595313,-6.41614 -0.135044,-2.22789 -0.324856,-4.68858 -0.198437,-6.94532 0.126419,-2.25674 0.530609,-4.33077 0.926037,-6.54839 z"
         id="path1"
         sodipodi:nodetypes="zzzzzzzzzzzzzzzzzzzzzzzzzzzzzzzzzzzzzzzzzzzz" /><g
         id="g1"
         inkscape:label="ojos"
         transform="translate(-0.9921875,-0.26458333)"><path
           style="fill:#ffffff;fill-opacity:1;stroke:#000000;stroke-width:1.5;stroke-linecap:round;stroke-linejoin:round;stroke-opacity:0;paint-order:fill markers stroke"
           d="m 73.802213,127.26458 c 0.228311,0.007 0.457624,0.10079 0.644921,0.23151 0.288791,0.20156 0.554534,0.48046 0.677995,0.81029 0.09857,0.26333 0.09091,0.5722 0.01654,0.84336 -0.08577,0.31273 -0.254807,0.63013 -0.51263,0.82682 -0.324483,0.24754 -0.765971,0.34927 -1.174089,0.34727 -0.357437,-0.002 -0.769448,-0.0645 -1.02526,-0.3142 -0.237021,-0.23131 -0.296183,-0.61187 -0.314193,-0.94257 -0.02269,-0.41671 0.08609,-0.84647 0.264583,-1.2237 0.228708,-0.48334 1.187548,-0.58551 1.422133,-0.57878 z"
           id="path4"
           sodipodi:nodetypes="aaaaaaaasa" /><path
           style="fill:#ffffff;fill-opacity:1;stroke:#000000;stroke-width:1.5;stroke-linecap:round;stroke-linejoin:round;stroke-opacity:0;paint-order:fill markers stroke"
           d="m 77.17565,127.57878 c 0.271772,-0.01 0.557432,0.0879 0.777214,0.24805 0.191608,0.13963 0.327168,0.35793 0.413411,0.57877 0.11316,0.28977 0.173161,0.6203 0.115756,0.92604 -0.04278,0.22786 -0.183908,0.43243 -0.33073,0.61185 -0.136321,0.16659 -0.289312,0.3536 -0.496093,0.41341 -0.36321,0.10506 -0.817179,0.0714 -1.12448,-0.14887 -0.394702,-0.28293 -0.591048,-0.82374 -0.644921,-1.30638 -0.03396,-0.30427 0.01465,-0.66145 0.214974,-0.89297 0.252493,-0.29181 0.689232,-0.4161 1.074869,-0.4299 z"
           id="path5"
           sodipodi:nodetypes="aaaaaaaaaa" /><ellipse
           style="fill:#000000;fill-opacity:1;stroke:#000000;stroke-width:1.5;stroke-linecap:round;stroke-linejoin:round;stroke-opacity:0;paint-order:fill markers stroke"
           id="path6"
           cx="77.332748"
           cy="129.55489"
           rx="0.73587239"
           ry="0.71933591" /><ellipse
           style="fill:#000000;fill-opacity:1;stroke:#000000;stroke-width:1.5;stroke-linecap:round;stroke-linejoin:round;stroke-opacity:0;paint-order:fill markers stroke"
           id="path7"
           cx="73.711258"
           cy="129.33163"
           rx="0.71933591"
           ry="0.7606771" /></g><g
         id="g23"
         inkscape:label="rayas"><path
           style="fill:#7b1400;fill-opacity:0;stroke:#dd0a12;stroke-width:1;stroke-linecap:square;stroke-linejoin:round;stroke-dasharray:none;stroke-opacity:1;paint-order:fill markers stroke"
           d="m 66.178905,131.92786 10.781771,2.4474 v 0"
           id="path8" /><path
           style="fill:#7b1400;fill-opacity:0;stroke:#dd0a12;stroke-width:1;stroke-linecap:square;stroke-linejoin:round;stroke-dasharray:none;stroke-opacity:1;paint-order:fill markers stroke"
           d="m 65.219791,139.3362 10.682552,0.79375"
           id="path9" /><path
           style="fill:#7b1400;fill-opacity:0;stroke:#dd0a12;stroke-width:1;stroke-linecap:square;stroke-linejoin:round;stroke-dasharray:none;stroke-opacity:1;paint-order:fill markers stroke"
           d="m 65.385155,146.54609 10.252604,-0.59531"
           id="path10" /><path
           style="fill:#7b1400;fill-opacity:0;stroke:#dd0a12;stroke-width:1;stroke-linecap:square;stroke-linejoin:round;stroke-dasharray:none;stroke-opacity:1;paint-order:fill markers stroke"
           d="m 66.046614,152.99531 9.822656,-0.26458"
           id="path11" /><path
           style="fill:#7b1400;fill-opacity:0;stroke:#dd0a12;stroke-width:1;stroke-linecap:square;stroke-linejoin:round;stroke-dasharray:none;stroke-opacity:1;paint-order:fill markers stroke"
           d="m 65.980468,159.08073 9.359635,0.69453"
           id="path12" /><path
           style="fill:#7b1400;fill-opacity:0;stroke:#dd0a12;stroke-width:1;stroke-linecap:square;stroke-linejoin:round;stroke-dasharray:none;stroke-opacity:1;paint-order:fill markers stroke"
           d="m 65.385155,165.13307 8.73125,1.42214"
           id="path13" /><path
           style="fill:#7b1400;fill-opacity:0;stroke:#dd0a12;stroke-width:1;stroke-linecap:square;stroke-linejoin:round;stroke-dasharray:none;stroke-opacity:1;paint-order:fill markers stroke"
           d="m 64.260676,169.59791 7.044531,4.92787"
           id="path14" /><path
           style="fill:#7b1400;fill-opacity:0;stroke:#dd0a12;stroke-width:1;stroke-linecap:square;stroke-linejoin:round;stroke-dasharray:none;stroke-opacity:1;paint-order:fill markers stroke"
           d="m 61.085676,172.11146 2.811198,7.34218"
           id="path15" /><path
           style="fill:#7b1400;fill-opacity:0;stroke:#dd0a12;stroke-width:1;stroke-linecap:square;stroke-linejoin:round;stroke-dasharray:none;stroke-opacity:1;paint-order:fill markers stroke"
           d="m 56.056442,173.03363 -0.02339,7.41339"
           id="path16" /><path
           style="fill:#7b1400;fill-opacity:0;stroke:#dd0a12;stroke-width:1;stroke-linecap:square;stroke-linejoin:round;stroke-dasharray:none;stroke-opacity:1;paint-order:fill markers stroke"
           d="m 50.866145,172.37604 -2.38125,6.51536"
           id="path17" /><path
           style="fill:#7b1400;fill-opacity:0;stroke:#dd0a12;stroke-width:1;stroke-linecap:square;stroke-linejoin:round;stroke-dasharray:none;stroke-opacity:1;paint-order:fill markers stroke"
           d="m 46.533593,170.16015 -4.7625,4.26641"
           id="path18" /><path
           style="fill:#7b1400;fill-opacity:0;stroke:#dd0a12;stroke-width:1;stroke-linecap:square;stroke-linejoin:round;stroke-dasharray:none;stroke-opacity:1;paint-order:fill markers stroke"
           d="m 38.463802,166.81979 5.853906,-0.7276"
           id="path19" /><path
           style="fill:#7b1400;fill-opacity:0;stroke:#dd0a12;stroke-width:1;stroke-linecap:square;stroke-linejoin:round;stroke-dasharray:none;stroke-opacity:1;paint-order:fill markers stroke"
           d="m 39.389843,159.01458 5.32474,2.11667"
           id="path20" /><path
           style="fill:#7b1400;fill-opacity:0;stroke:#dd0a12;stroke-width:1;stroke-linecap:square;stroke-linejoin:round;stroke-dasharray:none;stroke-opacity:1;paint-order:fill markers stroke"
           d="m 45.508333,152.99531 2.116666,4.29948"
           id="path21" /><path
           style="fill:#7b1400;fill-opacity:0;stroke:#dd0a12;stroke-width:1;stroke-linecap:square;stroke-linejoin:round;stroke-dasharray:none;stroke-opacity:1;paint-order:fill markers stroke"
           d="m 53.578124,153.32604 -1.785937,4.00182"
           id="path22" /><path
           style="fill:#7b1400;fill-opacity:0;stroke:#dd0a12;stroke-width:1;stroke-linecap:square;stroke-linejoin:round;stroke-dasharray:none;stroke-opacity:1;paint-order:fill markers stroke"
           d="m 59.167447,158.08854 -2.745052,2.4474"
           id="path23" /></g><path
         style="display:inline;fill:#ff7d85;fill-opacity:0;stroke:#000000;stroke-width:1.5;stroke-linecap:round;stroke-linejoin:round;stroke-opacity:1;paint-order:fill markers stroke"
         d="m 65.748958,132.88698 c 0.395428,-2.21762 0.597178,-5.08739 1.455208,-6.74688 0.85803,-1.65949 2.017905,-2.51933 2.910416,-3.175 0.892511,-0.65567 1.249944,-0.8092 2.116667,-0.99218 0.866723,-0.18298 1.979767,-0.35198 2.976563,0.0661 0.996796,0.41808 1.951797,1.43264 2.513541,2.4474 0.561744,1.01476 0.639362,2.41631 0.727604,3.37343 0.08824,0.95712 0.07771,1.2246 -0.06614,2.31511 -0.143848,1.09051 -0.607167,2.57947 -0.992188,4.16719 -0.385021,1.58772 -1.050995,3.3757 -1.322917,5.35781 -0.271922,1.98211 -0.224766,4.41886 -0.198437,6.48229 0.02633,2.06343 0.359238,3.19054 0.330729,5.88698 -0.02851,2.69644 -0.312451,7.0936 -0.79375,10.2526 -0.481299,3.159 -1.192874,6.4584 -1.984375,8.66511 -0.791501,2.20671 -0.819667,3.0199 -2.315104,4.63021 -1.495437,1.61031 -4.037666,3.19404 -6.879167,4.10104 -2.841501,0.907 -7.162023,0.99877 -9.855729,0.79375 -2.693706,-0.20502 -3.993077,-0.51066 -6.151562,-1.45521 -2.158485,-0.94455 -4.700548,-2.27381 -6.482292,-4.36563 -1.781744,-2.09182 -3.269372,-5.12042 -3.63802,-7.87135 -0.368648,-2.75093 0.08706,-5.42428 1.322916,-7.87135 1.23586,-2.44707 3.285596,-5.01861 5.886979,-6.08542 2.601383,-1.06681 5.908316,-0.73411 8.400521,0.19844 2.492205,0.93255 4.458704,3.34674 5.820833,4.82864 1.362129,1.4819 2.368956,2.65716 2.579688,3.70417 0.210732,1.04701 -0.0161,1.40407 -0.396875,1.85208 -0.380777,0.44801 -0.529166,0.59531 -1.521354,0.59531 -0.992187,0 -1.698078,-0.56654 -2.315105,-1.19062 -0.617027,-0.62408 -0.225728,-1.33524 -1.190625,-2.38125 -0.964897,-1.04601 -3.421796,-2.56715 -5.027083,-3.04271 -1.605287,-0.47556 -2.864339,-0.77682 -4.167187,-0.13229 -1.302848,0.64453 -2.101205,2.21234 -2.645834,3.70417 -0.544629,1.49183 -0.699425,3.43141 -0.396875,4.96093 0.30255,1.52952 0.898415,2.78476 1.984375,3.90261 1.08596,1.11785 2.709231,1.85002 4.365625,2.38125 1.656394,0.53123 3.67467,0.70544 5.423959,0.66146 1.749289,-0.044 3.581091,-0.25333 4.960937,-0.8599 1.379846,-0.60657 2.495171,-1.31946 3.175,-2.4474 0.679829,-1.12794 0.371603,-2.08408 0.661458,-3.83645 0.289855,-1.75237 0.967386,-4.50514 1.058334,-6.68073 0.09095,-2.17559 -0.286849,-4.16708 -0.463021,-6.28386 -0.176172,-2.11678 -0.460269,-4.18825 -0.595313,-6.41614 -0.135044,-2.22789 -0.324856,-4.68858 -0.198437,-6.94532 0.126419,-2.25674 0.530609,-4.33077 0.926037,-6.54839 z"
         id="path1-4"
         sodipodi:nodetypes="zzzzzzzzzzzzzzzzzzzzzzzzzzzzzzzzzzzzzzzzzzzz" /></g><path
       style="fill:#1a1e3c;fill-opacity:1;stroke:#dd0a12;stroke-width:1;stroke-linecap:square;stroke-linejoin:round;stroke-dasharray:none;stroke-opacity:0;paint-order:fill markers stroke"
       d="m 70.931938,153.96331 c -0.24454,-0.008 -0.503666,0.10919 -0.678195,0.28064 -0.139468,0.13701 -0.175384,0.35132 -0.233863,0.53788 -0.07134,0.22757 -0.153856,0.46347 -0.140316,0.70158 0.01302,0.2289 0.124686,0.4422 0.21048,0.65482 0.172205,0.42675 0.608036,1.23945 0.608036,1.23945 l 0.304019,1.02899 0.140317,0.63142 0.140316,0.93545 0.163703,0.86528 0.02339,0.70158 -0.02339,0.84191 -0.09354,0.74835 -0.09355,0.42095 -0.02339,0.44433 1.590251,-1.19268 0.841899,-1.14592 0.397566,-0.56127 0.420949,-0.8419 0.30402,-0.70158 0.187086,-0.72497 0.11693,-0.44433 0.116933,-0.46773 0.280633,0.60804 0.35079,0.63142 0.327406,0.79513 0.163703,0.58466 0.07016,0.4911 0.04677,0.8419 0.02339,0.81851 -0.07016,0.81852 -0.11693,0.70158 -0.163703,0.65481 -0.304019,0.70158 -0.327403,0.6782 -0.04677,0.18709 -0.198782,0.8302 c -0.22635,1.13117 -0.61345,2.01479 -0.760046,2.74787 l -0.152009,0.56126 0.99391,-0.53788 c 0,0 0.364847,-0.37252 0.514492,-0.58465 0.185059,-0.26233 0.309752,-0.56242 0.467723,-0.8419 0.176991,-0.31313 0.362952,-0.62116 0.537879,-0.93544 0.167927,-0.30171 0.356189,-0.59422 0.491109,-0.91206 0.150274,-0.35401 0.248425,-0.72843 0.35079,-1.09914 0.100155,-0.36271 0.180093,-0.73086 0.257247,-1.09915 0.08778,-0.41901 0.187853,-0.83722 0.233862,-1.26285 0.05197,-0.48076 0.05472,-0.96644 0.04677,-1.44994 -0.0059,-0.3593 -0.01848,-0.72014 -0.07016,-1.07575 -0.05058,-0.34809 -0.144298,-0.68884 -0.233863,-1.02899 -0.103617,-0.39352 -0.198189,-0.79208 -0.35079,-1.16931 -0.09544,-0.23594 -0.226792,-0.45593 -0.350792,-0.67819 -0.08858,-0.15878 -0.165954,-0.32663 -0.280633,-0.46772 -0.3549,-0.43663 -0.770796,-0.83455 -1.239462,-1.14592 -0.31382,-0.20849 -0.68534,-0.31326 -1.028988,-0.46772 -0.560213,-0.25181 -1.136146,-0.47029 -1.683798,-0.74836 -0.37675,-0.1913 -0.725862,-0.43344 -1.099145,-0.63142 -0.314161,-0.16662 -0.60339,-0.4568 -0.958832,-0.46773 z"
       id="path25"
       sodipodi:nodetypes="aaaaacccccccccccccccccccccccccccccccccccaaaaaaaaaaaaaaaaaa" /><path
       style="fill:#1a1e3c;fill-opacity:1;stroke:#dd0a12;stroke-width:1;stroke-linecap:square;stroke-linejoin:round;stroke-dasharray:none;stroke-opacity:0;paint-order:fill markers stroke"
       d="m 58.638281,126.30547 c -0.877109,0.0614 -1.676155,-0.68574 -2.282032,-1.32292 -0.597966,-0.62886 -0.955648,-1.47975 -1.190625,-2.3151 -0.20354,-0.7236 -0.194528,-1.49785 -0.165364,-2.24896 0.0199,-0.51257 0.07212,-1.03379 0.23151,-1.52136 0.177729,-0.54368 0.408483,-1.09857 0.79375,-1.52135 0.574648,-0.6306 1.346968,-1.10021 2.14974,-1.38906 0.532684,-0.19167 1.120626,-0.19311 1.686718,-0.19844 0.786486,-0.007 1.602071,-0.0174 2.348177,0.23151 0.685128,0.22854 1.312064,0.64489 1.852084,1.12448 0.481486,0.42761 0.915548,0.9391 1.190625,1.52135 0.303919,0.6433 0.365794,1.3788 0.463021,2.0836 0.08148,0.59063 0.203723,1.19893 0.09922,1.78593 -0.08525,0.47885 -0.296237,1.02898 -0.578776,1.33946 -0.548538,0.60278 -0.788279,1.06941 -1.30638,1.47174 -0.323226,0.251 -0.716797,0.39749 -1.091406,0.56224 -0.408672,0.17974 -0.822716,0.56749 -1.256771,0.46302 -0.568873,-0.13692 -0.908558,-0.7772 -1.190625,-1.28984 -0.0825,-0.14994 -0.302952,-0.48326 -0.132292,-0.49609 0.614493,-0.0462 1.085628,-0.10276 1.5875,-0.29766 0.350761,-0.13622 0.698209,-0.32417 0.959115,-0.59531 0.448464,-0.46605 0.751337,-1.07422 0.959115,-1.68672 0.207355,-0.61125 0.432125,-1.29489 0.264583,-1.91823 -0.214082,-0.79649 -0.791197,-1.56776 -1.521354,-1.9513 -0.831014,-0.43652 -1.872594,-0.15294 -2.811198,-0.16537 -0.341902,-0.005 -0.708265,-0.0951 -1.025261,0.0331 -0.441372,0.17848 -0.7872,0.56777 -1.058333,0.95911 -0.357919,0.51661 -0.591765,1.13284 -0.694531,1.75286 -0.074,0.44644 -0.04309,0.91684 0.06615,1.35599 0.144049,0.57909 0.348451,1.18911 0.760677,1.62058 0.327025,0.3423 0.816917,0.48642 1.256771,0.66146 0.265924,0.10583 0.544545,0.18424 0.826822,0.23151 0.18516,0.031 0.446238,-0.11451 0.56224,0.0331 0.07616,0.0969 -0.0025,0.25826 -0.06615,0.3638 -0.369074,0.61183 -0.97393,1.27299 -1.68672,1.32287 z"
       id="path27"
       sodipodi:nodetypes="aaaaaaaaaaaaasaaaasaaaaaaaaaaaaaaaa" /><rect
       style="fill:#6d3f0c;fill-opacity:1;stroke:#dd0a12;stroke-width:4.4934;stroke-linecap:square;stroke-linejoin:round;stroke-dasharray:none;stroke-opacity:0;paint-order:fill markers stroke"
       id="rect27"
       width="3.4013596"
       height="2366.5444"
       x="58.597263"
       y="-2247.5742"
       ry="2.1733007"
       inkscape:label="rect27" /></g></svg>
