<?xml version="1.0" encoding="UTF-8" standalone="no"?>
<!-- Uploaded to: SVG Repo, www.svgrepo.com, Generator: SVG Repo Mixer Tools -->

<svg
   fill="#000000"
   version="1.1"
   id="Capa_1"
   width="800px"
   height="800px"
   viewBox="0 0 466.146 466.146"
   xml:space="preserve"
   sodipodi:docname="user-black-close-up-shape-svgrepo-com.svg"
   inkscape:version="1.3 (0e150ed6c4, 2023-07-21)"
   xmlns:inkscape="http://www.inkscape.org/namespaces/inkscape"
   xmlns:sodipodi="http://sodipodi.sourceforge.net/DTD/sodipodi-0.dtd"
   xmlns="http://www.w3.org/2000/svg"
   xmlns:svg="http://www.w3.org/2000/svg"><defs
   id="defs1" /><sodipodi:namedview
   id="namedview1"
   pagecolor="#ffffff"
   bordercolor="#000000"
   borderopacity="0.25"
   inkscape:showpageshadow="2"
   inkscape:pageopacity="0.0"
   inkscape:pagecheckerboard="0"
   inkscape:deskcolor="#d1d1d1"
   inkscape:zoom="1.025"
   inkscape:cx="400"
   inkscape:cy="400"
   inkscape:window-width="1920"
   inkscape:window-height="1024"
   inkscape:window-x="0"
   inkscape:window-y="32"
   inkscape:window-maximized="1"
   inkscape:current-layer="Capa_1" />&#10;<g
   id="g1"
   style="stroke-width:0.99988317;stroke-dasharray:none">&#10;	<path
   d="M289.285,191.86c28.844-18.539,47.995-50.83,47.995-87.654C337.28,46.659,290.621,0,233.088,0   c-57.559,0-104.207,46.659-104.207,104.207c0,36.824,19.151,69.121,47.996,87.654c-67.959,6.082-121.422,63.331-121.422,132.854   v108.155l0.274,1.69l7.457,2.328c70.196,21.929,131.195,29.259,181.401,29.259c98.048,0,154.886-27.97,158.408-29.743l6.963-3.534   h0.732V324.714C410.698,255.197,357.253,197.957,289.285,191.86z"
   id="path1"
   style="stroke-width:0.99988317;stroke-dasharray:none;fill:#d2d9e3;fill-opacity:1" />&#10;</g>&#10;</svg>
