<?xml version="1.0" encoding="UTF-8" standalone="no"?>
<!-- Uploaded to: SVG Repo, www.svgrepo.com, Generator: SVG Repo Mixer Tools -->

<svg
   version="1.0"
   id="Layer_1"
   width="512"
   height="424"
   viewBox="0 0 63.999999 53"
   enable-background="new 0 0 64 64"
   xml:space="preserve"
   sodipodi:docname="heart_empty.svg"
   inkscape:version="1.3 (0e150ed6c4, 2023-07-21)"
   xmlns:inkscape="http://www.inkscape.org/namespaces/inkscape"
   xmlns:sodipodi="http://sodipodi.sourceforge.net/DTD/sodipodi-0.dtd"
   xmlns="http://www.w3.org/2000/svg"
   xmlns:svg="http://www.w3.org/2000/svg"><defs
   id="defs5" /><sodipodi:namedview
   id="namedview5"
   pagecolor="#ffffff"
   bordercolor="#000000"
   borderopacity="0.25"
   inkscape:showpageshadow="2"
   inkscape:pageopacity="0.0"
   inkscape:pagecheckerboard="0"
   inkscape:deskcolor="#d1d1d1"
   inkscape:zoom="0.25750989"
   inkscape:cx="254.35916"
   inkscape:cy="846.56943"
   inkscape:window-width="1920"
   inkscape:window-height="1024"
   inkscape:window-x="0"
   inkscape:window-y="32"
   inkscape:window-maximized="1"
   inkscape:current-layer="Layer_1" />&#10;&#10;<g
   id="g9"
   transform="translate(0,-5)">&#10;	<path
   fill="#f76d57"
   d="m 58.714,29.977 c 0,0 -0.612,0.75 -1.823,1.961 C 55.68,33.149 33.414,55.414 33.414,55.414 33.023,55.805 32.512,56 32,56 31.488,56 30.977,55.805 30.586,55.414 30.586,55.414 8.32,33.148 7.109,31.937 5.898,30.726 5.286,29.976 5.286,29.976 3.245,27.545 2,24.424 2,21 2,13.268 8.268,7 16,7 c 3.866,0 7.366,1.566 9.899,4.101 l 0.009,-0.009 4.678,4.677 c 0.781,0.781 2.047,0.781 2.828,0 l 4.678,-4.677 0.009,0.009 C 40.634,8.566 44.134,7 48,7 c 7.732,0 14,6.268 14,14 0,3.424 -1.245,6.545 -3.286,8.977 z"
   id="path5"
   style="fill:#959595;fill-opacity:1" />&#10;	&#10;	<g
   id="g8">&#10;		<path
   fill="#394240"
   d="M 48,5 C 43.582,5 39.582,6.791 36.687,9.687 l -3.979,3.961 c -0.391,0.391 -1.023,0.391 -1.414,0 0,0 -3.971,-3.97 -3.979,-3.961 C 24.418,6.791 20.418,5 16,5 7.163,5 0,12.163 0,21 c 0,3.338 1.024,6.436 2.773,9 0,0 0.734,1.164 1.602,2.031 0.868,0.867 24.797,24.797 24.797,24.797 C 29.953,57.609 30.977,58 32,58 c 1.023,0 2.047,-0.391 2.828,-1.172 0,0 23.93,-23.93 24.797,-24.797 C 60.492,31.164 61.227,30 61.227,30 62.976,27.436 64,24.338 64,21 64,12.163 56.837,5 48,5 Z m 10.714,24.977 c 0,0 -0.612,0.75 -1.823,1.961 C 55.68,33.149 33.414,55.414 33.414,55.414 33.023,55.805 32.512,56 32,56 31.488,56 30.977,55.805 30.586,55.414 30.586,55.414 8.32,33.148 7.109,31.937 5.898,30.726 5.286,29.976 5.286,29.976 3.245,27.545 2,24.424 2,21 2,13.268 8.268,7 16,7 c 3.866,0 7.366,1.566 9.899,4.101 l 0.009,-0.009 4.678,4.677 c 0.781,0.781 2.047,0.781 2.828,0 l 4.678,-4.677 0.009,0.009 C 40.634,8.566 44.134,7 48,7 c 7.732,0 14,6.268 14,14 0,3.424 -1.245,6.545 -3.286,8.977 z"
   id="path7" />&#10;		&#10;	</g>&#10;</g></svg>
