<?xml version="1.0" encoding="UTF-8" standalone="no"?>
<!-- Created with Inkscape (http://www.inkscape.org/) -->

<svg
   version="1.1"
   id="svg1"
   width="1350"
   height="260"
   viewBox="0 0 1350 260"
   sodipodi:docname="death.svg"
   inkscape:version="1.3 (0e150ed6c4, 2023-07-21)"
   xmlns:inkscape="http://www.inkscape.org/namespaces/inkscape"
   xmlns:sodipodi="http://sodipodi.sourceforge.net/DTD/sodipodi-0.dtd"
   xmlns="http://www.w3.org/2000/svg"
   xmlns:svg="http://www.w3.org/2000/svg">
  <defs
     id="defs1" />
  <sodipodi:namedview
     id="namedview1"
     pagecolor="#ffffff"
     bordercolor="#000000"
     borderopacity="0.25"
     inkscape:showpageshadow="2"
     inkscape:pageopacity="0.0"
     inkscape:pagecheckerboard="0"
     inkscape:deskcolor="#d1d1d1"
     inkscape:zoom="0.80592593"
     inkscape:cx="615.44117"
     inkscape:cy="32.261029"
     inkscape:window-width="1920"
     inkscape:window-height="1024"
     inkscape:window-x="0"
     inkscape:window-y="32"
     inkscape:window-maximized="1"
     inkscape:current-layer="layer4" />
  <g
     inkscape:groupmode="layer"
     id="g15"
     inkscape:label="frame5"
     transform="translate(257.89082,-0.49414511)">
    <rect
       style="display:inline;fill:#c2b995;fill-opacity:1;stroke:#aea891;stroke-width:8.00003;stroke-linejoin:round;stroke-miterlimit:100;stroke-dasharray:none;stroke-opacity:1"
       id="rect10"
       width="131.53369"
       height="16.496315"
       x="869.23865"
       y="158.98755"
       transform="matrix(0.99947835,-0.03229602,0.02855012,0.99959236,0,0)" />
    <path
       style="display:inline;fill:#eee4b7;fill-opacity:1;stroke:#aea891;stroke-width:8;stroke-linejoin:round;stroke-miterlimit:100;stroke-dasharray:none;stroke-opacity:1"
       d="m 850.26424,104.38304 c 12.20936,19.48141 16.74545,40.70016 -1.86121,67.15878 0,0 5.49366,11.69508 10.85708,14.4244 2.90324,1.4774 6.6677,1.14443 9.77137,0.1551 9.40886,-2.99918 23.88557,-17.52642 23.88557,-17.52642 -17.27768,-11.99473 -23.35886,-38.33408 0.4653,-58.62822 0,0 -13.92894,-14.496701 -23.11006,-17.526423 -4.32075,-1.425824 -9.75511,-2.198669 -13.6489,0.155101 -3.82071,2.309592 -6.35915,11.787682 -6.35915,11.787682 z"
       id="path10"
       sodipodi:nodetypes="ccssccssc" />
    <path
       style="display:inline;fill:#eee4b7;fill-opacity:1;stroke:#aea891;stroke-width:8;stroke-linejoin:round;stroke-miterlimit:100;stroke-dasharray:none;stroke-opacity:1"
       d="m 911.52918,98.954503 c 0.22727,-5.054402 14.1142,-5.583639 14.1142,-5.583639 l -2.63672,93.681066 c 0,0 -14.10603,-1.91114 -13.9591,-7.13465 1.06723,-37.93978 0.99993,-48.01105 2.48162,-80.962777 z"
       id="path11"
       sodipodi:nodetypes="sccss" />
    <path
       style="display:inline;fill:#eee4b7;fill-opacity:1;stroke:#aea891;stroke-width:8;stroke-linejoin:round;stroke-miterlimit:100;stroke-dasharray:none;stroke-opacity:1"
       d="m 954.18198,88.562729 c 0.0765,-2.614458 13.3387,-5.893841 13.3387,-5.893841 l 0.1551,115.550322 -14.73461,-4.34283 c 0,0 0.22882,-70.73232 1.24081,-105.313651 z"
       id="path12"
       sodipodi:nodetypes="scccs" />
    <path
       style="display:inline;fill:#eee4b7;fill-opacity:1;stroke:#aea891;stroke-width:8;stroke-linejoin:round;stroke-miterlimit:100;stroke-dasharray:none;stroke-opacity:1"
       d="m 908.73736,90.268842 c 0,0 33.90613,-15.118832 51.80377,-19.69784 6.57344,-1.681777 13.39517,-2.308985 20.16314,-2.79182 10.6234,-0.757886 31.95083,-0.155101 31.95083,-0.155101 0,0 2.7803,-21.148867 0.3102,-22.799862 -3.838,-2.565254 -29.57517,-0.498065 -43.89361,2.636718 -14.90292,3.262746 -28.96101,9.866975 -42.65281,16.595818 -7.63922,3.754298 -19.19533,10.53006 -21.86925,13.183594 -1.46906,1.457864 4.18773,13.028493 4.18773,13.028493 z"
       id="path13"
       sodipodi:nodetypes="csscssssc" />
    <path
       style="display:inline;fill:#eee4b7;fill-opacity:1;stroke:#aea891;stroke-width:8;stroke-linejoin:round;stroke-miterlimit:100;stroke-dasharray:none;stroke-opacity:1"
       d="m 999.1613,78.481158 c 0,0 21.9457,-3.615149 30.2447,0.930607 11.2377,6.155381 18.3019,31.330425 18.3019,31.330425 5.5001,24.89041 3.9558,47.9023 -2.9469,69.48529 0,0 -7.6054,16.91901 -16.4407,21.09375 -8.2786,3.91172 -28.8488,1.24081 -28.8488,1.24081 -5.40095,-34.54916 -11.76528,-67.85969 -0.3102,-124.080882 z"
       id="path14"
       sodipodi:nodetypes="csccscc" />
    <path
       style="fill:#a39c7d;fill-opacity:1;fill-rule:evenodd"
       id="path15"
       sodipodi:type="arc"
       sodipodi:cx="1027.7815"
       sodipodi:cy="127.47679"
       sodipodi:rx="9.1509647"
       sodipodi:ry="9.1509647"
       sodipodi:start="0"
       sodipodi:end="6.2831109"
       sodipodi:open="true"
       sodipodi:arc-type="arc"
       d="m 1036.9325,127.47679 a 9.1509647,9.1509647 0 0 1 -9.1508,9.15097 9.1509647,9.1509647 0 0 1 -9.1512,-9.15063 9.1509647,9.1509647 0 0 1 9.1505,-9.1513 9.1509647,9.1509647 0 0 1 9.1515,9.15028" />
    <rect
       style="fill:none;fill-opacity:1;stroke:#c2b995;stroke-width:0;stroke-linejoin:round;stroke-miterlimit:100;stroke-dasharray:none;stroke-opacity:1"
       id="rect15"
       width="260"
       height="260"
       x="822.10913"
       y="0.49414682" />
  </g>
  <g
     inkscape:groupmode="layer"
     id="layer1"
     inkscape:label="frame4"
     transform="translate(-12.10918,-0.49414511)">
    <rect
       style="display:inline;fill:#c2b995;fill-opacity:1;stroke:#c2b995;stroke-width:0;stroke-linejoin:round;stroke-miterlimit:100;stroke-dasharray:none;stroke-opacity:1"
       id="rect3"
       width="131.53369"
       height="16.496315"
       x="869.23865"
       y="158.98755"
       transform="matrix(0.99947835,-0.03229602,0.02855012,0.99959236,0,0)" />
    <path
       style="display:inline;fill:#eee4b7;fill-opacity:1;stroke:#c2b995;stroke-width:0;stroke-linejoin:round;stroke-miterlimit:100;stroke-dasharray:none;stroke-opacity:1"
       d="m 850.26424,104.38304 c 12.20936,19.48141 16.74545,40.70016 -1.86121,67.15878 0,0 5.49366,11.69508 10.85708,14.4244 2.90324,1.4774 6.6677,1.14443 9.77137,0.1551 9.40886,-2.99918 23.88557,-17.52642 23.88557,-17.52642 -17.27768,-11.99473 -23.35886,-38.33408 0.4653,-58.62822 0,0 -13.92894,-14.496701 -23.11006,-17.526423 -4.32075,-1.425824 -9.75511,-2.198669 -13.6489,0.155101 -3.82071,2.309592 -6.35915,11.787682 -6.35915,11.787682 z"
       id="path4"
       sodipodi:nodetypes="ccssccssc" />
    <path
       style="fill:#eee4b7;fill-opacity:1;stroke:#c2b995;stroke-width:0;stroke-linejoin:round;stroke-miterlimit:100;stroke-dasharray:none;stroke-opacity:1"
       d="m 911.52918,98.954503 c 0.22727,-5.054402 14.1142,-5.583639 14.1142,-5.583639 l -2.63672,93.681066 c 0,0 -14.10603,-1.91114 -13.9591,-7.13465 1.06723,-37.93978 0.99993,-48.01105 2.48162,-80.962777 z"
       id="path5"
       sodipodi:nodetypes="sccss" />
    <path
       style="fill:#eee4b7;fill-opacity:1;stroke:#c2b995;stroke-width:0;stroke-linejoin:round;stroke-miterlimit:100;stroke-dasharray:none;stroke-opacity:1"
       d="m 954.18198,88.562729 c 0.0765,-2.614458 13.3387,-5.893841 13.3387,-5.893841 l 0.1551,115.550322 -14.73461,-4.34283 c 0,0 0.22882,-70.73232 1.24081,-105.313651 z"
       id="path6"
       sodipodi:nodetypes="scccs" />
    <path
       style="display:inline;fill:#eee4b7;fill-opacity:1;stroke:#c2b995;stroke-width:0;stroke-linejoin:round;stroke-miterlimit:100;stroke-dasharray:none;stroke-opacity:1"
       d="m 908.73736,90.268842 c 0,0 33.90613,-15.118832 51.80377,-19.69784 6.57344,-1.681777 13.39517,-2.308985 20.16314,-2.79182 10.6234,-0.757886 31.95083,-0.155101 31.95083,-0.155101 0,0 2.7803,-21.148867 0.3102,-22.799862 -3.838,-2.565254 -29.57517,-0.498065 -43.89361,2.636718 -14.90292,3.262746 -28.96101,9.866975 -42.65281,16.595818 -7.63922,3.754298 -19.19533,10.53006 -21.86925,13.183594 -1.46906,1.457864 4.18773,13.028493 4.18773,13.028493 z"
       id="path7"
       sodipodi:nodetypes="csscssssc" />
    <path
       style="fill:#eee4b7;fill-opacity:1;stroke:#c2b995;stroke-width:0;stroke-linejoin:round;stroke-miterlimit:100;stroke-dasharray:none;stroke-opacity:1"
       d="m 999.1613,78.481158 c 0,0 21.9457,-3.615149 30.2447,0.930607 11.2377,6.155381 18.3019,31.330425 18.3019,31.330425 5.5001,24.89041 3.9558,47.9023 -2.9469,69.48529 0,0 -7.6054,16.91901 -16.4407,21.09375 -8.2786,3.91172 -28.8488,1.24081 -28.8488,1.24081 -5.40095,-34.54916 -11.76528,-67.85969 -0.3102,-124.080882 z"
       id="path8"
       sodipodi:nodetypes="csccscc" />
    <path
       style="fill:#a39c7d;fill-opacity:1;fill-rule:evenodd"
       id="path9"
       sodipodi:type="arc"
       sodipodi:cx="1027.7815"
       sodipodi:cy="127.47679"
       sodipodi:rx="9.1509647"
       sodipodi:ry="9.1509647"
       sodipodi:start="0"
       sodipodi:end="6.2831109"
       sodipodi:open="true"
       sodipodi:arc-type="arc"
       d="m 1036.9325,127.47679 a 9.1509647,9.1509647 0 0 1 -9.1508,9.15097 9.1509647,9.1509647 0 0 1 -9.1512,-9.15063 9.1509647,9.1509647 0 0 1 9.1505,-9.1513 9.1509647,9.1509647 0 0 1 9.1515,9.15028" />
    <rect
       style="fill:none;fill-opacity:1;stroke:#c2b995;stroke-width:0;stroke-linejoin:round;stroke-miterlimit:100;stroke-dasharray:none;stroke-opacity:1"
       id="rect9"
       width="260"
       height="260"
       x="822.10913"
       y="0.49414682" />
  </g>
  <g
     inkscape:groupmode="layer"
     id="layer2"
     inkscape:label="frame3"
     transform="translate(-0.16390842,-2.1100549)">
    <path
       style="display:inline;fill:#95a5a6;fill-opacity:1;stroke:#b1bcbd;stroke-width:15.073;stroke-linejoin:round;stroke-miterlimit:100;stroke-dasharray:none;stroke-opacity:1"
       d="m 625.67437,27.784241 c -35.53373,3.074511 -62.86966,23.120465 -58.11771,63.778215 -32.13792,24.808034 -19.83488,63.442664 -1.32086,83.639944 1.77985,38.87431 26.56596,58.29379 61.1997,59.3645 40.35732,33.87834 63.15877,18.02372 85.85568,1.54481 35.06152,-2.91123 57.32145,-25.38979 63.62127,-61.57136 21.91227,-29.72848 20.9675,-60.34615 -0.22015,-83.860637 C 775.06039,60.946806 754.38027,26.829276 716.15304,28.446299 687.76072,1.2736679 656.40633,5.778426 625.67437,27.784241 Z"
       id="path3"
       sodipodi:nodetypes="ccccccccc" />
  </g>
  <g
     inkscape:groupmode="layer"
     id="layer3"
     inkscape:label="frame2"
     transform="translate(-3.3709674,-0.58488448)">
    <path
       style="display:inline;fill:#d6eef0;fill-opacity:1;stroke:#effeff;stroke-width:20.1789;stroke-linejoin:round;stroke-miterlimit:100;stroke-dasharray:none;stroke-opacity:1"
       d="m 405.423,27.78638 c -60.50512,-46.823701 -162.56185,8.088658 -104.13751,100.80834 -46.27812,65.78567 2.70533,164.69564 95.23688,100.3681 83.17584,54.57889 166.20337,-0.66579 105.91763,-99.9279 50.16423,-43.535429 5.88714,-158.809362 -97.017,-101.24854 z"
       id="path2"
       sodipodi:nodetypes="ccccc" />
  </g>
  <g
     inkscape:groupmode="layer"
     id="layer4"
     inkscape:label="frame1"
     transform="translate(-1.9072341e-5)">
    <path
       style="display:inline;opacity:1;fill:#95a5a6;fill-opacity:1;fill-rule:evenodd;stroke:#b4bfc0;stroke-width:33.8173;stroke-dasharray:none;stroke-opacity:1"
       id="path1"
       sodipodi:type="arc"
       sodipodi:cx="130"
       sodipodi:cy="130"
       sodipodi:rx="113.09133"
       sodipodi:ry="113.09133"
       sodipodi:start="0"
       sodipodi:end="6.2831109"
       sodipodi:open="true"
       sodipodi:arc-type="arc"
       d="M 243.09133,130 A 113.09133,113.09133 0 0 1 130.0021,243.09133 113.09133,113.09133 0 0 1 16.908669,130.00421 113.09133,113.09133 0 0 1 129.99369,16.908669 113.09133,113.09133 0 0 1 243.09133,129.99159" />
  </g>
</svg>
