<!DOCTYPE svg PUBLIC "-//W3C//DTD SVG 1.1//EN" "http://www.w3.org/Graphics/SVG/1.1/DTD/svg11.dtd">
<!-- Uploaded to: SVG Repo, www.svgrepo.com, Transformed by: SVG Repo Mixer Tools -->
<svg height="800px" width="800px" version="1.1" id="_x32_" xmlns="http://www.w3.org/2000/svg" xmlns:xlink="http://www.w3.org/1999/xlink" viewBox="0 0 512 512" xml:space="preserve" fill="#d2d9e3" stroke="#d2d9e3">
<g id="SVGRepo_bgCarrier" stroke-width="0"/>
<g id="SVGRepo_tracerCarrier" stroke-linecap="round" stroke-linejoin="round"/>
<g id="SVGRepo_iconCarrier"> <style type="text/css"> .st0{fill:#d2d9e3;} </style> <g> <path class="st0" d="M389.488,226.899H122.512C54.852,226.899,0,281.744,0,349.412c0,67.659,54.852,122.512,122.512,122.512 c42.649,0,80.192-21.807,102.136-54.853h62.705c21.943,33.046,59.486,54.853,102.136,54.853 c67.659,0,122.512-54.853,122.512-122.512C512,281.744,457.147,226.899,389.488,226.899z M144.406,431.105 C99.284,443.196,52.91,416.42,40.818,371.306c-12.092-45.122,14.684-91.497,59.807-103.588 c45.114-12.092,91.497,14.692,103.588,59.798C216.305,372.639,189.529,419.022,144.406,431.105z M411.382,431.105 c-45.131,12.092-91.505-14.684-103.596-59.807c-12.076-45.114,14.693-91.488,59.807-103.58 c45.122-12.092,91.505,14.692,103.596,59.798C483.272,372.639,456.496,419.022,411.382,431.105z"/> <polygon class="st0" points="138.361,293.346 105.443,293.346 105.443,331.13 67.659,331.13 67.659,364.048 105.443,364.048 105.443,401.832 138.361,401.832 138.361,364.048 176.153,364.048 176.153,331.13 138.361,331.13 "/> <path class="st0" d="M402.647,321.014c7.274-7.274,7.274-19.053,0-26.326c-7.266-7.266-19.052-7.266-26.327,0 c-7.266,7.274-7.266,19.052,0,26.326C383.594,328.28,395.381,328.28,402.647,321.014z"/> <path class="st0" d="M417.886,336.252c-7.266,7.266-7.266,19.044,0,26.319c7.266,7.274,19.052,7.274,26.319,0 c7.274-7.275,7.274-19.053,0-26.319C436.938,328.978,425.152,328.978,417.886,336.252z"/> <path class="st0" d="M334.771,336.252c-7.274,7.266-7.274,19.044,0,26.319c7.266,7.274,19.044,7.274,26.31,0 c7.274-7.275,7.274-19.053,0-26.326C353.815,328.978,342.037,328.978,334.771,336.252z"/> <path class="st0" d="M376.32,377.81c-7.266,7.274-7.266,19.053,0,26.319c7.274,7.274,19.061,7.274,26.327,0 c7.274-7.266,7.274-19.044,0.008-26.319C395.381,370.536,383.594,370.552,376.32,377.81z"/> <path class="st0" d="M268.926,110.882c0-2.441,0.482-4.704,1.365-6.793c1.317-3.115,3.549-5.796,6.336-7.683 c2.802-1.887,6.086-2.963,9.755-2.979c2.441,0.008,4.704,0.498,6.784,1.373c3.115,1.308,5.812,3.54,7.691,6.342 c1.887,2.794,2.97,6.078,2.979,9.739c-0.008,5.91,1.204,11.61,3.38,16.764c3.284,7.74,8.727,14.292,15.592,18.932 c6.849,4.641,15.207,7.362,24.079,7.362c5.9,0,11.601-1.204,16.764-3.396c7.732-3.267,14.283-8.719,18.924-15.576 c4.64-6.857,7.371-15.207,7.362-24.087V40.076h-25.604v70.806c0,2.449-0.482,4.713-1.365,6.793 c-1.316,3.115-3.548,5.804-6.334,7.691c-2.802,1.879-6.086,2.971-9.747,2.978c-2.449-0.007-4.714-0.489-6.793-1.372 c-3.115-1.317-5.805-3.549-7.692-6.343c-1.887-2.795-2.962-6.086-2.97-9.748c0-5.902-1.204-11.602-3.388-16.748 c-3.284-7.756-8.727-14.307-15.592-18.94c-6.848-4.648-15.206-7.362-24.07-7.362c-5.91,0-11.61,1.204-16.773,3.388 c-7.732,3.276-14.291,8.719-18.924,15.584c-4.641,6.857-7.371,15.206-7.362,24.078v104.72h25.604V110.882z"/> </g> </g>
</svg>