<?xml version="1.0" encoding="UTF-8" standalone="no"?>
<!-- Generator: Adobe Illustrator 18.0.0, SVG Export Plug-In . SVG Version: 6.00 Build 0)  -->

<svg
   version="1.1"
   id="Layer_1"
   x="0px"
   y="0px"
   viewBox="0 0 1400 980"
   enable-background="new 0 0 1400 980"
   xml:space="preserve"
   sodipodi:docname="background.svg"
   inkscape:export-filename="seabed_mod.svg"
   inkscape:export-xdpi="96"
   inkscape:export-ydpi="96"
   inkscape:version="1.3 (0e150ed6c4, 2023-07-21)"
   xmlns:inkscape="http://www.inkscape.org/namespaces/inkscape"
   xmlns:sodipodi="http://sodipodi.sourceforge.net/DTD/sodipodi-0.dtd"
   xmlns:xlink="http://www.w3.org/1999/xlink"
   xmlns="http://www.w3.org/2000/svg"
   xmlns:svg="http://www.w3.org/2000/svg"><defs
   id="defs743" /><sodipodi:namedview
   id="namedview743"
   pagecolor="#ffffff"
   bordercolor="#000000"
   borderopacity="0.25"
   inkscape:showpageshadow="2"
   inkscape:pageopacity="0.0"
   inkscape:pagecheckerboard="0"
   inkscape:deskcolor="#d1d1d1"
   inkscape:zoom="0.8367347"
   inkscape:cx="599.95122"
   inkscape:cy="645.36585"
   inkscape:window-width="1920"
   inkscape:window-height="1024"
   inkscape:window-x="0"
   inkscape:window-y="32"
   inkscape:window-maximized="1"
   inkscape:current-layer="g743" />&#10;<g
   id="g743">&#10;	<defs
   id="defs1">&#10;		<rect
   id="SVGID_1_"
   y="0"
   width="1400"
   height="980" />&#10;	</defs>&#10;	<clipPath
   id="SVGID_2_">&#10;		<use
   xlink:href="#SVGID_1_"
   overflow="visible"
   id="use1" />&#10;	</clipPath>&#10;	<g
   clip-path="url(#SVGID_2_)"
   id="g742">&#10;		<rect
   y="0"
   fill="#91D4EC"
   width="1400"
   height="980"
   id="rect1" />&#10;		&#10;		&#10;		<g
   id="g32">&#10;			<path
   fill="#7AB3C7"
   d="M1042.4,776c0.1,0,402-32,402-32c0.3-20.7-4.8-42.2-8.8-62.4c-11.3-58-35.5-112-47.7-169.5     c-2.5-11.7-0.5-10.7-10.5-15c-18.5-8.1-24.3,2.5-28.6-19.6c-2.1-10.5-3.7-21.1-5.7-31.6c-3.4-17.6-3.4-22.8-22-24.8     c-25.8-2.8-55.1,4.4-78.7,14.8c-25.3,11.1-35,51.5-48.3,74.6c-6.9,12-11.6,25.8-18.8,36.4c-7.7,11.3-16.7,11.6-30.6,15.8     c-13.1,4-30.2,6.2-38.3,15.1c-10.9,11.8-11.3,36-16.5,51c-4.8,14-6.8,28.7-10.5,43c-3.3,12.6-10,20.4-14.8,31.6     c-0.3,0.6-0.6,1.5-0.8,2.5c-3.9-0.4-7.9-0.6-11.7-0.8c-2-0.1-3.9-0.5-5.7-1.1c5.3-6.6,14.5-12,20.9-17.7     c3.6-3.2,7.6-5.8,8.3-10.6c1.1-7.5-3.1-7.4-7.7-3.6c-6.3,5.1-7.8,20.8-18.7,17.6c0.1-12.5,9-22.1,14.3-32.3     c2.9-5.5,4-10.8,8.8-15.5c2.4-2.3,15.1-10.1,8.8-13.5c-2,2.2-4.8,2.7-7.7,1.9c0-3.9,3.5-8.7,5.5-11.7c3.5-5.2,5.1-9.8,7.6-15.1     c2-4.2,22.8-24.9,6.2-23.2c-3.8,4.4-14.2,31.5-19,30.2c-0.6-3.5-0.5-8.9-1.7-12.3c-2.2-6-4.5-4.6-6.3,2.2     c-2.2,8.2-1.2,17.9-2.4,26.3c-5.9-0.1-1.3-4.7-4-6.5c-4.9-3-5.7,1.4-6,5.2c-0.4,5.2,1.1,10.2,1.6,15.6c-3.1-0.9-5.9-0.4-8.6,0.6     c-0.8-0.6-1.5,0-2.2,1c-1.8,0.9-3.5,1.9-5.2,2.7c-3.7-3.1,1-16.9,4.5-26.9c2.2-2.6,3.9-5.5,3.6-9.4c-0.2-0.1-0.4-0.2-0.6-0.3     c0-0.2,0-0.3,0.1-0.5c-1.2-0.5-2.4-0.5-3.5-0.3c-1.4,0-2.9,0.3-4.2,0.9c-3.8-5.4,4.2-14.5,6.2-20c2.4-6.7,4.1-14.4,5.2-21.5     c-1.1-0.5-2.3-0.7-3.5-0.7c-5.7,6.5-7,16.8-12.1,23.4c-0.3-1.2-0.7-2.4-1.2-3.5c-1-0.3-2.1-0.4-3.2-0.3c0,0.3-0.1,0.5-0.1,0.8     c-1.2-0.9-2.7-1.4-4.5-1.2c-1,4.3,2,25.9-0.2,36.6c-0.9-0.2-1.9-0.1-2.9,0c-0.7,2.1-0.8,4-0.4,5.8c-0.4,0.2-0.8,0.2-1.3,0.2     c-4-0.1-2.4-11.2-7.7-4.5c-2,2.5-0.8,10-0.7,13c0.2,3.9,0,7.7-0.5,11.7c-1.4-0.6-3-0.9-4.7-0.8c-0.8,3,0.7,6.1,3.1,9.4     c-0.1,0.3-0.2,0.7-0.2,1c-14.2,0.7-7.2-25.5-5.6-33.8c1.7-8.4,6.9-14.7,8.4-22.3c0.8-4.2,1.4-9.2-4.9-7.5c-3.6,1,0,7.4-6.4,5.7     c1.4-9.4,5.6-19.7,5.7-29.2c0.2-7.9-1.9-10.1-6.1-4.4c-2.5,3.4-4,9.2-5.8,12.8c-5.6-0.2-8.3-32.7-11-38.6     c-17.4-7.1-1.4,21.9-0.6,27.1c1,6.5,1.4,12,3.5,18.7c1.2,3.9,3.5,10.1,2.3,14.3c-3.4,0-6.3-1.5-7.8-4.5     c-7.9,1.7,3.4,14.2,5.3,17.4c3.7,6.5,3.2,12.7,4.6,19.5c2.5,12.7,9.1,25.9,5.3,39.4c-12.7,0.1-9.4-17.3-14.6-24.9     c-3.8-5.6-8.3-7.1-9.4,1.4c-0.7,5.4,2.7,9.4,5.6,14.1c4.2,6.7,9.2,13.6,14.6,19.4c2.5,2.6,4.8,5,6.7,7.7     c-6.2,1-12.2,2.8-16.9,5.6c-4.2,2.5-7.9,5.7-11,9.4c0,0,0,0,0,0c0,0,0,0,0,0c-0.1,0.1-0.2,0.2-0.2,0.3c-0.5,0.6-0.9,1.1-1.3,1.7     c-0.2,0.2-0.3,0.4-0.5,0.6c-0.4,0.6-0.8,1.2-1.2,1.8c-0.1,0.1-0.1,0.2-0.2,0.3c-0.4,0.7-0.9,1.4-1.3,2.2     c-0.1,0.2-0.2,0.4-0.4,0.7c-0.3,0.6-0.6,1.2-0.9,1.8c-0.1,0.2-0.2,0.3-0.2,0.5c-0.3,0.8-0.7,1.5-1,2.3c-0.1,0.2-0.2,0.4-0.2,0.6     c-0.2,0.6-0.5,1.3-0.7,1.9c-0.1,0.2-0.1,0.4-0.2,0.6c-0.2,0.8-0.5,1.6-0.7,2.4c0,0.2-0.1,0.4-0.1,0.5c-0.2,0.7-0.3,1.3-0.4,2     c0,0.2-0.1,0.4-0.1,0.7c-0.1,0.8-0.3,1.7-0.4,2.5c0,0.1,0,0.2,0,0.4c-0.1,0.7-0.1,1.5-0.2,2.2c0,0.2,0,0.5,0,0.7     c0,0.8-0.1,1.7-0.1,2.5c17,2.9,34.3,2.1,51.6,1.7c18.7,0.9,33.8,0.4,45.7-0.6C1055.4,755.4,1050.9,775.3,1042.4,776z      M1027.8,694.3c-2.5-1.3-5.2-2.4-8-3c-1.2-0.3-2.5-0.5-3.8-0.6c0.2-8.2,1.2-14.9,5.4-20.6c2.1,2.4,3.9,4.8,4.7,7     C1027.3,680.5,1028.1,687.6,1027.8,694.3z M1027.2,647.3c0.3-1.9,0.6-3.7,1.1-5.5c0.7,2,1.3,4.1,1.5,6.2     C1029,647.9,1028.1,647.7,1027.2,647.3z M1041.6,674.2c0.2-6.8,1.3-12.9,3.3-18.7c0.1-0.4,0.3-0.9,0.6-1.5c4.3-2.8,8-6,9.4-9.7     c0,0.8,0,1.6-0.1,2.5C1054.2,654.2,1053.6,678.4,1041.6,674.2z"
   id="path31" />&#10;		</g>&#10;		<g
   id="g33">&#10;			<path
   fill="#7ab3c7"
   d="m 267.6,743.1 c -0.2,-0.5 -0.4,-0.9 -0.6,-1.3 -0.1,-0.1 -0.1,-0.3 -0.2,-0.4 -0.1,-0.3 -0.3,-0.6 -0.4,-0.8 -0.1,-0.2 -0.2,-0.3 -0.3,-0.5 -0.1,-0.2 -0.3,-0.5 -0.4,-0.7 -5.96172,-9.02752 -17.57065,-16.56295 -27.5,-18.6 l -40.1,-18.1 -15.2,0.5 c 0,0.1 0.1,0.3 0.1,0.4 -9.3,-1.3 -20.5,-0.2 -29.5,3.2 -5.1,-0.6 -10.2,-0.9 -15.2,-1.2 L 113.4,687.2 34,679.1 c -11.4,1.8 -22.5,5.2 -31.1,10.3 -21.117602,12.45397 -39.4,37.82287 -39.4,71.4 31.5,5.3 63.3,3.9 95.1,3.1 78.1,3.6 121.4,-5 141.5,-11.1 50,0 67.5,-9.7 67.5,-9.7 z"
   id="path32"
   sodipodi:nodetypes="cccsssccccccccccccc" />&#10;		</g>&#10;		<path
   fill="#D4B87B"
   d="M1400,704.9c-102.2-7.6-267.8,7.9-386.9,16.9c-141.9,10.7-392.1,9.3-659.6,1    c-189.1-5.8-303,14.6-353.5,27.1V980h1400V704.9z"
   id="path33" />&#10;		&#10;		&#10;		&#10;		&#10;		&#10;		<g
   id="g295">&#10;			<path
   fill="#FADF8E"
   d="M0,810c0,0,763-144,1400,0v170H0V810z"
   id="path290" />&#10;			<g
   id="g294">&#10;				<g
   id="g291">&#10;					<path
   fill="#F7E2A5"
   d="M1400,934.3c-4.3,0.4-8.2,0.7-11.3,0.7c-57.1,0-115.5,2.9-171.8-4c-16.7-2.1-34.2-0.1-50.8-3.3       c-19.7-3.7-36.3-14.5-55-20.3c-32.5-10.2-80.6-7.4-114.3-2.8c-37.1,5-69.5,22-102.5,38.7c-17.6,8.9-44,21.4-67.7,36.8h139       c14.1-8.3,28.6-15.5,42.8-19c21.6-5.4,48.7-2.8,70.7-2c41.1,1.6,82.1,10.8,122.6,21H1400V934.3z"
   id="path291" />&#10;				</g>&#10;				<g
   id="g292">&#10;					<path
   fill="#F7E2A5"
   d="M1076.9,787c-21.1,0.1-169.2-5.8-158-37.5c-56.5-2.5-112.3-3.5-166.8-3.5c2.2,0.5,4.5,1,6.7,1.6       c23.2,6.4,81.6,14.3,94.3,39.4c29.2,57.5-149,78.9-178.4,82.9c-76.7,10.5-163.2,14.9-237.7,37.4       c-47.8,14.4-83.8,32.3-110.7,72.6h152.2c26.8-38.8,111.5-57.9,143.2-66.9c27.5-7.8,54.8-16.6,83-21.6       c24.9-4.4,50.5-1.9,75.1-6.8c47.2-9.3,85.4-45,134.5-47.7c57.1-3.2,114.1,4.1,171.2,1.5c57.2-2.6,109.3,0.4,166.4,8.5       c47.9,6.7,101,8.2,147.8,19.9V810c-47.2-10.7-95.1-19.8-143.4-27.5C1196.5,783.2,1135.7,786.8,1076.9,787z"
   id="path292" />&#10;				</g>&#10;				<g
   id="g293">&#10;					<path
   fill="#F7E2A5"
   d="M232.5,980h51.6c7.4-19.3,13.5-40.2,22.7-54.4c21.2-32.8,62-53.7,97.5-67.7       c43.5-17.1,89.9-21.5,135.1-31.9c50.5-11.6,105.9-27.4,136.4-72.8c1.4-2.1,2.8-4.2,4.4-6.5c-39.1,0.7-77.3,1.9-114.5,3.5       c-3.2,8.4-9.1,16.9-18.3,25.3c-26,23.9-64.1,29.9-97.9,35c-38.1,5.8-75.6,12.4-114.8,12.4c-95.3,0-187.8,3.1-279.7,34.4       c-18.7,6.4-36.7,12.6-55,18.2v48.1c35-4.8,70.3-14.5,100.2-23.9c22.7-7.2,44.9-20.7,68.2-25.2c18.2-3.5,103.6-26.8,116.7-5.7       c12.5,20.2-30.1,69.6-40.8,88.9C242.2,961.7,238,970.2,232.5,980z"
   id="path293" />&#10;				</g>&#10;			</g>&#10;		</g>&#10;		<g
   id="g330">&#10;			<path
   fill="#C67B7A"
   d="M757.2,807.4c0,0,53.7-22.7,72.2-19c18.4,3.7-25.8,35.3-26.3,42.1s40.6,40,44.3,49.5s-60.6-5.3-62.2-5.3     c-1.6,0-4.2,46.9-10.5,50.1s-29.5-44.8-33.2-46.9c-3.7-2.1-55.8,10.5-63.2,6.3s28.5-39.5,28.5-39.5s-19-15.3-32.1-15.8     s-6.3-11.1,22.7-15.8C726.1,808.5,757.2,807.4,757.2,807.4z"
   id="path295" />&#10;			<path
   fill="#B26268"
   d="M832.4,789.7c-1.2,4.1-8,12.8-20.7,22.8c-12,9.4-11.8,14-8.7,18C804.2,823.8,841.6,796.5,832.4,789.7z      M847.3,880.1c-0.2-0.6-0.6-1.3-1.2-2.1c-0.7,0.7-1.5,1.3-2.8,1.6c-8.2,2.1-59.8-9.7-59.8-9.7s-5,46.4-9.5,50.3     c-4.5,4-29-45-29-45s-1.6-0.8-5.5-1.6s-38.2,5.3-49.8,8.7c-6.4,1.9-10.6,1.6-12.6,0c0,1,0.2,1.7,1,2.1c7.4,4.2,59.5-8.4,63.2-6.3     c3.7,2.1,26.9,50.1,33.2,46.9s9-50.1,10.5-50.1C786.7,874.9,851,889.6,847.3,880.1z M705.9,839.8c-2.1-1.3-19.2-11.1-29.5-12.4     c-3.5-0.5-5.8-0.3-7.4,0.1c1,0.8,2.8,1.3,5.5,1.4c12.2,0.5,29.4,13.6,31.8,15.6C707.9,842.4,707.6,840.9,705.9,839.8z"
   id="path296" />&#10;			<path
   fill="#B26268"
   d="M755.9,817.2c0,0-24.2,6.3-23.7,14.8c0.5,8.4,6.8,16.9,11.6,18.2c4.7,1.3,31.6-4.5,37.9-7.4     s7.9-12.9,7.9-14.5C789.6,826.7,762.2,813,755.9,817.2z"
   id="path297" />&#10;			<path
   fill="#E29696"
   d="M760.4,819.6c-3.7,0-18.4,3.7-24,11.6c-1.9,2.8-2.1,6.5-1.5,10.1c2.4,4.6,5.9,8.1,8.8,8.9     c4.7,1.3,31.6-4.5,37.9-7.4c4.9-2.3,7-8.8,7.6-12.4C783.5,826.5,763.6,819.6,760.4,819.6z"
   id="path298" />&#10;			<path
   fill="#F0B6B4"
   d="M781.7,833.8c0,0-1.3-4.7-4-4.7c-0.8,8.7-28.5,15.3-28.5,15.3s16.1-1.8,24.2-4.2     C781.7,837.7,781.7,833.8,781.7,833.8z"
   id="path299" />&#10;			<path
   fill="#F0B6B4"
   d="M773.6,828.2c0,0-0.8-4.2-3.4-4C767.5,824.6,765.7,828.5,773.6,828.2z"
   id="path300" />&#10;			<g
   id="g301">&#10;				<ellipse
   fill="#F0B6B4"
   cx="768.2"
   cy="808.2"
   rx="4.1"
   ry="1.8"
   id="ellipse300" />&#10;				<path
   fill="#B26268"
   d="M765.1,809.3c0-1,1.8-1.8,4.1-1.8c1.2,0,2.2,0.2,3,0.6c-0.2-0.9-1.9-1.6-4-1.6c-2.3,0-4.1,0.8-4.1,1.8      c0,0.5,0.4,0.9,1.1,1.2C765.2,809.4,765.1,809.3,765.1,809.3z"
   id="path301" />&#10;			</g>&#10;			<g
   id="g302">&#10;				<ellipse
   fill="#F0B6B4"
   cx="811.5"
   cy="796.1"
   rx="4.1"
   ry="1.8"
   id="ellipse301" />&#10;				<path
   fill="#B26268"
   d="M808.5,797.2c0-1,1.8-1.8,4.1-1.8c1.2,0,2.2,0.2,3,0.6c-0.2-0.9-1.9-1.6-4-1.6c-2.3,0-4.1,0.8-4.1,1.8      c0,0.5,0.4,0.9,1.1,1.2C808.5,797.3,808.5,797.2,808.5,797.2z"
   id="path302" />&#10;			</g>&#10;			<g
   id="g303">&#10;				<ellipse
   fill="#F0B6B4"
   cx="796.5"
   cy="821.4"
   rx="4.1"
   ry="1.8"
   id="ellipse302" />&#10;				<path
   fill="#EFCFCF"
   d="M793.5,822.4c0-1,1.8-1.8,4.1-1.8c1.2,0,2.2,0.2,3,0.6c-0.2-0.9-1.9-1.6-4-1.6c-2.3,0-4.1,0.8-4.1,1.8      c0,0.5,0.4,0.9,1.1,1.2C793.5,822.6,793.5,822.5,793.5,822.4z"
   id="path303" />&#10;			</g>&#10;			<g
   id="g304">&#10;				<ellipse
   fill="#F0B6B4"
   cx="737.2"
   cy="814"
   rx="4.1"
   ry="1.8"
   id="ellipse303" />&#10;				<path
   fill="#EFCFCF"
   d="M734.2,815.1c0-1,1.8-1.8,4.1-1.8c1.2,0,2.2,0.2,3,0.6c-0.2-0.9-1.9-1.6-4-1.6c-2.3,0-4.1,0.8-4.1,1.8      c0,0.5,0.4,0.9,1.1,1.2C734.2,815.2,734.2,815.1,734.2,815.1z"
   id="path304" />&#10;			</g>&#10;			<g
   id="g305">&#10;				<ellipse
   fill="#F0B6B4"
   cx="681.1"
   cy="822.2"
   rx="4.1"
   ry="1.8"
   id="ellipse304" />&#10;				<path
   fill="#EFCFCF"
   d="M678.1,823.2c0-1,1.8-1.8,4.1-1.8c1.2,0,2.2,0.2,3,0.6c-0.2-0.9-1.9-1.6-4-1.6c-2.3,0-4.1,0.8-4.1,1.8      c0,0.5,0.4,0.9,1.1,1.2C678.1,823.4,678.1,823.3,678.1,823.2z"
   id="path305" />&#10;			</g>&#10;			<g
   id="g306">&#10;				<ellipse
   fill="#F0B6B4"
   cx="711.1"
   cy="835.4"
   rx="4.1"
   ry="1.8"
   id="ellipse305" />&#10;				<path
   fill="#EFCFCF"
   d="M708.1,836.4c0-1,1.8-1.8,4.1-1.8c1.2,0,2.2,0.2,3,0.6c-0.2-0.9-1.9-1.6-4-1.6c-2.3,0-4.1,0.8-4.1,1.8      c0,0.5,0.4,0.9,1.1,1.2C708.1,836.5,708.1,836.5,708.1,836.4z"
   id="path306" />&#10;			</g>&#10;			<g
   id="g307">&#10;				<ellipse
   fill="#F0B6B4"
   cx="691.1"
   cy="876.2"
   rx="4.1"
   ry="1.8"
   id="ellipse306" />&#10;				<path
   fill="#B26268"
   d="M688.1,877.2c0-1,1.8-1.8,4.1-1.8c1.2,0,2.2,0.2,3,0.6c-0.2-0.9-1.9-1.6-4-1.6c-2.3,0-4.1,0.8-4.1,1.8      c0,0.5,0.4,0.9,1.1,1.2C688.1,877.4,688.1,877.3,688.1,877.2z"
   id="path307" />&#10;			</g>&#10;			<g
   id="g308">&#10;				<ellipse
   fill="#F0B6B4"
   cx="768.8"
   cy="901.5"
   rx="4.1"
   ry="1.8"
   id="ellipse307" />&#10;				<path
   fill="#B26268"
   d="M765.8,902.5c0-1,1.8-1.8,4.1-1.8c1.2,0,2.2,0.2,3,0.6c-0.2-0.9-1.9-1.6-4-1.6c-2.3,0-4.1,0.8-4.1,1.8      c0,0.5,0.4,0.9,1.1,1.2C765.8,902.7,765.8,902.6,765.8,902.5z"
   id="path308" />&#10;			</g>&#10;			<g
   id="g309">&#10;				<ellipse
   fill="#F0B6B4"
   cx="781.5"
   cy="869.1"
   rx="4.1"
   ry="1.8"
   id="ellipse308" />&#10;				<path
   fill="#EFCFCF"
   d="M778.4,870.1c0-1,1.8-1.8,4.1-1.8c1.2,0,2.2,0.2,3,0.6c-0.2-0.9-1.9-1.6-4-1.6c-2.3,0-4.1,0.8-4.1,1.8      c0,0.5,0.4,0.9,1.1,1.2C778.5,870.3,778.4,870.2,778.4,870.1z"
   id="path309" />&#10;			</g>&#10;			<g
   id="g310">&#10;				<ellipse
   fill="#F0B6B4"
   cx="744.6"
   cy="870.9"
   rx="4.1"
   ry="1.8"
   id="ellipse309" />&#10;				<path
   fill="#EFCFCF"
   d="M741.6,872c0-1,1.8-1.8,4.1-1.8c1.2,0,2.2,0.2,3,0.6c-0.2-0.9-1.9-1.6-4-1.6c-2.3,0-4.1,0.8-4.1,1.8      c0,0.5,0.4,0.9,1.1,1.2C741.6,872.1,741.6,872,741.6,872z"
   id="path310" />&#10;			</g>&#10;			<g
   id="g311">&#10;				<ellipse
   fill="#F0B6B4"
   cx="829.7"
   cy="873.6"
   rx="4.1"
   ry="1.8"
   id="ellipse310" />&#10;				<path
   fill="#B26268"
   d="M826.6,874.6c0-1,1.8-1.8,4.1-1.8c1.2,0,2.2,0.2,3,0.6c-0.2-0.9-1.9-1.6-4-1.6c-2.3,0-4.1,0.8-4.1,1.8      c0,0.5,0.4,0.9,1.1,1.2C826.7,874.7,826.6,874.7,826.6,874.6z"
   id="path311" />&#10;			</g>&#10;			<path
   fill="#B26268"
   d="M696.5,828.8c-1,0.1-4.2-1.2-4.2-1.2s2.6-1.3,3.3-1.2S703.9,827.8,696.5,828.8z"
   id="path312" />&#10;			<path
   fill="#B26268"
   d="M717.1,852.6c0,0-5-1.3-6.1,0.3c-1.1,1.6-3.3,2.9-1.3,3.2C711.7,856.3,720.1,855.6,717.1,852.6z"
   id="path313" />&#10;			<path
   fill="#B26268"
   d="M714.6,850.2c-0.6,0.2-2-0.7,0-0.9c2-0.3,2.4,0.1,2.5,0.5c0.1,0.4,0.1,0.4,0.1,0.4     S715.1,850.1,714.6,850.2z"
   id="path314" />&#10;			<path
   fill="#B26268"
   d="M716.8,860.3c0,0-1.4-1.7-2-0.8c-0.5,0.9-1.8,2-0.3,2.1C716.1,861.7,719.6,861.6,716.8,860.3z"
   id="path315" />&#10;			<path
   fill="#B26268"
   d="M767.8,880.3c-1.5-0.6-2.2-3.8-5-1.3c-2.8,2.5-3.7,4.5-2.1,5.1c1.6,0.7,4.3,1.8,5.7,1.3     C767.6,884.9,773,882.4,767.8,880.3z"
   id="path316" />&#10;			<path
   fill="#B26268"
   d="M768.7,878.6c0,0-1.3-3.4-2.1-2.1C765.8,877.8,768.3,878.2,768.7,878.6z"
   id="path317" />&#10;			<path
   fill="#B26268"
   d="M771.2,875.3c-0.7,0-1.8-0.7-2-1.3s-2.2-1.6-0.1-1.6s3.3,0.1,3.3,0.1S774.4,875.4,771.2,875.3z"
   id="path318" />&#10;			<path
   fill="#B26268"
   d="M771.5,870.5c0,0-1.3,1.2-2.8-0.3C767.2,868.8,771.3,868.8,771.5,870.5z"
   id="path319" />&#10;			<path
   fill="#B26268"
   d="M765.8,889.4c0,0-3.6,0.3-2.5,1.7c1.1,1.4,1.1,1.8,2.1,1.4C766.5,892.1,772.4,891.7,765.8,889.4z"
   id="path320" />&#10;			<path
   fill="#B26268"
   d="M815.8,863.9c0,0-2.6-1.7-2.6-0.4s-0.7,2.1,0.7,2.1C815.2,865.7,817.7,864.6,815.8,863.9z"
   id="path321" />&#10;			<path
   fill="#B26268"
   d="M806.8,849.5c-0.5-0.5-3.7-4.1-6.3-0.9c-2.6,3.2-6.7,2.4-3,4.3c3.7,2,4.3,2.4,6.2,2.4     C805.4,855.2,810,852.5,806.8,849.5z"
   id="path322" />&#10;			<path
   fill="#B26268"
   d="M802.5,845.2c-1.6-1.1-4.7-0.9-4,0.7C799.4,847.5,802.5,845.2,802.5,845.2z"
   id="path323" />&#10;			<path
   fill="#B26268"
   d="M801.6,840.5c0,0-2.8-0.7-2.6,0.4c0.1,1.1,0.7,1.3,0.7,1.3S802.8,841.5,801.6,840.5z"
   id="path324" />&#10;			<path
   fill="#B26268"
   d="M801.6,859.2c0,0-3.8-1.6-5.1-0.7c-1.3,0.9-4.5-0.1-1.3,0.9C798.3,860.5,802.3,861.6,801.6,859.2z"
   id="path325" />&#10;			<path
   fill="#B26268"
   d="M795,807c0,0-2.8-3.3-5.1-0.9s-6.5,3.4-2.4,3.7s7.5,0.4,8.2,0.3C796.4,809.9,797.5,808.5,795,807z"
   id="path326" />&#10;			<path
   fill="#B26268"
   d="M798.1,805.3c-0.3-0.4-4.9-1.8-4-0.8C795,805.6,799.2,807,798.1,805.3z"
   id="path327" />&#10;			<path
   fill="#B26268"
   d="M805.3,805.5c0.1-0.4-1.7-2.4-2.9-2s0.5,1.8,1.4,1.8S805.3,805.5,805.3,805.5z"
   id="path328" />&#10;			<path
   fill="#B26268"
   d="M787.3,813.5c0,0-5.7-1.3-5.8,0c-0.1,1.3-0.3,1.8,1.7,2.1C785.2,815.9,791.5,815.9,787.3,813.5z"
   id="path329" />&#10;			<path
   fill="#B26268"
   d="M722.7,835.4c0,0-7.1,3.2-3.2,4.5C723.5,841.2,727.5,839.3,722.7,835.4z"
   id="path330" />&#10;		</g>&#10;		<g
   id="g366">&#10;			<path
   fill="#C67B7A"
   d="M958.7,831.4c0,0-27.6-11.6-37.1-9.7c-9.5,1.9,13.3,18.1,13.5,21.6c0.3,3.5-20.8,20.6-22.7,25.4     c-1.9,4.9,31.1-2.7,31.9-2.7s2.2,24.1,5.4,25.7c3.2,1.6,15.1-23,17-24.1c1.9-1.1,28.7,5.4,32.5,3.2c3.8-2.2-14.6-20.3-14.6-20.3     s9.7-7.8,16.5-8.1c6.8-0.3,3.2-5.7-11.6-8.1C974.7,831.9,958.7,831.4,958.7,831.4z"
   id="path331" />&#10;			<path
   fill="#B26268"
   d="M935.1,843.2c1.6-2.1,1.7-4.4-4.4-9.2c-6.5-5.1-10-9.6-10.6-11.7C915.4,825.7,934.6,839.8,935.1,843.2z      M944.4,866c0.8,0,2.2,24.1,5.4,25.7c3.2,1.6,15.1-23,17-24.1c1.9-1.1,28.7,5.4,32.5,3.2c0.4-0.2,0.5-0.6,0.5-1.1     c-1,0.8-3.2,1-6.5,0c-6-1.8-23.5-4.9-25.6-4.5c-2,0.4-2.8,0.8-2.8,0.8s-12.6,25.2-14.9,23.1c-2.3-2-4.9-25.8-4.9-25.8     s-26.5,6.1-30.7,5c-0.6-0.2-1.1-0.5-1.4-0.8c-0.3,0.4-0.5,0.8-0.6,1.1C910.5,873.5,943.5,866,944.4,866z M984.8,850.4     c1.3-1,10.1-7.7,16.3-8c1.4-0.1,2.3-0.3,2.8-0.7c-0.8-0.2-2-0.3-3.8-0.1c-5.3,0.7-14.1,5.7-15.1,6.4     C984.2,848.5,984,849.3,984.8,850.4z"
   id="path332" />&#10;			<path
   fill="#B26268"
   d="M959.4,836.4c0,0,12.4,3.2,12.2,7.6c-0.3,4.3-3.5,8.7-6,9.3c-2.4,0.7-16.2-2.3-19.5-3.8s-4.1-6.6-4.1-7.4     C942.1,841.2,956.1,834.2,959.4,836.4z"
   id="path333" />&#10;			<path
   fill="#E29696"
   d="M957.1,837.6c1.9,0,9.5,1.9,12.3,6c1,1.4,1.1,3.3,0.8,5.2c-1.2,2.3-3,4.1-4.5,4.6     c-2.4,0.7-16.2-2.3-19.5-3.8c-2.5-1.2-3.6-4.5-3.9-6.4C945.2,841.1,955.4,837.6,957.1,837.6z"
   id="path334" />&#10;			<path
   fill="#F0B6B4"
   d="M946.1,844.9c0,0,0.7-2.4,2-2.4c0.4,4.5,14.6,7.8,14.6,7.8s-8.2-0.9-12.4-2.2     C946.1,846.9,946.1,844.9,946.1,844.9z"
   id="path335" />&#10;			<path
   fill="#F0B6B4"
   d="M950.3,842c0,0,0.4-2.2,1.8-2C953.4,840.1,954.4,842.2,950.3,842z"
   id="path336" />&#10;			<g
   id="g337">&#10;				<ellipse
   fill="#F0B6B4"
   cx="953.1"
   cy="831.8"
   rx="2.1"
   ry="0.9"
   id="ellipse336" />&#10;				<path
   fill="#B26268"
   d="M954.6,832.3c0-0.5-0.9-0.9-2.1-0.9c-0.6,0-1.2,0.1-1.5,0.3c0.1-0.5,1-0.8,2.1-0.8      c1.2,0,2.1,0.4,2.1,0.9c0,0.2-0.2,0.5-0.6,0.6C954.6,832.4,954.6,832.3,954.6,832.3z"
   id="path337" />&#10;			</g>&#10;			<g
   id="g338">&#10;				<ellipse
   fill="#F0B6B4"
   cx="930.8"
   cy="825.5"
   rx="2.1"
   ry="0.9"
   id="ellipse337" />&#10;				<path
   fill="#B26268"
   d="M932.4,826.1c0-0.5-0.9-0.9-2.1-0.9c-0.6,0-1.1,0.1-1.5,0.3c0.1-0.5,1-0.8,2.1-0.8      c1.2,0,2.1,0.4,2.1,0.9c0,0.2-0.2,0.5-0.6,0.6C932.4,826.1,932.4,826.1,932.4,826.1z"
   id="path338" />&#10;			</g>&#10;			<g
   id="g339">&#10;				<ellipse
   fill="#F0B6B4"
   cx="938.5"
   cy="838.5"
   rx="2.1"
   ry="0.9"
   id="ellipse338" />&#10;				<path
   fill="#EFCFCF"
   d="M940.1,839.1c0-0.5-0.9-0.9-2.1-0.9c-0.6,0-1.1,0.1-1.5,0.3c0.1-0.5,1-0.8,2.1-0.8      c1.2,0,2.1,0.4,2.1,0.9c0,0.2-0.2,0.5-0.6,0.6C940.1,839.1,940.1,839.1,940.1,839.1z"
   id="path339" />&#10;			</g>&#10;			<g
   id="g340">&#10;				<ellipse
   fill="#F0B6B4"
   cx="969"
   cy="834.7"
   rx="2.1"
   ry="0.9"
   id="ellipse339" />&#10;				<path
   fill="#EFCFCF"
   d="M970.5,835.3c0-0.5-0.9-0.9-2.1-0.9c-0.6,0-1.1,0.1-1.5,0.3c0.1-0.5,1-0.8,2.1-0.8      c1.2,0,2.1,0.4,2.1,0.9c0,0.2-0.2,0.5-0.6,0.6C970.5,835.3,970.5,835.3,970.5,835.3z"
   id="path340" />&#10;			</g>&#10;			<g
   id="g341">&#10;				<ellipse
   fill="#F0B6B4"
   cx="997.8"
   cy="838.9"
   rx="2.1"
   ry="0.9"
   id="ellipse340" />&#10;				<path
   fill="#EFCFCF"
   d="M999.3,839.5c0-0.5-0.9-0.9-2.1-0.9c-0.6,0-1.1,0.1-1.5,0.3c0.1-0.5,1-0.8,2.1-0.8      c1.2,0,2.1,0.4,2.1,0.9c0,0.2-0.2,0.5-0.6,0.6C999.3,839.5,999.3,839.5,999.3,839.5z"
   id="path341" />&#10;			</g>&#10;			<g
   id="g342">&#10;				<ellipse
   fill="#F0B6B4"
   cx="982.4"
   cy="845.7"
   rx="2.1"
   ry="0.9"
   id="ellipse341" />&#10;				<path
   fill="#EFCFCF"
   d="M983.9,846.2c0-0.5-0.9-0.9-2.1-0.9c-0.6,0-1.1,0.1-1.5,0.3c0.1-0.5,1-0.8,2.1-0.8      c1.2,0,2.1,0.4,2.1,0.9c0,0.2-0.2,0.5-0.6,0.6C983.9,846.3,983.9,846.3,983.9,846.2z"
   id="path342" />&#10;			</g>&#10;			<g
   id="g343">&#10;				<ellipse
   fill="#F0B6B4"
   cx="992.6"
   cy="866.6"
   rx="2.1"
   ry="0.9"
   id="ellipse342" />&#10;				<path
   fill="#B26268"
   d="M994.2,867.2c0-0.5-0.9-0.9-2.1-0.9c-0.6,0-1.1,0.1-1.5,0.3c0.1-0.5,1-0.8,2.1-0.8      c1.2,0,2.1,0.4,2.1,0.9c0,0.2-0.2,0.5-0.6,0.6C994.2,867.3,994.2,867.2,994.2,867.2z"
   id="path343" />&#10;			</g>&#10;			<g
   id="g344">&#10;				<ellipse
   fill="#F0B6B4"
   cx="952.7"
   cy="879.6"
   rx="2.1"
   ry="0.9"
   id="ellipse343" />&#10;				<path
   fill="#B26268"
   d="M954.3,880.2c0-0.5-0.9-0.9-2.1-0.9c-0.6,0-1.1,0.1-1.5,0.3c0.1-0.5,1-0.8,2.1-0.8      c1.2,0,2.1,0.4,2.1,0.9c0,0.2-0.2,0.5-0.6,0.6C954.3,880.2,954.3,880.2,954.3,880.2z"
   id="path344" />&#10;			</g>&#10;			<g
   id="g345">&#10;				<ellipse
   fill="#F0B6B4"
   cx="946.3"
   cy="863"
   rx="2.1"
   ry="0.9"
   id="ellipse344" />&#10;				<path
   fill="#EFCFCF"
   d="M947.8,863.5c0-0.5-0.9-0.9-2.1-0.9c-0.6,0-1.1,0.1-1.5,0.3c0.1-0.5,1-0.8,2.1-0.8      c1.2,0,2.1,0.4,2.1,0.9c0,0.2-0.2,0.5-0.6,0.6C947.8,863.6,947.8,863.6,947.8,863.5z"
   id="path345" />&#10;			</g>&#10;			<g
   id="g346">&#10;				<ellipse
   fill="#F0B6B4"
   cx="965.2"
   cy="863.9"
   rx="2.1"
   ry="0.9"
   id="ellipse345" />&#10;				<path
   fill="#EFCFCF"
   d="M966.7,864.5c0-0.5-0.9-0.9-2.1-0.9c-0.6,0-1.1,0.1-1.5,0.3c0.1-0.5,1-0.8,2.1-0.8      c1.2,0,2.1,0.4,2.1,0.9c0,0.2-0.2,0.5-0.6,0.6C966.7,864.6,966.7,864.5,966.7,864.5z"
   id="path346" />&#10;			</g>&#10;			<g
   id="g347">&#10;				<ellipse
   fill="#F0B6B4"
   cx="921.5"
   cy="865.3"
   rx="2.1"
   ry="0.9"
   id="ellipse346" />&#10;				<path
   fill="#B26268"
   d="M923.1,865.8c0-0.5-0.9-0.9-2.1-0.9c-0.6,0-1.1,0.1-1.5,0.3c0.1-0.5,1-0.8,2.1-0.8      c1.2,0,2.1,0.4,2.1,0.9c0,0.2-0.2,0.5-0.6,0.6C923,865.9,923.1,865.9,923.1,865.8z"
   id="path347" />&#10;			</g>&#10;			<path
   fill="#B26268"
   d="M989.9,842.3c0.5,0.1,2.2-0.6,2.2-0.6s-1.4-0.7-1.7-0.6C990,841.2,986.1,841.8,989.9,842.3z"
   id="path348" />&#10;			<path
   fill="#B26268"
   d="M979.3,854.5c0,0,2.6-0.7,3.1,0.1c0.5,0.8,1.7,1.5,0.7,1.6S977.8,856.1,979.3,854.5z"
   id="path349" />&#10;			<path
   fill="#B26268"
   d="M980.6,853.3c0.3,0.1,1-0.3,0-0.5s-1.2,0.1-1.3,0.3c-0.1,0.2-0.1,0.2-0.1,0.2S980.3,853.3,980.6,853.3z"
   id="path350" />&#10;			<path
   fill="#B26268"
   d="M979.5,858.5c0,0,0.7-0.9,1-0.4c0.3,0.5,0.9,1,0.1,1.1C979.8,859.2,978,859.1,979.5,858.5z"
   id="path351" />&#10;			<path
   fill="#B26268"
   d="M953.3,868.7c0.8-0.3,1.1-2,2.6-0.7c1.4,1.3,1.9,2.3,1.1,2.6c-0.8,0.3-2.2,0.9-2.9,0.7     C953.4,871.1,950.6,869.8,953.3,868.7z"
   id="path352" />&#10;			<path
   fill="#B26268"
   d="M952.8,867.9c0,0,0.7-1.8,1.1-1.1C954.3,867.5,953,867.7,952.8,867.9z"
   id="path353" />&#10;			<path
   fill="#B26268"
   d="M951.5,866.2c0.4,0,0.9-0.3,1-0.7c0.1-0.3,1.1-0.8,0.1-0.8s-1.7,0.1-1.7,0.1S949.9,866.2,951.5,866.2z"
   id="path354" />&#10;			<path
   fill="#B26268"
   d="M951.4,863.7c0,0,0.7,0.6,1.4-0.1S951.5,862.9,951.4,863.7z"
   id="path355" />&#10;			<path
   fill="#B26268"
   d="M954.3,873.4c0,0,1.8,0.1,1.3,0.9s-0.5,0.9-1.1,0.7C954,874.8,950.9,874.6,954.3,873.4z"
   id="path356" />&#10;			<path
   fill="#B26268"
   d="M928.6,860.4c0,0,1.4-0.9,1.4-0.2s0.3,1.1-0.3,1.1S927.7,860.7,928.6,860.4z"
   id="path357" />&#10;			<path
   fill="#B26268"
   d="M933.3,852.9c0.3-0.2,1.9-2.1,3.2-0.5s3.4,1.2,1.6,2.2c-1.9,1-2.2,1.2-3.2,1.2S931.6,854.5,933.3,852.9z"
   id="path358" />&#10;			<path
   fill="#B26268"
   d="M935.4,850.8c0.8-0.5,2.4-0.5,2,0.3C937.1,851.9,935.4,850.8,935.4,850.8z"
   id="path359" />&#10;			<path
   fill="#B26268"
   d="M935.9,848.3c0,0,1.4-0.3,1.4,0.2s-0.3,0.7-0.3,0.7S935.3,848.9,935.9,848.3z"
   id="path360" />&#10;			<path
   fill="#B26268"
   d="M935.9,857.9c0,0,2-0.8,2.6-0.3c0.7,0.5,2.3-0.1,0.7,0.5S935.6,859.1,935.9,857.9z"
   id="path361" />&#10;			<path
   fill="#B26268"
   d="M939.3,831.1c0,0,1.4-1.7,2.6-0.5c1.2,1.2,3.3,1.8,1.2,1.9c-2.1,0.1-3.9,0.2-4.2,0.1     C938.6,832.6,938,831.9,939.3,831.1z"
   id="path362" />&#10;			<path
   fill="#B26268"
   d="M937.7,830.3c0.2-0.2,2.5-0.9,2-0.4C939.3,830.4,937.1,831.1,937.7,830.3z"
   id="path363" />&#10;			<path
   fill="#B26268"
   d="M934,830.3c-0.1-0.2,0.9-1.2,1.5-1c0.6,0.2-0.3,0.9-0.7,0.9S934,830.3,934,830.3z"
   id="path364" />&#10;			<path
   fill="#B26268"
   d="M943.3,834.5c0,0,2.9-0.7,3,0c0.1,0.7,0.1,0.9-0.9,1.1C944.4,835.7,941.1,835.7,943.3,834.5z"
   id="path365" />&#10;			<path
   fill="#B26268"
   d="M976.4,845.7c0,0,3.7,1.6,1.6,2.3C976,848.7,974,847.7,976.4,845.7z"
   id="path366" />&#10;		</g>&#10;		&#10;		<g
   id="g479">&#10;			<path
   fill="#92B2C5"
   d="M630.2,883.7c-1.6-4.2-4.4-6.9-7.2-10.4c-6.6-8.2-16.1-16.3-27.3-16.5c-5.9-0.1-11.4,0.8-16.5,3.7     c-3.7,2.1-5,5.6-8.3,8c-3.8,2.7-8.7,4.2-12.5,7.2c-4.3,3.6-8,9.5-11.3,14l-2.4,3.9c-5.2,4.2,2.9,6,5.9,6.9     c7.1,2,14.9,1.6,22.4,1.8c11.6,0.3,23.3-0.1,34.8-1.3c6.3-0.7,12.6-1.8,18.7-3.6c2.8-0.8,5.6-0.9,8.3-2     C634.9,892.1,631.4,887,630.2,883.7z"
   id="path475" />&#10;			<g
   id="g478">&#10;				<g
   id="g476">&#10;					<path
   fill="#7A96A5"
   d="M626.5,897.4c2.8-0.8,5.6-0.9,8.3-2c0-3.3-3.4-8.4-4.7-11.7c-1.6-4.2-4.4-6.9-7.2-10.4       c-1.4-1.8-3-3.5-4.6-5.2c1.5,1.9,2.7,3.7,3.2,4.6c2.8,5.6,6.1,12.7-1.1,16.4c-7.1,3.7-16,3.3-23.7,4.4       c-8.7,1.3-16.8,2.2-25.9,2c-6.5-0.2-17.5-0.2-22.4-4.9c-0.4-0.4-0.8-0.9-1.1-1.4c-0.1,0.1-0.2,0.3-0.3,0.4l-2.4,3.9       c-5.2,4.2,2.9,6,5.9,6.9c7.1,2,14.9,1.6,22.4,1.8c11.6,0.3,23.3-0.1,34.8-1.3C614.2,900.3,620.5,899.2,626.5,897.4z"
   id="path476" />&#10;				</g>&#10;				<g
   id="g477">&#10;					<path
   fill="#7A96A5"
   d="M607.5,860l0.3,0.5c0.1-0.1,0.2-0.1,0.3-0.1C607.9,860.2,607.7,860.1,607.5,860z"
   id="path477" />&#10;				</g>&#10;			</g>&#10;		</g>&#10;		&#10;		&#10;		&#10;		<g
   id="g492">&#10;			<path
   fill="#92B2C5"
   d="M1120.6,908.7c-4.1-5-10.3-5.4-16.3-5.3c-10.1,0.1-22.2,8.7-19.3,19.6c13.6,0.7,27.6,0.5,41.2,0     C1126.6,918.2,1123.6,912.3,1120.6,908.7z"
   id="path491" />&#10;			<path
   fill="#7A96A5"
   d="M1084.6,920c0,0.9,0.2,1.9,0.4,2.9c13.6,0.7,27.6,0.5,41.2,0c0.3-4.6-2.4-10.2-5.3-13.9     c0,4.8,0,7.5-5.1,9.3c-4.6,1.6-9.7,2.2-14.6,2.3c-4.3,0-8.9,0.4-13.2,0C1086.9,920.6,1085.8,920.3,1084.6,920z"
   id="path492" />&#10;		</g>&#10;		<g
   id="g494">&#10;			<path
   fill="#92B2C5"
   d="M365.8,911.8c-3.4-4.1-8.4-4.4-13.4-4.4c-8.3,0-18.3,7.1-15.9,16.1c11.2,0.6,22.7,0.4,33.9,0     C370.7,919.6,368.3,914.7,365.8,911.8z"
   id="path493" />&#10;			<path
   fill="#7A96A5"
   d="M336.2,921.1c0,0.8,0.1,1.6,0.4,2.4c11.2,0.6,22.7,0.4,33.9,0c0.2-3.8-2-8.4-4.3-11.4     c0,3.9,0,6.2-4.2,7.6c-3.8,1.3-8,1.8-12,1.9c-3.6,0-7.3,0.3-10.9,0C338.1,921.6,337.1,921.4,336.2,921.1z"
   id="path494" />&#10;		</g>&#10;		<g
   id="g499">&#10;			<path
   fill="#92B2C5"
   d="M1272.2,922.1c1.4-3.7,3.9-6.1,6.4-9.2c5.8-7.3,14.2-14.4,24.1-14.6c5.2-0.1,10,0.7,14.6,3.3     c3.3,1.9,4.5,5,7.4,7c3.4,2.4,7.7,3.7,11,6.4c3.8,3.2,7.1,8.4,10,12.3l2.1,3.5c4.6,3.7-2.5,5.3-5.2,6.1     c-6.3,1.8-13.2,1.4-19.8,1.6c-10.2,0.2-20.6-0.1-30.7-1.2c-5.6-0.6-11.1-1.6-16.5-3.2c-2.5-0.7-5-0.8-7.4-1.8     C1268.1,929.5,1271.1,925,1272.2,922.1z"
   id="path495" />&#10;			<g
   id="g498">&#10;				<g
   id="g496">&#10;					<path
   fill="#7A96A5"
   d="M1275.5,934.2c-2.5-0.7-5-0.8-7.4-1.8c0-2.9,3-7.4,4.1-10.3c1.4-3.7,3.9-6.1,6.4-9.2       c1.2-1.5,2.6-3.1,4.1-4.6c-1.3,1.7-2.4,3.3-2.8,4.1c-2.5,4.9-5.4,11.2,0.9,14.5c6.3,3.3,14.1,2.9,20.9,3.9       c7.7,1.1,14.8,2,22.8,1.8c5.8-0.1,15.4-0.2,19.8-4.3c0.3-0.3,0.7-0.8,1-1.3c0.1,0.1,0.2,0.3,0.3,0.4l2.1,3.5       c4.6,3.7-2.5,5.3-5.2,6.1c-6.3,1.8-13.2,1.4-19.8,1.6c-10.2,0.2-20.6-0.1-30.7-1.2C1286.4,936.8,1280.8,935.8,1275.5,934.2z"
   id="path496" />&#10;				</g>&#10;				<g
   id="g497">&#10;					<path
   fill="#7A96A5"
   d="M1292.3,901.1l-0.3,0.4c-0.1-0.1-0.2-0.1-0.3-0.1C1291.9,901.3,1292.1,901.2,1292.3,901.1z"
   id="path497" />&#10;				</g>&#10;			</g>&#10;		</g>&#10;		&#10;		<path
   fill="#9B6277"
   d="M46.6,782.6c-0.9-5.9-19.2-39,0.7-30.9c3.1,6.8,6.1,44,12.6,44.2c2.1-4.1,3.8-10.8,6.6-14.6    c4.9-6.6,7.2-4.1,7,5c-0.2,10.9-5,22.6-6.6,33.4c7.3,2,3.3-5.4,7.3-6.5c7.1-2,6.5,3.8,5.6,8.6c-1.7,8.7-7.7,15.9-9.6,25.5    c-1.9,9.4-9.9,39.4,6.4,38.6c2.2-8.5,3.1-16.4,2.7-24.3c-0.2-3.4-1.5-11.9,0.8-14.8c6.1-7.7,4.3,5,8.8,5.2    c10.7,0.4,3.9-42.2,5.5-48.8c4.6-0.4,7.5,3.2,9.2,6.1c6.8-7.4,8-20.1,14.9-28c1.3,0,2.8,0.3,4,0.8c-1.2,8.1-3.1,16.9-5.9,24.6    c-2.2,6.2-11.3,16.7-7,22.8c3-1.4,6.3-1.4,9.4,0.1c0.6,9.7-8.6,13.9-13.6,20.3c-5.1,6.6-7.7,14.5-8.9,23.1    c11.2,4.7,19.7-11.1,32.3-6.6c-0.3,11.2-21.4,19.4-29.4,24.3c-15,9.2-15.7,21.1-15.7,37.9c0,6.5,0.1,12.9-0.6,19.3    c-1.1,9.9-5.2,9.1-13.3,9.1c-0.4-8.1,0.3-16.4-0.9-24.4c-1.3-8.2-6.2-12.8-11.5-18.5c-6.2-6.6-11.9-14.5-16.7-22.2    c-3.3-5.3-7.3-9.9-6.4-16.1c1.3-9.7,6.4-8,10.8-1.6c5.9,8.6,2.2,28.6,16.7,28.4c4.3-15.4-3.1-30.5-6-45c-1.6-7.8-1-14.8-5.3-22.3    c-2.1-3.7-15.1-17.9-6-19.9c1.7,3.5,5,5.1,8.9,5.2c1.4-4.9-1.2-12-2.6-16.4C48.2,796.3,47.8,789.9,46.6,782.6z"
   id="path534" />&#10;		<path
   fill="#9B6277"
   d="M107.2,858.4c-0.5-3.1-10.1-20.6,0.3-16.3c1.7,3.6,3.2,23.2,6.7,23.3c1.1-2.2,2-5.7,3.5-7.7    c2.6-3.5,3.8-2.2,3.7,2.6c-0.1,5.8-2.6,11.9-3.5,17.6c3.8,1,1.7-2.9,3.9-3.4c3.8-1,3.4,2,2.9,4.5c-0.9,4.6-4.1,8.4-5.1,13.5    c-1,5-5.2,20.8,3.4,20.4c1.1-4.5,1.6-8.6,1.4-12.8c-0.1-1.8-0.8-6.3,0.4-7.8c3.2-4,2.3,2.6,4.7,2.7c5.6,0.2,2.1-22.3,2.9-25.7    c2.4-0.2,4,1.7,4.8,3.2c3.6-3.9,4.2-10.6,7.9-14.8c0.7,0,1.5,0.1,2.1,0.4c-0.6,4.3-1.7,8.9-3.1,13c-1.2,3.3-6,8.8-3.7,12    c1.6-0.7,3.3-0.7,5,0.1c0.3,5.1-4.6,7.3-7.2,10.7c-2.7,3.5-4,7.6-4.7,12.2c5.9,2.5,10.4-5.8,17.1-3.5    c-0.2,5.9-11.3,10.2-15.5,12.8c-7.9,4.9-8.3,11.1-8.3,20c0,3.4,0,6.8-0.3,10.2c-0.6,5.2-2.8,4.8-7,4.8c-0.2-4.3,0.2-8.7-0.5-12.9    c-0.7-4.3-3.3-6.8-6.1-9.8c-3.3-3.5-6.3-7.7-8.8-11.7c-1.8-2.8-3.8-5.2-3.4-8.5c0.7-5.1,3.4-4.2,5.7-0.9c3.1,4.6,1.2,15.1,8.8,15    c2.3-8.1-1.6-16.1-3.2-23.8c-0.8-4.1-0.6-7.8-2.8-11.7c-1.1-2-8-9.5-3.2-10.5c0.9,1.8,2.6,2.7,4.7,2.7c0.8-2.6-0.6-6.3-1.4-8.7    C108,865.6,107.8,862.3,107.2,858.4z"
   id="path535" />&#10;		<path
   fill="#F26D74"
   d="M150.6,829.8c2.3-4.8,26.1-28.5,7.1-26.5c-4.4,5-16.2,36-21.7,34.6c-0.7-4-0.5-10.1-2-14.1    c-2.5-6.9-5.1-5.3-7.2,2.5c-2.5,9.3-1.4,20.5-2.7,30.1c-6.7-0.1-1.4-5.4-4.6-7.4c-5.6-3.4-6.5,1.6-6.9,5.9    c-0.7,7.8,2.6,15.5,1.9,24.2c-0.7,8.5-1.4,36.1-15,31.3c0.3-7.8,1.4-14.7,3.7-21.4c1-2.9,4.3-9.8,3-12.8c-3.3-8.1-4.9,3.2-8.8,2.2    c-9.2-2.3,7.2-36.9,7.5-43c-3.8-1.5-7.2,0.8-9.3,2.9c-3.9-8-1.8-19.1-5.8-27.6c-1.1-0.3-2.4-0.5-3.6-0.3c-1,7.2-1.5,15.2-1.1,22.4    c0.3,5.8,5.5,17,0.3,21.2c-2.2-1.9-5.1-2.8-8.1-2.2c-2.9,8.1,3.9,14,6.6,20.7c2.7,6.9,2.9,14.2,1.9,21.9    C75,895.6,71.6,880,59.8,880.6c-2.7,10.3,18.2,22.8,21.9,33c2.6,7.4,3.3,29.7-2.1,35.7c-0.3,3.3-0.2,10.6-0.3,13.9    c5.6,0.8,14.8,3,17.9-0.7c3.2-3.9,3.6-12.7,7.1-17.4c5.9-7.8,16.8-14.1,24.4-20.8c4.2-3.7,8.6-6.6,9.5-12.1    c1.3-8.6-3.5-8.4-8.8-4.1c-7.2,5.9-9,23.8-21.3,20.1c0.1-14.2,10.2-25.2,16.3-36.9c3.3-6.3,4.6-12.4,10-17.7    c2.7-2.6,17.3-11.6,10.1-15.5c-2.3,2.5-5.5,3.1-8.9,2.2c0-4.5,4-9.9,6.3-13.4C145.8,841,147.8,835.8,150.6,829.8z"
   id="path536" />&#10;		<path
   fill="#F26D74"
   d="M40.7,845.7c-0.9-4.3,2.8-31.9-8.7-21.1c-0.3,5.5,7.5,31.9,3.1,33.7c-2.5-2.3-5.5-6.4-8.4-8.3    c-5.1-3.3-6-0.9-3.5,5.3c3,7.4,9.4,14.2,13.4,21.2c-4.5,3.3-3.7-2.9-6.8-2.5c-5.4,0.5-3.5,4.3-1.5,7.4c3.5,5.5,9.5,8.9,13.4,15    c3.8,6,17.3,24.5,5.9,28.2c-3.7-5.2-6.5-10.4-8.3-16c-0.8-2.4-2.1-8.6-4.5-10c-6.2-3.6-1.6,4.6-4.7,5.9    c-7.3,3.1-13.9-28-16.7-32.1c-3.3,0.9-4.3,4.2-4.7,6.6c-6.6-3.3-10.8-11.7-17.7-15.3c-0.9,0.3-1.8,0.9-2.5,1.6    c3,5.2,6.7,10.8,10.6,15.3c3.2,3.7,12.2,8.5,10.9,13.8c-2.4-0.2-4.7,0.7-6.5,2.6c2.2,6.8,9.6,7.3,14.8,10.3    c5.3,3.2,9.1,7.9,12.3,13.5c-6.4,6.2-16.5-2.4-24,4c3.4,8.1,23.5,5.8,31,10.7c5.5,3.5,17.1,17.9,16.6,24.6    c1.5,2.3,5.2,7.1,6.8,9.3c4.1-2.3,11.3-5.5,11.4-9.5c0.1-4.2-4.1-10.2-4.1-15c0-8.2,4-17.8,5.6-26c0.9-4.5,2.4-8.7,0.1-12.8    c-3.5-6.3-6.5-3.8-7.9,1.8c-1.8,7.5,6.1,20.2-3.9,24c-7.1-9.5-6-21.8-7.8-32.6c-1-5.8-3.2-10.5-2.3-16.7    c0.5-3.1,5.6-16.3-1.1-15.3c-0.3,2.8-2.1,4.8-4.7,5.9c-2.3-3-2.4-8.5-2.6-12C43.3,855.6,41.9,851.1,40.7,845.7z"
   id="path537" />&#10;		<g
   id="g539">&#10;			<path
   fill="#92B2C5"
   d="M142.7,980.2c-3.2-8.4-9.5-12.1-16.2-17.6c-9.5-7.7-23.4-8-35.5-8.6c-13.6-0.7-23.4-13-36.8-15.9     c-13-2.9-31-0.6-42.5,6c-15.6,9.1-24.6,26.9-24.4,44.3c19.5,3.3,39.2,2.4,59,1.9C118.5,993.7,142.7,980.2,142.7,980.2z"
   id="path538" />&#10;			<path
   fill="#7A96A5"
   d="M128.7,964.3c2.8,3.3,4.5,7.1,2.9,10.9c-4.1,9.7-34,10.9-42.4,10.3c-11-0.8-24.1-5-16.1-18.3     c-2.5,2.6-4.3,5.8-6.4,8.6c-1.5,2-2.8,5.2-4.9,6.6c-3.7,2.5-8.8,4.3-13.1,5.4c-8.5,2.2-18.4,0.8-27,0.1     c-8.7-0.7-18.5-1.7-26.1-6.6c0,0-7.6-4.9,3.7-26.6c-7.8,9.4-12,21.6-11.9,33.6c19.5,3.3,39.2,2.4,59,1.9     c72.2,3.3,96.4-10.2,96.4-10.2C139.9,972.7,134.6,968.9,128.7,964.3z"
   id="path539" />&#10;		</g>&#10;		<g
   id="g541">&#10;			<path
   fill="#92B2C5"
   d="M213.5,980.2c-3.2-8.4-9.5-12.1-16.2-17.6c-9.5-7.7-23.4-8-35.5-8.6c-13.6-0.7-23.4-13-36.8-15.9     c-13-2.9-31-0.6-42.5,6c-15.6,9.1-24.6,26.9-24.4,44.3c19.5,3.3,39.2,2.4,59,1.9C189.2,993.7,213.5,980.2,213.5,980.2z"
   id="path540" />&#10;			<path
   fill="#7A96A5"
   d="M199.4,964.3c2.8,3.3,4.5,7.1,2.9,10.9c-4.1,9.7-34,10.9-42.4,10.3c-11-0.8-24.1-5-16.1-18.3     c-2.5,2.6-4.3,5.8-6.4,8.6c-1.5,2-2.8,5.2-4.9,6.6c-3.7,2.5-8.8,4.3-13.1,5.4c-8.5,2.2-18.4,0.8-27,0.1     c-8.7-0.7-18.5-1.7-26.1-6.6c0,0-7.6-4.9,3.7-26.6c-7.8,9.4-12,21.6-11.9,33.6c19.5,3.3,39.2,2.4,59,1.9     c72.2,3.3,96.4-10.2,96.4-10.2C210.6,972.7,205.3,968.9,199.4,964.3z"
   id="path541" />&#10;		</g>&#10;		&#10;		&#10;		&#10;		&#10;		&#10;		&#10;		<g
   id="g722">&#10;			<ellipse
   fill="#DEBC7D"
   cx="881"
   cy="912.9"
   rx="12"
   ry="5.5"
   id="ellipse717" />&#10;			<ellipse
   fill="#DEBC7D"
   cx="855"
   cy="928.2"
   rx="8.4"
   ry="3.9"
   id="ellipse718" />&#10;			<ellipse
   fill="#DEBC7D"
   cx="902.9"
   cy="932.7"
   rx="4.3"
   ry="2"
   id="ellipse719" />&#10;			<ellipse
   fill="#DEBC7D"
   cx="923.6"
   cy="897.7"
   rx="4.3"
   ry="2"
   id="ellipse720" />&#10;			<ellipse
   fill="#DEBC7D"
   cx="826.6"
   cy="904.7"
   rx="4.3"
   ry="2"
   id="ellipse721" />&#10;			<ellipse
   fill="#DEBC7D"
   cx="885.3"
   cy="897.7"
   rx="4.3"
   ry="2"
   id="ellipse722" />&#10;		</g>&#10;		<g
   id="g731">&#10;			<ellipse
   fill="#DEBC7D"
   cx="285.2"
   cy="883.9"
   rx="9"
   ry="4.2"
   id="ellipse723" />&#10;			<ellipse
   fill="#DEBC7D"
   cx="252.9"
   cy="898.6"
   rx="8.4"
   ry="3.9"
   id="ellipse724" />&#10;			<ellipse
   fill="#DEBC7D"
   cx="300.8"
   cy="903.1"
   rx="4.3"
   ry="2"
   id="ellipse725" />&#10;			<ellipse
   fill="#DEBC7D"
   cx="321.5"
   cy="868"
   rx="4.3"
   ry="2"
   id="ellipse726" />&#10;			<ellipse
   fill="#DEBC7D"
   cx="224.4"
   cy="875.1"
   rx="4.3"
   ry="2"
   id="ellipse727" />&#10;			<ellipse
   fill="#DEBC7D"
   cx="283.2"
   cy="868"
   rx="4.3"
   ry="2"
   id="ellipse728" />&#10;			<ellipse
   fill="#DEBC7D"
   cx="207.2"
   cy="889.1"
   rx="2.9"
   ry="1.3"
   id="ellipse729" />&#10;			<ellipse
   fill="#DEBC7D"
   cx="343"
   cy="883.9"
   rx="2.9"
   ry="1.3"
   id="ellipse730" />&#10;			<ellipse
   fill="#DEBC7D"
   cx="261.3"
   cy="882.5"
   rx="2.9"
   ry="1.3"
   id="ellipse731" />&#10;		</g>&#10;		<g
   id="g740"
   inkscape:label="g740">&#10;			<ellipse
   fill="#DEBC7D"
   cx="1275.2"
   cy="863.7"
   rx="9"
   ry="4.2"
   id="ellipse732" />&#10;			<ellipse
   fill="#DEBC7D"
   cx="1242.9"
   cy="878.5"
   rx="8.4"
   ry="3.9"
   id="ellipse733" />&#10;			<ellipse
   fill="#DEBC7D"
   cx="1290.8"
   cy="882.9"
   rx="4.3"
   ry="2"
   id="ellipse734" />&#10;			<ellipse
   fill="#DEBC7D"
   cx="1311.5"
   cy="847.9"
   rx="4.3"
   ry="2"
   id="ellipse735" />&#10;			<ellipse
   fill="#DEBC7D"
   cx="1214.5"
   cy="855"
   rx="4.3"
   ry="2"
   id="ellipse736" />&#10;			<ellipse
   fill="#DEBC7D"
   cx="1273.2"
   cy="847.9"
   rx="4.3"
   ry="2"
   id="ellipse737" />&#10;			<ellipse
   fill="#DEBC7D"
   cx="1197.2"
   cy="869"
   rx="2.9"
   ry="1.3"
   id="ellipse738" />&#10;			<ellipse
   fill="#DEBC7D"
   cx="1333"
   cy="863.7"
   rx="2.9"
   ry="1.3"
   id="ellipse739" />&#10;			<ellipse
   fill="#DEBC7D"
   cx="1251.3"
   cy="862.4"
   rx="2.9"
   ry="1.3"
   id="ellipse740" />&#10;		</g>&#10;		&#10;	</g>&#10;</g>&#10;</svg>
