<?xml version="1.0" encoding="UTF-8" standalone="no"?>
<!-- Generator: Adobe Illustrator 18.0.0, SVG Export Plug-In . SVG Version: 6.00 Build 0)  -->

<svg
   version="1.1"
   id="Layer_1"
   x="0px"
   y="0px"
   viewBox="0 0 177.60632 61.70776"
   enable-background="new 0 0 1400 980"
   xml:space="preserve"
   sodipodi:docname="rock2.svg"
   inkscape:export-filename="rock1.svg"
   inkscape:export-xdpi="96"
   inkscape:export-ydpi="96"
   inkscape:version="1.3 (0e150ed6c4, 2023-07-21)"
   width="177.60632"
   height="61.70776"
   xmlns:inkscape="http://www.inkscape.org/namespaces/inkscape"
   xmlns:sodipodi="http://sodipodi.sourceforge.net/DTD/sodipodi-0.dtd"
   xmlns="http://www.w3.org/2000/svg"
   xmlns:svg="http://www.w3.org/2000/svg"><defs
   id="defs743" /><sodipodi:namedview
   id="namedview743"
   pagecolor="#ffffff"
   bordercolor="#000000"
   borderopacity="0.25"
   inkscape:showpageshadow="2"
   inkscape:pageopacity="0.0"
   inkscape:pagecheckerboard="0"
   inkscape:deskcolor="#d1d1d1"
   inkscape:zoom="0.41836735"
   inkscape:cx="401.56098"
   inkscape:cy="66.92683"
   inkscape:window-width="1920"
   inkscape:window-height="1024"
   inkscape:window-x="0"
   inkscape:window-y="32"
   inkscape:window-maximized="1"
   inkscape:current-layer="layer3" />&#10;&#10;<g
   inkscape:groupmode="layer"
   id="layer3"
   inkscape:label="rocsk"
   transform="translate(-239.05603,-435.01898)"><g
     id="g490"
     transform="translate(-142.13765,-368.17635)">&#10;			<path
   fill="#92b2c5"
   d="m 558.7,852.7 c -3.7,-9.7 -10.8,-13.9 -18.5,-20.1 -10.9,-8.8 -26.8,-9.2 -40.6,-9.8 -15.5,-0.8 -26.8,-14.8 -42,-18.2 -14.9,-3.3 -35.5,-0.7 -48.5,6.9 -17.8,10.4 -28.2,30.7 -27.9,50.6 22.3,3.8 44.8,2.7 67.4,2.2 82.4,3.8 110.1,-11.6 110.1,-11.6 z"
   id="path489" />&#10;			<path
   fill="#7a96a5"
   d="m 542.6,834.5 c 3.2,3.8 5.2,8.2 3.4,12.5 -4.7,11.1 -38.9,12.5 -48.5,11.8 -12.6,-0.9 -27.6,-5.8 -18.4,-20.9 -2.8,3 -4.9,6.6 -7.3,9.8 -1.7,2.3 -3.2,5.9 -5.6,7.5 -4.3,2.9 -10,4.9 -14.9,6.2 -9.7,2.5 -21,0.9 -30.9,0.2 -10,-0.8 -21.2,-1.9 -29.8,-7.5 0,0 -8.6,-5.6 4.2,-30.4 -8.9,10.7 -13.8,24.7 -13.6,38.4 22.3,3.8 44.8,2.7 67.4,2.2 82.5,3.8 110.2,-11.6 110.2,-11.6 -3.4,-8.6 -9.5,-12.9 -16.2,-18.2 z"
   id="path490" />&#10;		</g></g></svg>
