<?xml version="1.0" encoding="UTF-8" standalone="no"?>
<!-- Generator: Adobe Illustrator 18.0.0, SVG Export Plug-In . SVG Version: 6.00 Build 0)  -->

<svg
   version="1.1"
   id="Layer_1"
   x="0px"
   y="0px"
   viewBox="0 0 91.903519 45.602844"
   enable-background="new 0 0 1400 980"
   xml:space="preserve"
   sodipodi:docname="rock3.svg"
   inkscape:export-filename="rock1.svg"
   inkscape:export-xdpi="96"
   inkscape:export-ydpi="96"
   inkscape:version="1.3 (0e150ed6c4, 2023-07-21)"
   width="91.903519"
   height="45.602844"
   xmlns:inkscape="http://www.inkscape.org/namespaces/inkscape"
   xmlns:sodipodi="http://sodipodi.sourceforge.net/DTD/sodipodi-0.dtd"
   xmlns="http://www.w3.org/2000/svg"
   xmlns:svg="http://www.w3.org/2000/svg"><defs
   id="defs743" /><sodipodi:namedview
   id="namedview743"
   pagecolor="#ffffff"
   bordercolor="#000000"
   borderopacity="0.25"
   inkscape:showpageshadow="2"
   inkscape:pageopacity="0.0"
   inkscape:pagecheckerboard="0"
   inkscape:deskcolor="#d1d1d1"
   inkscape:zoom="0.41836735"
   inkscape:cx="-64.536586"
   inkscape:cy="-370.48781"
   inkscape:window-width="1920"
   inkscape:window-height="1024"
   inkscape:window-x="0"
   inkscape:window-y="32"
   inkscape:window-maximized="1"
   inkscape:current-layer="layer3" />&#10;&#10;<g
   inkscape:groupmode="layer"
   id="layer3"
   inkscape:label="rocsk"
   transform="translate(-465.29752,-437.22603)"><g
     id="g479"
     transform="translate(-77.601064,-419.56659)">&#10;			<path
   fill="#92b2c5"
   d="m 630.2,883.7 c -1.6,-4.2 -4.4,-6.9 -7.2,-10.4 -6.6,-8.2 -16.1,-16.3 -27.3,-16.5 -5.9,-0.1 -11.4,0.8 -16.5,3.7 -3.7,2.1 -5,5.6 -8.3,8 -3.8,2.7 -8.7,4.2 -12.5,7.2 -4.3,3.6 -8,9.5 -11.3,14 l -2.4,3.9 c -5.2,4.2 2.9,6 5.9,6.9 7.1,2 14.9,1.6 22.4,1.8 11.6,0.3 23.3,-0.1 34.8,-1.3 6.3,-0.7 12.6,-1.8 18.7,-3.6 2.8,-0.8 5.6,-0.9 8.3,-2 0.1,-3.3 -3.4,-8.4 -4.6,-11.7 z"
   id="path475" />&#10;			<g
   id="g478">&#10;				<g
   id="g476">&#10;					<path
   fill="#7a96a5"
   d="m 626.5,897.4 c 2.8,-0.8 5.6,-0.9 8.3,-2 0,-3.3 -3.4,-8.4 -4.7,-11.7 -1.6,-4.2 -4.4,-6.9 -7.2,-10.4 -1.4,-1.8 -3,-3.5 -4.6,-5.2 1.5,1.9 2.7,3.7 3.2,4.6 2.8,5.6 6.1,12.7 -1.1,16.4 -7.1,3.7 -16,3.3 -23.7,4.4 -8.7,1.3 -16.8,2.2 -25.9,2 -6.5,-0.2 -17.5,-0.2 -22.4,-4.9 -0.4,-0.4 -0.8,-0.9 -1.1,-1.4 -0.1,0.1 -0.2,0.3 -0.3,0.4 l -2.4,3.9 c -5.2,4.2 2.9,6 5.9,6.9 7.1,2 14.9,1.6 22.4,1.8 11.6,0.3 23.3,-0.1 34.8,-1.3 6.5,-0.6 12.8,-1.7 18.8,-3.5 z"
   id="path476" />&#10;				</g>&#10;				<g
   id="g477">&#10;					<path
   fill="#7a96a5"
   d="m 607.5,860 0.3,0.5 c 0.1,-0.1 0.2,-0.1 0.3,-0.1 -0.2,-0.2 -0.4,-0.3 -0.6,-0.4 z"
   id="path477" />&#10;				</g>&#10;			</g>&#10;		</g></g></svg>
